<svg width="307" height="109" viewBox="0 0 307 109" fill="none" xmlns="http://www.w3.org/2000/svg">
<g filter="url(#filter0_d_776_4064)">
<path fill-rule="evenodd" clip-rule="evenodd" d="M303.959 62.897V89.2156H303.957V101.452L296.884 102.312L296.085 102.741L292.271 102.438L288.55 102.008L287.351 101.578L283.907 102.564L281.324 102.438L274.374 103.475L271.268 102.337L269.238 102.767L266.87 102.413L263.211 102.767H259.674L256 102.4L254.293 101.578L253.401 101.225L251.802 100.946L248.419 100.871L244.852 101.477L237.479 101.553L233.812 101.932L232.121 101.149L229.907 101.553L222.742 101.149L219.574 101.3L218.19 101.857L218.805 103.247L216.007 103.222L214.3 103.513L211.886 103.449L210.072 103.854H208.596L207.366 103.702L205.736 103.272H205.182L204.014 104.132L203.091 103.702L201.338 103.98L200.662 103.652L199.862 103.98L198.663 103.272L197.471 103.506L196.51 103.449L195.495 102.868L193.958 102.59L189.96 102.109L188.023 102.312L185.87 102.084V75.7655H185.872V63.529L192.945 62.6694L193.744 62.2396L197.558 62.543L201.279 62.9728L202.478 63.4026L205.922 62.4166L208.505 62.543L215.455 61.5065L218.561 62.6441L220.591 62.2144L222.959 62.5683L226.618 62.2144H230.154L233.829 62.5809L235.536 63.4026L236.428 63.7566L238.027 64.0347L241.41 64.1105L244.977 63.5037L252.35 63.4279L256.017 63.0487L257.708 63.8324L259.922 63.4279L267.087 63.8324L270.255 63.6807L271.639 63.1245L271.024 61.734L273.822 61.7593L275.529 61.4685L277.943 61.5317L279.757 61.1272H281.233L282.463 61.2789L284.093 61.7087H284.647L285.815 60.8491L286.738 61.2789L288.491 61.0008L289.167 61.3295L289.967 61.0008L291.166 61.7087L292.358 61.4749L293.319 61.5317L294.333 62.1132L295.871 62.3913L299.869 62.8717L301.806 62.6694L303.959 62.897Z" fill="white"/>
<path d="M187.158 101.902L185.866 101.826V101.194L187.158 101.219C187.497 101.624 188.389 101.725 188.697 101.725C189.005 101.725 189.343 101.422 189.435 101.371C189.528 101.32 190.697 101.32 191.158 101.371C191.62 101.422 191.774 101.75 191.835 101.75C191.897 101.75 192.789 101.649 192.974 101.624C193.121 101.603 193.527 101.733 193.712 101.801C193.86 102.185 194.245 102.146 194.42 102.079C195.527 101.902 195.743 102.155 196.173 102.61C196.604 103.065 196.85 102.989 196.881 102.989C197.324 102.766 197.989 102.593 198.266 102.534C199.066 102.458 199.066 103.343 199.835 103.419C200.067 103.442 200.46 103.124 200.635 102.938C200.666 103.115 201.435 103.697 201.835 103.495C202.155 103.333 202.789 103.073 203.065 102.964C203.219 103.368 203.712 103.621 203.958 103.621C204.204 103.621 204.758 103.191 204.758 103.04C204.758 102.888 205.188 102.483 205.188 102.559C205.188 102.62 205.496 102.686 205.65 102.711C205.65 102.736 205.748 102.756 206.142 102.635C206.511 102.584 207.373 103.191 207.619 103.191C207.816 103.191 208.009 103.09 208.081 103.04C208.401 103.484 208.665 103.41 208.757 103.318C208.798 103.259 208.997 103.105 209.465 102.964C210.05 102.787 209.957 103.419 210.111 103.318C210.265 103.216 210.973 102.938 211.527 102.787C212.08 102.635 212.48 102.964 213.219 103.04C213.957 103.115 214.819 102.61 215.373 102.483C215.926 102.357 217.034 102.711 217.711 102.787C218.388 102.863 218.695 102.66 218.757 102.711C218.806 102.751 219.147 102.981 219.311 103.09C218.646 103.495 216.347 103.259 215.28 103.09C214.714 103.393 213.28 103.52 212.634 103.545C211.797 103.08 210.604 103.554 210.111 103.849C209.84 103.343 209.239 103.587 208.973 103.773C208.431 104.117 208.193 103.764 208.142 103.545C207.871 103.828 207.619 103.764 207.527 103.697C206.481 103.267 206.111 103.09 205.927 103.191C205.742 103.292 205.588 103.267 205.496 103.267C205.422 103.267 205.26 103.149 205.188 103.09C205.137 103.082 205.022 103.105 204.973 103.267C204.924 103.429 204.522 103.84 204.327 104.026C203.835 104.369 203.281 103.781 203.065 103.444L202.512 103.697C201.896 104.02 201.578 104.051 201.496 104.026C201.226 104.046 200.789 103.646 200.604 103.444C200.204 103.874 199.466 104.202 199.004 103.444C198.543 102.686 197.312 103.444 197.189 103.444C196.746 103.687 196.532 103.545 196.481 103.444C195.497 102.615 194.984 102.559 194.85 102.635C193.792 102.837 193.65 102.551 193.712 102.382L192.912 102.256C192.764 102.316 192.133 102.365 191.835 102.382C191.318 101.816 189.999 101.927 189.405 102.054C188.543 102.68 187.548 102.214 187.158 101.902Z" fill="white"/>
<path d="M217.926 101.219C217.896 101.27 218.265 101.649 218.265 101.674C219.126 101.27 220.162 101.169 220.572 101.169C221.581 100.663 222.326 100.958 222.572 101.169C223.557 100.764 223.649 101.422 225.187 101.346C226.418 101.609 227.423 101.438 227.772 101.32C228.215 101.752 228.982 101.703 229.31 101.624C231.304 100.795 232.028 100.992 232.141 101.194C232.756 100.941 233.31 101.801 233.71 101.902C234.11 102.003 234.295 101.548 234.326 101.548C234.356 101.548 234.756 101.674 235.372 101.775C235.864 101.856 236.992 101.657 237.495 101.548C238.159 101.73 240.089 101.624 240.971 101.548C241.679 101.75 241.187 101.801 242.91 101.472C244.633 101.143 244.264 101.573 244.879 101.396C245.371 101.255 246.315 101.304 246.725 101.346C246.838 101.278 247.113 101.138 247.31 101.118C247.506 101.098 247.679 101.16 247.74 101.194C247.74 101.093 248.007 100.933 248.14 100.865C249.709 100.638 251.063 101.042 251.125 101.042C251.186 101.042 251.125 101.118 251.586 100.941C252.048 100.764 252.325 101.194 252.355 101.194C253.278 100.815 253.525 101.295 253.709 101.422C253.894 101.548 254.786 101.7 255.186 101.851C255.586 102.003 256.171 102.534 256.509 102.635C256.78 102.716 258.201 102.652 258.878 102.61C259.155 102.888 261.001 102.761 261.34 102.686C261.678 102.61 262.047 102.863 262.14 102.787C262.232 102.711 263.555 102.761 264.97 102.408C266.103 102.124 267.616 102.29 268.232 102.408C269.093 103.217 270.078 102.585 270.416 102.357C270.687 102.175 271.021 102.197 271.155 102.231C271.329 102.29 271.708 102.408 271.831 102.408C271.985 102.408 272.57 102.837 272.755 102.863C272.902 102.883 273.042 102.82 273.093 102.787C273.493 103.242 273.739 103.267 274.354 103.495C274.847 103.677 276.077 103.099 276.631 102.787C277.185 103.04 277.8 102.812 278.354 102.736C278.797 102.676 279.072 102.711 279.154 102.736C279.595 102.576 280.76 102.317 281.893 102.559C283.025 102.802 283.923 102.509 284.231 102.332C285.308 102.332 286.508 101.674 286.846 101.573C287.185 101.472 287.985 101.523 287.985 101.573C287.985 101.624 288.323 102.104 288.385 102.104C288.434 102.104 288.508 102.037 288.538 102.003C289.031 102.165 290.405 102.357 291.031 102.433L294.077 102.458C294.667 102.256 295.718 102.542 296.169 102.711H296.569V102.635C295.8 101.801 298.815 102.408 298.969 102.408C299.092 102.408 299.389 102.188 299.523 102.079L299.399 102.028C299.338 102.003 299.246 101.599 299.184 101.674C299.135 101.735 298.917 101.75 298.815 101.75C296.169 101.295 296.477 101.674 296.477 101.801C296.477 101.927 296.569 102.104 296.415 102.129C296.292 102.15 295.236 101.902 294.723 101.775C294.538 101.826 294.114 101.902 293.892 101.801C293.615 101.674 291.092 101.902 290.969 101.801C290.846 101.7 289.338 101.573 288.969 101.497C288.674 101.437 288.538 101.354 288.508 101.32C288.497 101.354 288.458 101.427 288.385 101.447C288.292 101.472 288.138 101.093 287.985 100.865C287.862 100.683 287.154 100.789 286.815 100.865C286.323 101.27 284.323 101.7 284.169 101.75C284.016 101.801 283.708 102.129 283.154 102.028C282.6 101.927 280.785 101.902 280.6 101.877C280.416 101.851 279.431 102.104 279.062 102.18C278.693 102.256 278.97 102.205 278.508 102.104C278.047 102.003 277.739 102.306 277.4 102.332C277.13 102.352 276.775 102.239 276.631 102.18C275.708 102.787 275.401 102.711 274.724 102.964C274.047 103.217 273.093 102.129 273.093 102.155C273.093 102.18 272.755 102.256 272.57 102.231C272.385 102.205 271.893 101.826 271.831 101.801C271.77 101.775 271.77 101.801 271.37 101.624C271.05 101.482 270.765 101.565 270.662 101.624C270.437 101.784 269.868 102.129 269.401 102.231C268.816 102.357 268.416 101.927 268.232 101.801C268.047 101.674 267.093 101.7 267.032 101.7C266.318 101.518 265.627 101.624 265.37 101.7C264.558 101.902 262.775 102.104 261.986 102.18C261.832 101.927 260.078 102.332 259.401 102.18C258.86 102.059 258.663 101.995 258.632 101.978C257.709 102.155 256.755 102.054 256.448 101.978C256.14 101.902 255.494 101.093 255.186 101.143C254.94 101.184 254.037 100.823 253.617 100.638C253.125 99.9805 252.694 100.36 252.632 100.334C252.571 100.309 252.386 100.511 252.325 100.41C252.263 100.309 251.955 100.157 251.709 100.208C251.463 100.259 251.186 100.259 251.125 100.259C250.663 100.006 249.125 100.107 248.756 100.107H248.171C247.95 100.107 247.792 100.343 247.74 100.461C247.568 100.198 247.033 100.469 246.786 100.638C246.467 100.476 245.915 100.57 245.679 100.638C245.422 100.688 244.799 100.759 244.356 100.638C243.802 100.486 243.125 100.714 242.91 100.79C242.694 100.865 241.771 101.017 241.341 100.992C240.91 100.966 241.033 100.764 240.879 100.84C240.725 100.916 238.295 100.916 237.895 100.84C237.575 100.779 237.084 100.865 236.879 100.916C235.698 101.24 234.664 101 234.295 100.84C234.196 101.063 233.967 101.169 233.864 101.194C233.556 101.346 232.941 100.714 232.726 100.511C232.51 100.309 232.387 100.385 232.326 100.436C232.276 100.476 232.12 100.452 232.049 100.436C231.464 100.031 229.956 100.638 229.249 100.941C228.541 101.245 227.864 100.638 227.772 100.638C227.68 100.638 227.034 100.865 226.818 100.84C226.646 100.82 225.659 100.697 225.187 100.638C225.085 100.705 224.683 100.769 223.895 100.486C223.108 100.203 222.726 100.351 222.634 100.461C222.24 100.137 221.834 100.107 221.68 100.132C221.372 100.031 220.603 100.461 220.511 100.461C219.772 100.309 217.957 101.169 217.926 101.219Z" fill="white"/>
<path d="M299.523 101.422C299.584 101.497 299.461 101.497 299.43 101.523H300.507C300.763 101.599 301.332 101.7 301.553 101.497C301.775 101.295 301.994 101.43 302.076 101.523C302.15 101.462 303.358 101.396 303.953 101.371V100.663C303.799 100.587 302.076 100.865 302.015 100.789C301.965 100.729 301.871 100.697 301.83 100.688C301.728 100.747 301.473 100.875 301.276 100.916C301.03 100.966 300.722 100.916 300.569 100.84C300.415 100.764 299.307 100.84 299.215 100.916C299.123 100.992 299.307 101.093 299.43 101.32C299.553 101.548 299.461 101.346 299.523 101.422Z" fill="white"/>
<path d="M302.667 62.6221L303.959 62.698V63.33L302.667 63.3047C302.328 62.9002 301.436 62.799 301.128 62.799C300.821 62.799 300.482 63.1024 300.39 63.153C300.298 63.2035 299.128 63.2035 298.667 63.153C298.205 63.1024 298.052 62.7738 297.99 62.7738C297.928 62.7738 297.036 62.8749 296.852 62.9002C296.704 62.9204 296.298 62.7907 296.113 62.7232C295.966 62.339 295.58 62.3777 295.406 62.4451C294.298 62.6221 294.083 62.3693 293.652 61.9142C293.221 61.4591 292.975 61.535 292.944 61.535C292.501 61.7575 291.836 61.9311 291.56 61.9901C290.76 62.0659 290.76 61.181 289.99 61.1052C289.759 61.0823 289.365 61.4001 289.19 61.5856C289.16 61.4086 288.39 60.8271 287.99 61.0293C287.671 61.1912 287.037 61.4507 286.76 61.5603C286.606 61.1558 286.114 60.9029 285.868 60.9029C285.621 60.9029 285.068 61.3327 285.068 61.4844C285.068 61.6361 284.637 62.0406 284.637 61.9648C284.637 61.9041 284.329 61.8384 284.175 61.8131C284.175 61.7878 284.077 61.7676 283.683 61.8889C283.314 61.9395 282.452 61.3327 282.206 61.3327C282.009 61.3327 281.816 61.4339 281.745 61.4844C281.425 61.0395 281.16 61.1136 281.068 61.2063C281.027 61.2653 280.828 61.4187 280.36 61.5603C279.775 61.7372 279.868 61.1052 279.714 61.2063C279.56 61.3074 278.852 61.5856 278.299 61.7372C277.745 61.8889 277.345 61.5603 276.606 61.4844C275.868 61.4086 275.006 61.9142 274.453 62.0406C273.899 62.167 272.791 61.8131 272.114 61.7372C271.437 61.6614 271.13 61.8637 271.068 61.8131C271.019 61.7726 270.678 61.5434 270.514 61.4339C271.179 61.0293 273.478 61.2653 274.545 61.4339C275.111 61.1305 276.545 61.0041 277.191 60.9788C278.028 61.444 279.222 60.9704 279.714 60.6754C279.985 61.181 280.586 60.9366 280.852 60.7512C281.394 60.4074 281.632 60.7597 281.683 60.9788C281.954 60.6956 282.206 60.7597 282.298 60.8271C283.345 61.2569 283.714 61.4339 283.898 61.3327C284.083 61.2316 284.237 61.2569 284.329 61.2569C284.403 61.2569 284.565 61.3749 284.637 61.4339C284.688 61.4423 284.803 61.4187 284.852 61.2569C284.901 61.0951 285.303 60.6838 285.498 60.4984C285.991 60.1546 286.544 60.7428 286.76 61.0799L287.314 60.8271C287.929 60.5035 288.247 60.4731 288.329 60.4984C288.6 60.4782 289.037 60.8777 289.221 61.0799C289.621 60.6501 290.36 60.3214 290.821 61.0799C291.283 61.8384 292.513 61.0799 292.636 61.0799C293.079 60.8372 293.293 60.9788 293.344 61.0799C294.329 61.9092 294.841 61.9648 294.975 61.8889C296.033 61.6867 296.175 61.9732 296.113 62.1418L296.913 62.2682C297.061 62.2075 297.693 62.1586 297.99 62.1418C298.507 62.7081 299.826 62.5968 300.421 62.4704C301.282 61.8434 302.277 62.3103 302.667 62.6221Z" fill="white"/>
<path d="M271.899 63.3047C271.93 63.2541 271.56 62.8749 271.56 62.8496C270.699 63.2541 269.663 63.3552 269.253 63.3552C268.244 63.8609 267.499 63.5659 267.253 63.3552C266.268 63.7597 266.176 63.1024 264.638 63.1782C263.407 62.9153 262.402 63.0855 262.053 63.2035C261.61 62.7715 260.843 62.8212 260.515 62.9001C258.521 63.7294 257.797 63.5322 257.684 63.3299C257.069 63.5827 256.515 62.7232 256.115 62.622C255.715 62.5209 255.53 62.976 255.5 62.976C255.469 62.976 255.069 62.8496 254.454 62.7484C253.961 62.6675 252.833 62.8664 252.331 62.976C251.666 62.794 249.736 62.9001 248.854 62.976C248.146 62.7737 248.638 62.7232 246.915 63.0518C245.192 63.3805 245.562 62.9507 244.946 63.1277C244.454 63.2693 243.51 63.2204 243.1 63.1782C242.987 63.2457 242.713 63.3856 242.516 63.4058C242.319 63.426 242.146 63.3636 242.085 63.3299C242.085 63.4311 241.818 63.5912 241.685 63.6586C240.116 63.8861 238.762 63.4816 238.7 63.4816C238.639 63.4816 238.7 63.4058 238.239 63.5828C237.777 63.7597 237.5 63.3299 237.47 63.3299C236.547 63.7092 236.301 63.2288 236.116 63.1024C235.931 62.976 235.039 62.8243 234.639 62.6726C234.239 62.5209 233.655 61.99 233.316 61.8889C233.045 61.808 231.624 61.872 230.947 61.9141C230.67 61.636 228.824 61.7624 228.486 61.8383C228.147 61.9141 227.778 61.6613 227.686 61.7372C227.593 61.813 226.27 61.7624 224.855 62.1164C223.723 62.3996 222.209 62.2344 221.594 62.1164C220.732 61.3074 219.747 61.9394 219.409 62.167C219.138 62.349 218.804 62.3271 218.671 62.2934C218.496 62.2344 218.117 62.1164 217.994 62.1164C217.84 62.1164 217.255 61.6866 217.071 61.6613C216.923 61.6411 216.784 61.7035 216.732 61.7372C216.332 61.2821 216.086 61.2568 215.471 61.0293C214.978 60.8472 213.748 61.4254 213.194 61.7372C212.64 61.4843 212.025 61.7119 211.471 61.7877C211.028 61.8484 210.753 61.813 210.671 61.7877C210.23 61.9478 209.065 62.2074 207.933 61.9647C206.8 61.722 205.902 62.0153 205.594 62.1922C204.517 62.1922 203.317 62.8496 202.979 62.9507C202.641 63.0518 201.841 63.0013 201.841 62.9507C201.841 62.9001 201.502 62.4198 201.441 62.4198C201.391 62.4198 201.318 62.4872 201.287 62.5209C200.794 62.3591 199.42 62.167 198.795 62.0911L195.749 62.0658C195.158 62.2681 194.108 61.9816 193.656 61.813H193.256V61.8889C194.026 62.7232 191.01 62.1164 190.856 62.1164C190.733 62.1164 190.436 62.3355 190.303 62.4451L190.426 62.4956C190.487 62.5209 190.58 62.9254 190.641 62.8496C190.69 62.7889 190.908 62.7737 191.01 62.7737C193.656 63.2288 193.349 62.8496 193.349 62.7232C193.349 62.5968 193.256 62.4198 193.41 62.3945C193.533 62.3743 194.59 62.622 195.102 62.7484C195.287 62.6979 195.712 62.622 195.933 62.7232C196.21 62.8496 198.733 62.622 198.856 62.7232C198.979 62.8243 200.487 62.9507 200.856 63.0265C201.151 63.0872 201.287 63.1698 201.318 63.2035C201.328 63.1698 201.367 63.0973 201.441 63.0771C201.533 63.0518 201.687 63.4311 201.841 63.6586C201.964 63.8406 202.671 63.7344 203.01 63.6586C203.502 63.2541 205.502 62.8243 205.656 62.7737C205.81 62.7232 206.117 62.3945 206.671 62.4956C207.225 62.5968 209.04 62.622 209.225 62.6473C209.409 62.6726 210.394 62.4198 210.763 62.3439C211.132 62.2681 210.856 62.3187 211.317 62.4198C211.779 62.5209 212.086 62.2175 212.425 62.1922C212.695 62.172 213.05 62.2849 213.194 62.3439C214.117 61.7372 214.425 61.813 215.102 61.5602C215.778 61.3074 216.732 62.3945 216.732 62.3692C216.732 62.3439 217.071 62.2681 217.255 62.2934C217.44 62.3187 217.932 62.6979 217.994 62.7232C218.055 62.7484 218.055 62.7232 218.455 62.9001C218.775 63.0417 219.06 62.9591 219.163 62.9001C219.389 62.74 219.957 62.3945 220.424 62.2934C221.009 62.167 221.409 62.5968 221.594 62.7232C221.778 62.8496 222.732 62.8243 222.793 62.8243C223.507 63.0063 224.199 62.9001 224.455 62.8243C225.267 62.622 227.05 62.4198 227.839 62.3439C227.993 62.5968 229.747 62.1922 230.424 62.3439C230.965 62.4653 231.162 62.5293 231.193 62.5462C232.116 62.3692 233.07 62.4703 233.378 62.5462C233.685 62.622 234.331 63.4311 234.639 63.3805C234.885 63.34 235.788 63.7007 236.208 63.8861C236.701 64.5434 237.131 64.1642 237.193 64.1895C237.254 64.2148 237.439 64.0125 237.5 64.1137C237.562 64.2148 237.87 64.3665 238.116 64.3159C238.362 64.2654 238.639 64.2653 238.7 64.2653C239.162 64.5182 240.7 64.417 241.07 64.417H241.654C241.876 64.417 242.034 64.1811 242.085 64.0631C242.257 64.326 242.793 64.0547 243.039 63.8861C243.359 64.0479 243.91 63.9535 244.146 63.8861C244.403 63.8355 245.026 63.7648 245.469 63.8861C246.023 64.0378 246.7 63.8103 246.915 63.7344C247.131 63.6586 248.054 63.5069 248.485 63.5322C248.915 63.5574 248.792 63.7597 248.946 63.6839C249.1 63.608 251.531 63.608 251.931 63.6839C252.251 63.7445 252.741 63.6586 252.946 63.608C254.127 63.2844 255.161 63.5237 255.53 63.6839C255.629 63.4614 255.859 63.3552 255.961 63.3299C256.269 63.1782 256.884 63.8103 257.1 64.0125C257.315 64.2148 257.438 64.1389 257.5 64.0884C257.549 64.0479 257.705 64.0715 257.776 64.0884C258.361 64.4929 259.869 63.8861 260.576 63.5827C261.284 63.2793 261.961 63.8861 262.053 63.8861C262.146 63.8861 262.792 63.6586 263.007 63.6839C263.179 63.7041 264.166 63.8271 264.638 63.8861C264.74 63.8187 265.142 63.7546 265.93 64.0378C266.718 64.321 267.099 64.1727 267.191 64.0631C267.585 64.3868 267.991 64.4171 268.145 64.3918C268.453 64.4929 269.222 64.0631 269.314 64.0631C270.053 64.2148 271.868 63.3552 271.899 63.3047Z" fill="white"/>
<path d="M190.303 63.1024C190.241 63.0265 190.364 63.0265 190.395 63.0013H189.318C189.062 62.9254 188.494 62.8243 188.272 63.0265C188.05 63.2288 187.831 63.094 187.749 63.0013C187.675 63.0619 186.467 63.1277 185.872 63.153V63.8609C186.026 63.9367 187.749 63.6586 187.81 63.7344C187.86 63.7951 187.954 63.8271 187.995 63.8356C188.098 63.7766 188.352 63.6485 188.549 63.608C188.795 63.5575 189.103 63.608 189.257 63.6839C189.41 63.7597 190.518 63.6839 190.61 63.608C190.703 63.5322 190.518 63.4311 190.395 63.2035C190.272 62.976 190.364 63.1782 190.303 63.1024Z" fill="white"/>
</g>
<path d="M201.823 65.4087C201.755 65.477 201.559 65.5112 201.234 65.5112C200.961 65.5112 200.721 65.477 200.516 65.4087L198.851 62.0002C198.167 60.9238 197.236 60.1977 196.057 59.8218C194.895 59.4289 194.178 59.0017 193.904 58.5404C193.648 57.7545 193.153 56.55 192.418 54.9269V54.3375H193.417C194.733 54.7475 195.801 55.1319 196.621 55.4907C197.971 56.0887 198.876 56.7807 199.337 57.5666C199.594 57.9937 199.987 59.0872 200.516 60.8469C201.012 62.5042 201.43 63.6575 201.772 64.3067C201.806 64.6142 201.823 64.9816 201.823 65.4087ZM203.335 71.1749H192.905V68.0996H203.335V71.1749ZM200.414 96.4952L196.108 94.1118V74.3272H200.414V96.4952Z" fill="url(#paint0_linear_776_4064)"/>
<path d="M230.45 71.1749H202.9V68.0996H230.45V71.1749ZM224.94 82.4255C224.94 78.3251 223 76.2749 219.122 76.2749C216.252 76.2749 213.851 77.7784 211.921 80.7854C210.212 83.4506 209.358 86.2868 209.358 89.2938V96.7515L205.155 94.5475V75.2754H209.563V78.3251L211.844 76.608C213.86 75.0875 215.987 74.3272 218.225 74.3272C221.266 74.3272 223.786 75.506 225.785 77.8638C227.665 80.0849 228.604 82.7416 228.604 85.834C228.604 89.7124 226.964 93.4369 223.684 97.0077L218.738 93.9068C220.275 92.3862 221.582 90.9852 222.659 89.7038C224.179 87.8928 224.94 85.4667 224.94 82.4255Z" fill="url(#paint1_linear_776_4064)"/>
<path d="M259.563 71.1749H256.206L256.154 96.2133L251.49 94.2143V90.5495C248.722 94.1204 246.006 95.9058 243.34 95.9058C241.649 95.9058 239.804 95.1967 237.805 93.7786C236.096 92.5656 234.678 91.1475 233.551 89.5244C232.218 87.6109 231.56 85.7486 231.577 83.9376C231.594 82.2803 232.508 80.3582 234.319 78.1713C236.353 75.7111 238.804 74.4809 241.675 74.4809C243.503 74.4809 245.339 75.2583 247.185 76.8131C247.748 77.2744 249.184 78.7608 251.49 81.2723V71.1749H229.553V68.0996H251.49C251.49 64.563 251.191 61.7952 250.593 59.7962C249.705 56.8234 247.723 53.2867 244.647 49.1863C244.579 49.1521 244.545 49.0154 244.545 48.7763C244.545 48.5712 244.596 48.4346 244.699 48.3662H249.594C254.002 53.2355 256.206 59.8133 256.206 68.0996H259.563V71.1749ZM250.26 82.8356C250.26 81.5029 249.534 80.3582 248.082 79.4015C246.783 78.5472 245.433 78.1201 244.032 78.1201C243.007 78.1201 241.726 78.5985 240.188 79.5552C236.839 81.6396 235.165 84.0999 235.165 86.936C235.165 88.4908 235.584 89.8405 236.421 90.9852C237.343 92.2666 238.548 92.9073 240.034 92.9073C241.572 92.9073 243.212 92.2068 244.955 90.8058C246.168 89.832 247.296 88.636 248.338 87.2179C249.619 85.4752 250.26 84.0145 250.26 82.8356Z" fill="url(#paint2_linear_776_4064)"/>
<path d="M267.841 65.4087C267.772 65.477 267.576 65.5112 267.251 65.5112C266.978 65.5112 266.739 65.477 266.534 65.4087L264.868 62.0002C264.184 60.9238 263.253 60.1977 262.074 59.8218C260.912 59.4289 260.195 59.0017 259.922 58.5404C259.665 57.7545 259.17 56.55 258.435 54.9269V54.3375H259.435C260.75 54.7475 261.818 55.1319 262.638 55.4907C263.988 56.0887 264.893 56.7807 265.355 57.5666C265.611 57.9937 266.004 59.0872 266.534 60.8469C267.029 62.5042 267.448 63.6575 267.789 64.3067C267.823 64.6142 267.841 64.9816 267.841 65.4087ZM269.353 71.1749H258.922V68.0996H269.353V71.1749ZM266.431 96.4952L262.126 94.1118V74.3272H266.431V96.4952Z" fill="url(#paint3_linear_776_4064)"/>
<path d="M294.212 71.1749H277.143V75.2754C277.212 75.2754 277.28 75.3096 277.348 75.3779C277.417 75.4462 277.477 75.4804 277.528 75.4804C277.391 75.4804 277.314 75.4719 277.297 75.4548C277.297 75.3694 278.57 75.096 281.116 74.6347C282.055 74.4638 282.987 74.3784 283.909 74.3784C287.753 74.3784 290.222 75.4548 291.316 77.6075C292.05 79.0427 292.418 81.9386 292.418 86.2953V96.162C292.059 96.0254 290.701 95.4701 288.343 94.4962C288.343 93.9495 288.232 93.5993 288.01 93.4455C287.104 93.9751 286.361 94.3766 285.78 94.65C283.935 95.5213 281.791 95.957 279.347 95.957C275.982 95.957 273.385 94.8977 271.557 92.7792C270.668 91.7541 270.224 90.6093 270.224 89.345C270.224 87.927 270.924 86.5174 272.325 85.1165C275.042 82.3999 278.416 81.0416 282.448 81.0416C284.892 81.0416 286.856 81.6054 288.343 82.7331V80.3753C287.591 79.4185 286.856 78.7779 286.139 78.4532C285.438 78.1286 284.473 77.9834 283.243 78.0176C280.492 78.0688 277.972 78.5728 275.683 79.5296C274.658 79.9567 273.658 80.3411 272.684 80.6828V78.7864C272.906 78.5985 273.231 78.3166 273.658 77.9407C273.726 77.8553 273.769 77.804 273.786 77.7869V71.1749H268.532V68.0996H294.212V71.1749ZM288.343 87.3973C288.343 86.6456 287.446 85.9707 285.652 85.3727C284.165 84.8773 282.927 84.6295 281.936 84.6295C278.331 84.6295 275.443 85.928 273.274 88.525C272.402 89.5672 271.967 90.4214 271.967 91.0877C272.325 92.3349 273.735 92.9586 276.195 92.9586C279.373 92.9586 282.278 92.1641 284.909 90.5752C287.198 89.1913 288.343 88.132 288.343 87.3973Z" fill="url(#paint4_linear_776_4064)"/>
<g filter="url(#filter1_d_776_4064)">
<path d="M30.8245 0H43.7283V59.0061C37.1088 60.2477 32.2488 60.7443 26.9704 60.7443C11.2173 60.7438 3.00586 53.7087 3.00586 40.2153C3.00586 27.2191 11.7205 18.7764 25.2104 18.7764C27.305 18.7764 28.8969 18.9414 30.8245 19.438V0ZM30.8245 29.7017C29.3163 29.2056 28.0596 29.0401 26.4677 29.0401C19.9319 29.0401 16.1611 33.0137 16.1611 39.9665C16.1611 46.7548 19.7644 50.4796 26.3839 50.4796C27.8077 50.4796 28.9812 50.3968 30.8245 50.149V29.7017Z" fill="#092E20"/>
<path d="M64.2556 19.6864V49.2375C64.2556 59.4195 63.5016 64.3031 61.2394 68.5249C59.1442 72.5818 56.3788 75.1472 50.6815 77.962L38.6992 72.333C44.3971 69.6843 47.162 67.3672 48.9215 63.8064C50.7653 60.1645 51.3523 55.9426 51.3523 44.8506V19.6864H64.2556ZM51.3523 0.0678711H64.2556V13.1469H51.3523V0.0678711Z" fill="#092E20"/>
<path d="M72.0537 22.5833C77.7521 19.9352 83.1981 18.7764 89.1474 18.7764C95.7669 18.7764 100.124 20.514 102.051 23.9082C103.14 25.812 103.475 28.2951 103.475 33.5936V59.5022C97.6928 60.3299 90.4036 60.9099 85.0414 60.9099C74.2326 60.9099 69.3721 57.1835 69.3721 48.9064C69.3721 39.9659 75.824 35.8274 91.6609 34.5025V31.6882C91.6609 29.3706 90.4879 28.5434 87.2198 28.5434C82.4441 28.5434 77.0813 29.8678 72.0532 32.4342L72.0537 22.5833ZM92.2474 42.864C83.7003 43.6917 80.9354 45.0166 80.9354 48.3275C80.9354 50.8107 82.5278 51.9695 86.0468 51.9695C87.9744 51.9695 89.7333 51.8044 92.2474 51.3906V42.864Z" fill="#092E20"/>
<path d="M109.758 21.6728C117.382 19.6863 123.667 18.7764 130.035 18.7764C136.654 18.7764 141.43 20.2657 144.28 23.1633C146.961 25.8942 147.799 28.874 147.799 35.249V60.2472H134.895V35.7457C134.895 30.8621 133.219 29.0401 128.611 29.0401C126.851 29.0401 125.26 29.2056 122.661 29.9506V60.2472H109.758V21.6728Z" fill="#092E20"/>
<path d="M152.816 67.2009C157.342 69.5185 161.866 70.594 166.642 70.594C175.104 70.594 178.707 67.2009 178.707 59.0882C178.707 59.0054 178.707 58.9226 178.707 58.8398C176.194 60.0809 173.679 60.578 170.329 60.578C159.017 60.578 151.81 53.2108 151.81 41.5395C151.81 27.0523 162.452 18.8584 181.304 18.8584C186.835 18.8584 191.946 19.4373 198.147 20.6788L193.728 29.874C190.293 29.2118 193.453 29.7853 190.857 29.537V30.8619L191.024 36.2415L191.107 43.1954C191.191 44.9331 191.191 46.6719 191.275 48.4101C191.275 49.9827 191.275 50.7282 191.275 51.887C191.275 62.8139 190.354 67.9458 187.589 72.1672C183.567 78.3761 176.612 81.4387 166.725 81.4387C161.697 81.4387 157.341 80.6937 152.816 78.955V67.2009H152.816ZM178.456 29.1226C178.289 29.1226 178.122 29.1226 178.038 29.1226H177.116C174.603 29.0399 171.67 29.7015 169.658 30.9431C166.559 32.6818 164.966 35.8277 164.966 40.2974C164.966 46.6718 168.151 50.3138 173.848 50.3138C175.608 50.3138 177.032 49.9822 178.708 49.4861V48.5751V45.0992C178.708 43.6093 178.624 41.9528 178.624 40.2151L178.541 34.3383L178.457 30.1164V29.1226H178.456Z" fill="#092E20"/>
<path d="M218.178 18.6104C231.081 18.6104 238.958 26.6403 238.958 39.636C238.958 52.9638 230.747 61.3243 217.675 61.3243C204.771 61.3243 196.811 53.2944 196.811 40.3815C196.811 26.9703 205.023 18.6104 218.178 18.6104ZM217.925 51.059C222.87 51.059 225.803 47.0027 225.803 39.9665C225.803 33.0137 222.953 28.8746 218.011 28.8746C212.899 28.8746 209.965 32.9315 209.965 39.9665C209.966 47.0032 212.899 51.059 217.925 51.059Z" fill="#092E20"/>
</g>
<defs>
<filter id="filter0_d_776_4064" x="183.679" y="60.394" width="122.467" height="48.1116" filterUnits="userSpaceOnUse" color-interpolation-filters="sRGB">
<feFlood flood-opacity="0" result="BackgroundImageFix"/>
<feColorMatrix in="SourceAlpha" type="matrix" values="0 0 0 0 0 0 0 0 0 0 0 0 0 0 0 0 0 0 127 0" result="hardAlpha"/>
<feOffset dy="2.1869"/>
<feGaussianBlur stdDeviation="1.09345"/>
<feComposite in2="hardAlpha" operator="out"/>
<feColorMatrix type="matrix" values="0 0 0 0 0 0 0 0 0 0 0 0 0 0 0 0 0 0 0.25 0"/>
<feBlend mode="normal" in2="BackgroundImageFix" result="effect1_dropShadow_776_4064"/>
<feBlend mode="normal" in="SourceGraphic" in2="effect1_dropShadow_776_4064" result="shape"/>
</filter>
<filter id="filter1_d_776_4064" x="0.818955" y="0" width="240.326" height="85.8123" filterUnits="userSpaceOnUse" color-interpolation-filters="sRGB">
<feFlood flood-opacity="0" result="BackgroundImageFix"/>
<feColorMatrix in="SourceAlpha" type="matrix" values="0 0 0 0 0 0 0 0 0 0 0 0 0 0 0 0 0 0 127 0" result="hardAlpha"/>
<feOffset dy="2.1869"/>
<feGaussianBlur stdDeviation="1.09345"/>
<feComposite in2="hardAlpha" operator="out"/>
<feColorMatrix type="matrix" values="0 0 0 0 0 0 0 0 0 0 0 0 0 0 0 0 0 0 0.25 0"/>
<feBlend mode="normal" in2="BackgroundImageFix" result="effect1_dropShadow_776_4064"/>
<feBlend mode="normal" in="SourceGraphic" in2="effect1_dropShadow_776_4064" result="shape"/>
</filter>
<linearGradient id="paint0_linear_776_4064" x1="244.007" y1="47.2471" x2="247.886" y2="101.093" gradientUnits="userSpaceOnUse">
<stop offset="0.43" stop-color="#D84414"/>
<stop offset="0.59" stop-color="#7197D0"/>
<stop offset="0.655" stop-color="#096528"/>
</linearGradient>
<linearGradient id="paint1_linear_776_4064" x1="244.007" y1="47.2471" x2="247.886" y2="101.093" gradientUnits="userSpaceOnUse">
<stop offset="0.43" stop-color="#D84414"/>
<stop offset="0.59" stop-color="#7197D0"/>
<stop offset="0.655" stop-color="#096528"/>
</linearGradient>
<linearGradient id="paint2_linear_776_4064" x1="244.007" y1="47.2471" x2="247.886" y2="101.093" gradientUnits="userSpaceOnUse">
<stop offset="0.43" stop-color="#D84414"/>
<stop offset="0.59" stop-color="#7197D0"/>
<stop offset="0.655" stop-color="#096528"/>
</linearGradient>
<linearGradient id="paint3_linear_776_4064" x1="244.007" y1="47.2471" x2="247.886" y2="101.093" gradientUnits="userSpaceOnUse">
<stop offset="0.43" stop-color="#D84414"/>
<stop offset="0.59" stop-color="#7197D0"/>
<stop offset="0.655" stop-color="#096528"/>
</linearGradient>
<linearGradient id="paint4_linear_776_4064" x1="244.007" y1="47.2471" x2="247.886" y2="101.093" gradientUnits="userSpaceOnUse">
<stop offset="0.43" stop-color="#D84414"/>
<stop offset="0.59" stop-color="#7197D0"/>
<stop offset="0.655" stop-color="#096528"/>
</linearGradient>
</defs>
</svg>
