<svg width="267" height="266" viewBox="0 0 267 266" fill="none" xmlns="http://www.w3.org/2000/svg">
<path d="M86.2311 229.664C96.379 207.439 115.943 230.409 92.3624 252.274C83.0524 249.853 73.4232 243.921 69.3002 236.061C67.8239 228.852 76.4556 220.886 86.2311 229.664Z" fill="#C85865"/>
<path d="M204.748 179.55C204.748 179.55 206.796 170.52 207.408 165.106C211.132 167.328 217.316 172.182 220.708 173.831C227.358 170.067 234.287 165.399 234.287 165.399C235.096 169.99 235.439 174.651 235.311 179.311C240.783 180.189 246.201 181.379 251.537 182.875L239.248 193.795L245.712 208.943C245.712 208.943 236.508 207.773 229.047 207.281C227.589 212.041 226.386 216.876 225.442 221.764C225.442 221.764 220.216 216.923 215.773 212.667C207.873 215.766 202.766 218.36 202.766 218.36L199.933 205.578L188.562 202.16L196.714 192.438L191.182 181.053L204.748 179.55Z" fill="#C85865"/>
<path d="M40.2675 132.001C39.914 131.995 39.5721 131.875 39.2919 131.659C39.0117 131.444 38.8082 131.144 38.7114 130.804C25.3715 81.1286 20.7165 62.9874 30.5053 55.7655C38.206 50.0864 55.9615 45.5245 61.2815 45.7107C66.269 45.8171 67.2132 53.5178 72.0411 53.6907C77.6538 53.7705 101.301 48.7697 113.417 44.8196C125.308 40.8296 123.033 36.6401 126.465 30.0699C129.776 24.9095 155.539 19.6294 163.705 23.7524C171.871 27.8754 173.946 48.3973 176.167 58.5851C176.752 61.3116 173.946 62.5751 173.081 59.2501C172.363 56.5901 171.871 52.2543 171.206 49.2086C169.238 40.1513 167.216 29.1522 162.255 26.5986C155.312 23.0874 131.412 28.301 129.191 31.7723C126.199 38.3026 127.555 43.3433 114.481 47.8786C101.82 51.975 77.9862 57.029 72.0544 56.896C66.2955 57.0822 64.9789 50.4854 61.2548 48.916C56.4536 48.8096 39.3631 53.1986 32.4205 58.3723C21.6475 67.6823 36.078 104.257 41.8236 129.953C41.8888 130.193 41.898 130.444 41.8505 130.688C41.803 130.932 41.7002 131.162 41.5498 131.36C41.3994 131.558 41.2056 131.719 40.9832 131.83C40.7609 131.941 40.516 132 40.2675 132.001Z" fill="#C85865"/>
<path d="M70.7772 218.119C63.143 216.789 61.2943 209.274 57.4772 196.985C57.4016 196.583 57.4805 196.168 57.6983 195.821C57.916 195.475 58.2566 195.224 58.6517 195.118C59.0468 195.012 59.4673 195.059 59.8291 195.25C60.1908 195.441 60.4672 195.761 60.6027 196.147C63.7947 206.92 64.7656 213.025 71.8279 214.767C73.6766 215.22 78.1853 215.446 91.0198 212.44C91.2259 212.392 91.4395 212.385 91.6482 212.419C91.857 212.454 92.057 212.529 92.2367 212.641C92.4164 212.753 92.5723 212.899 92.6955 213.071C92.8188 213.243 92.9069 213.437 92.955 213.644C93.003 213.85 93.01 214.063 92.9755 214.272C92.941 214.481 92.8657 214.681 92.7539 214.86C92.6422 215.04 92.4961 215.196 92.3241 215.319C92.152 215.442 91.9574 215.531 91.7513 215.579C78.571 218.744 75.2194 218.97 70.7772 218.119Z" fill="#C85865"/>
<path d="M171.046 195.351C170.669 195.323 170.314 195.166 170.041 194.905C169.769 194.644 169.595 194.296 169.551 193.922C169.507 193.547 169.595 193.168 169.8 192.852C170.005 192.535 170.313 192.299 170.673 192.185C180.595 189.459 184.479 186.865 184.545 186.865C184.926 186.669 185.369 186.633 185.777 186.764C186.185 186.895 186.524 187.182 186.72 187.563C186.915 187.944 186.952 188.387 186.821 188.795C186.69 189.203 186.402 189.542 186.021 189.738C181.327 192.323 176.283 194.213 171.046 195.351Z" fill="#C85865"/>
<path d="M199.907 168.91C197.247 169.548 194.587 155.264 193.124 151.061C193.024 150.645 193.093 150.206 193.316 149.84C193.539 149.475 193.898 149.213 194.315 149.113C194.731 149.012 195.17 149.081 195.535 149.304C195.901 149.527 196.163 149.887 196.263 150.303C197.686 155.37 202.807 168.165 199.907 168.91Z" fill="#C85865"/>
<path d="M218.127 165.159C215.547 164.587 215.295 159.28 213.885 153.069C213.836 152.849 213.834 152.622 213.878 152.402C213.922 152.182 214.011 151.973 214.14 151.789C214.269 151.605 214.435 151.449 214.627 151.333C214.819 151.216 215.033 151.14 215.256 151.111C215.478 151.081 215.705 151.098 215.921 151.161C216.137 151.223 216.337 151.33 216.51 151.474C216.682 151.618 216.823 151.796 216.923 151.998C217.023 152.199 217.08 152.419 217.09 152.643C217.423 158.961 221.958 164.454 218.127 165.159Z" fill="#C85865"/>
<path d="M115.81 235.09C114.334 235.09 111.621 232.709 118.869 230.648C130.214 226.977 164.328 215.166 175.341 213.012C175.534 212.916 175.745 212.862 175.96 212.853C176.175 212.844 176.39 212.88 176.591 212.959C176.791 213.038 176.973 213.158 177.124 213.311C177.275 213.465 177.393 213.648 177.469 213.85C178.214 216.869 164.674 218.638 150.35 223.931C142.41 226.844 119.494 235.063 115.81 235.09Z" fill="#C85865"/>
<path d="M137.902 241.115C135.163 241.568 134.577 239.48 136.306 238.588C139.219 237.086 145.377 236.221 146.308 235.995C150.87 235.011 172.283 224.411 173.507 229.172C173.54 229.385 173.529 229.602 173.475 229.81C173.42 230.019 173.323 230.213 173.189 230.382C173.055 230.551 172.888 230.69 172.698 230.791C172.507 230.892 172.298 230.952 172.083 230.968C167.907 230.755 152.24 237.458 147.066 239.12C142.797 239.985 142.238 240.397 137.902 241.115Z" fill="#C85865"/>
<path d="M47.183 97.0892C34.681 97.6611 32.0875 78.2963 45.321 75.9821C61.9592 72.8433 63.3292 97.4217 47.183 97.0892ZM47.9809 78.948C43.0599 78.7618 38.1788 83.2971 39.8413 88.4043C41.7432 95.0543 48.38 93.8307 49.1514 93.7243C56.6791 93.2588 58.8204 79.347 47.9809 78.948Z" fill="#C85865"/>
<path d="M59.951 70.4894C49.6568 65.4221 93.6399 61.1794 96.8984 58.7056C110.504 54.5959 126.584 52.9467 138.355 48.0656C142.278 47.1878 157.693 40.0856 159.807 44.2884C159.829 44.4981 159.81 44.7102 159.749 44.9123C159.689 45.1144 159.589 45.3025 159.455 45.4658C159.322 45.629 159.157 45.7642 158.971 45.8634C158.785 45.9627 158.581 46.024 158.371 46.044C142.637 48.1454 133.327 54.9417 116.263 57.4022C106.275 58.8918 92.1503 63.9458 82.4812 65.5285C74.8117 66.349 67.256 68.0127 59.951 70.4894Z" fill="#C85865"/>
<path d="M64.5791 80.3442C64.1786 80.3479 63.7909 80.2034 63.4905 79.9384C63.1902 79.6734 62.9985 79.3067 62.9523 78.9089C62.906 78.5111 63.0086 78.1102 63.2402 77.7834C63.4718 77.4566 63.816 77.2271 64.2067 77.1389C67.8045 76.2661 71.4446 75.5781 75.1127 75.0774C80.5391 74.9045 89.7427 69.0791 90.7136 72.1115C92.1101 76.4872 67.3455 79.3201 64.5791 80.3442Z" fill="#C85865"/>
<path d="M68.2504 90.8127C63.7018 88.432 68.8223 86.5168 76.1506 85.4129C77.4806 85.4129 80.7258 83.7504 81.2844 86.1178C81.843 88.4852 77.8796 88.2325 76.5895 88.6182C70.2587 89.5226 69.8464 90.56 68.2504 90.8127Z" fill="#C85865"/>
<path d="M73.051 43.7032C72.386 39.8196 76.4558 39.8861 83.7974 37.9842C91.8705 35.9094 102.511 32.8105 102.324 37.7714C102.231 41.123 97.1107 41.2959 90.0351 42.9318C82.7467 44.6076 73.7293 47.64 73.051 43.7032Z" fill="#C85865"/>
<path d="M115.811 36.6412C119.415 33.8216 115.186 26.8524 110.876 30.6961C110.088 31.3504 109.592 32.2911 109.497 33.3113C109.402 34.3314 109.717 35.3474 110.371 36.1358C111.025 36.9242 111.966 37.4203 112.986 37.5151C114.006 37.6099 115.022 37.2955 115.811 36.6412Z" fill="#C85865"/>
<path d="M60.8025 259.35C57.7568 260.121 50.9206 217.92 44.8425 204.327C30.9041 165.252 20.0513 113.129 11.1004 76.8868C1.15201 41.6285 36.4635 35.1913 68.0111 28.5679C94.1456 23.2479 145.723 7.68693 162.96 6.87563C181.407 4.38853 184.865 23.1548 188.589 39.4606C188.988 43.2511 196.409 70.2368 193.43 69.7181C189.773 69.7181 190.504 62.0307 188.882 56.7107C186.221 43.956 183.189 25.2828 177.47 15.6004C173.36 9.78832 168.599 10.1873 163.106 10.1075C153.051 10.0277 109.813 21.6519 87.8813 27.331C68.051 32.4648 44.6563 35.5903 26.7013 43.7698C8.7463 51.9493 13.1087 72.0988 14.1993 76.0356C16.1145 82.9782 25.0521 121.389 27.0604 131.031C32.8991 158.682 57.8499 232.111 62.3586 257.381C62.415 257.616 62.4173 257.861 62.3653 258.097C62.3134 258.333 62.2085 258.554 62.0587 258.743C61.9088 258.933 61.7179 259.086 61.5003 259.191C61.2827 259.296 61.0441 259.35 60.8025 259.35Z" fill="#C85865"/>
<path d="M131.771 102.609C134.245 102.928 134.245 100.056 140.11 100.308C142.438 100.415 143.103 97.3424 140.283 96.9301C137.073 96.413 133.787 97.1254 131.08 98.9251C129.297 100.322 129.696 102.41 131.771 102.609Z" fill="#001434"/>
<path d="M124.457 128.624C122.502 129.954 124.457 132.282 126.625 130.925C129.205 129.342 131.812 123.756 124.031 119.514C123.678 119.315 123.264 119.255 122.87 119.346C122.475 119.437 122.129 119.673 121.899 120.006C121.669 120.339 121.572 120.746 121.627 121.147C121.682 121.548 121.885 121.914 122.196 122.174C123.792 123.623 125.72 124.647 126.04 125.924C126.052 126.477 125.911 127.022 125.631 127.499C125.352 127.975 124.945 128.365 124.457 128.624Z" fill="#001434"/>
<path d="M157.507 93.6047C160.406 93.6845 165.048 90.3063 166.883 89.761C172.456 88.1251 169.344 91.091 174.863 92.554C179.917 93.884 182.737 88.2581 178.693 84.9863C174.65 81.7145 171.166 83.7228 168.758 84.4543C163.438 86.1035 165.247 81.5815 159.661 82.3795C154.341 83.1509 154.341 88.4044 146.281 87.4335C139.764 86.6488 137.051 91.1974 140.19 93.6047C144.619 96.9962 149.846 96.3312 151.349 93.7909C153.051 90.8915 153.796 93.5116 157.507 93.6047Z" fill="#001434"/>
<path d="M138.327 125.02C149.127 124.448 154.367 117.279 152.878 111.44C151.428 105.814 144.538 101.745 136.266 105.628C126.81 110.057 128.326 125.525 138.327 125.02ZM133.1 116.667C132.806 114.694 133.261 112.682 134.376 111.028C135.491 109.373 137.186 108.197 139.125 107.73C138.979 111.507 139.338 117.04 141.892 121.189C137.489 122.852 133.872 121.309 133.1 116.667Z" fill="#001434"/>
<path d="M132.981 138.44C130.6 134.849 117.632 137.203 120.385 147.59C122.274 154.759 127.661 155.277 130.919 154.373C133.858 153.562 134.018 151.234 132.741 146.393C132.143 144.185 134.962 141.432 132.981 138.44Z" fill="#001434"/>
<path d="M152.04 67.0973C148.475 68.5337 149.114 71.7922 146.174 74.3724C142.863 77.2585 138.194 70.3824 131.544 82.6716C129.19 87.0473 125.772 84.1213 122.367 86.9808C116.901 91.6092 125.519 99.2434 133.46 93.551C137.37 90.7314 134.683 87.6857 136.412 86.1961C138.753 84.1612 142.078 85.6774 146.666 84.3607C149.965 83.4297 147.292 78.6816 150.763 77.1521C153.423 75.995 155.83 77.458 160.073 76.1679C163.278 75.197 162.52 71.9385 165.193 72.4306C167.867 72.9227 170.593 76.9393 174.025 77.1255C176.392 77.2585 182.084 75.6226 179.597 69.1455C178.001 65.0092 172.375 64.8097 164.528 67.0973C160.884 68.1746 157.04 65.0757 152.04 67.0973Z" fill="#001434"/>
<path d="M92.4433 104.684C95.2363 104.073 100.836 101.413 99.9312 96.771C98.7209 90.6397 99.9312 89.589 105.158 84.1759C108.39 80.8509 102.498 76.4619 106.129 75.5043C119.509 71.9798 120.759 67.4445 119.283 63.3481C117.673 58.733 108.643 61.0605 106.501 67.7504C104.626 73.6689 98.5214 72.2059 94.4516 77.1269C87.8016 85.1069 100.703 86.0911 92.2571 92.8209C85.2214 98.4202 86.8972 105.895 92.4433 104.684Z" fill="#001434"/>
<path d="M97.87 111.467C100.53 108.049 107.898 109.565 107.739 106.785C107.459 101.944 97.0986 105.921 95.3297 109.445C94.4253 111.347 96.5799 113.129 97.87 111.467Z" fill="#001434"/>
<path d="M109.16 86.4503C98.8922 92.7944 101.845 101.426 108.654 99.3779C114.666 97.5691 119.946 94.2175 118.137 89.0438C116.036 83.0721 121.436 85.4395 125.811 81.0638C129.083 77.7388 128.644 71.8868 133.938 71.7538C146.426 71.4745 141.067 64.0265 146.373 61.6325C150.443 59.8104 152.584 63.2285 157.159 62.1113C161.735 60.9941 160.019 55.0357 157.479 53.3732C153.635 50.8728 147.49 51.1521 140.654 60.0232C136.518 65.3432 128.684 58.2144 126.237 68.0032C124.255 75.8901 120.917 71.6341 116.475 74.4803C108.548 79.4811 113.629 83.7903 109.16 86.4503Z" fill="#001434"/>
<path d="M236.934 124.754C234.885 116.867 233.09 111.268 230.882 105.083C238.862 100.854 255.54 96.3983 254.822 93.725C253.904 90.2404 237.678 98.2603 229.712 102.064C225.15 92.3418 223.993 88.6444 221.665 84.016C224.139 79.8398 234.819 69.5323 232.664 67.3511C230.51 65.1699 221.678 77.1665 219.125 80.5048C216.664 76.8207 210.028 68.0294 204.947 69.2796C195.238 73.509 173.399 106.865 161.057 117.625C159.845 110.96 157.444 104.567 153.968 98.7524C152.758 96.6776 150.577 98.3667 151.547 99.9494C155.178 106.031 157.502 112.803 158.37 119.833C157.719 120.338 157.04 120.844 156.375 121.322C150.138 125.698 140.415 126.27 138.567 133.106C137.702 136.338 138.819 143.627 143.966 147.736C135.149 157.445 133.14 163.231 129.164 164.84C119.588 168.697 115.864 156.86 93.9718 158.895C93.407 158.981 92.8293 158.913 92.3001 158.698C91.771 158.482 91.3099 158.128 90.966 157.671C85.9652 150.423 79.5147 130.42 86.5504 111.72C87.2154 109.991 84.7549 108.727 83.8904 111.002C76.602 131.51 82.4008 147.098 87.3883 158.27C88.4656 160.717 85.0741 161.914 82.9328 160.318C74.2346 153.814 64.1665 132.747 66.4275 118.556C68.8082 103.607 82.6136 96.5579 88.306 94.2038C89.636 93.6718 88.3725 91.7433 87.0691 92.2753C63.1291 101.865 61.0676 117.798 62.3843 126.549C57.0643 127.746 58.0086 131.018 55.8407 132.561C54.7235 133.359 50.9862 130.619 47.608 131.151C43.7776 131.75 44.8283 138.213 41.0644 138.745C36.8217 139.331 31.3022 138.479 33.6829 146.06C35.6779 152.391 42.2348 152.112 44.0436 144.73C45.0145 140.74 49.5631 143.999 51.5714 143.228C55.1225 141.898 54.8299 138.892 56.5456 140.395C61.0011 144.252 50.3345 145.622 47.5548 151.287C45.613 155.277 48.3661 158.124 46.8898 162.1C46.0253 164.441 39.0029 164.986 39.9206 169.242C41.5831 176.85 53.3004 179.59 52.7152 171.237C52.5024 168.271 51.1857 164.68 51.8374 162.925C52.9147 159.959 56.3328 158.682 58.2081 157.179C63.302 153.096 60.4425 148.095 64.0202 148.627C66.228 148.96 66.2546 152.165 64.1665 156.7C62.2779 160.823 58.9928 159.892 57.7825 164.281C56.4525 168.883 61.8656 169.508 59.3386 173.286C57.8889 175.453 53.5664 177.781 54.6836 181.651C56.5057 187.889 64.5788 188.088 66.2812 184.045C67.9836 180.002 65.164 177.861 66.1349 174.084C66.9994 170.679 70.6303 169.601 71.8273 167.327C74.6336 162.007 70.2845 154.426 73.8622 154.932C75.804 155.211 73.1307 156.661 76.1764 161.422C79.0492 165.877 70.0983 167.66 73.7159 174.828C72.6918 177.741 71.3485 181.305 71.3618 183.859C71.4416 205.99 87.6277 205.671 108.721 213.598C115.584 216.032 123.258 218.04 129.031 217.867C144.831 217.362 150.656 207.733 159.621 199.38C177.163 182.928 189.998 160.145 174.636 142.616C188.748 143.653 232.265 151.527 236.029 147.803C239.793 144.079 239.101 136.87 237.758 128.225C242.573 130.061 255.367 137.775 256.711 134.489C258.36 130.446 242.293 127.573 236.934 124.754ZM143.833 143.108C136.718 131.47 143.833 130.047 155.577 125.286C155.099 128.93 156.641 136.099 158.823 139.916C152.412 142.31 147.105 148.202 143.74 143.108H143.833ZM79.5546 197.891C71.5746 189.911 74.2346 176.611 81.2171 169.109C87.9602 161.821 100.356 158.669 113.35 164.508C105.45 171.703 97.616 189.605 104.572 208.85C94.4506 205.445 83.1988 201.575 79.5546 197.891ZM175.448 149.465C176.68 152.053 177.501 154.817 177.881 157.658C175.048 157.789 172.238 158.235 169.502 158.988C169.078 159.113 168.715 159.391 168.484 159.769C168.254 160.147 168.172 160.597 168.255 161.032C168.338 161.467 168.58 161.855 168.933 162.121C169.287 162.388 169.727 162.513 170.167 162.473C171.763 162.406 174.277 161.063 178.147 160.93C179.172 178.047 161.389 191.985 151.148 203.822C142.942 213.292 128.632 219.41 109.759 210.632C98.3209 193.847 109.759 170.439 116.834 165.851C121.423 167.62 126.61 170.998 131.571 167.872C140.389 160.212 141.2 152.338 149.991 147.138C155.75 143.733 168.039 138.187 173.532 146.393C171.138 146.593 168.781 147.112 166.523 147.936C166.174 148.048 165.871 148.273 165.664 148.576C165.457 148.879 165.357 149.243 165.38 149.609C165.403 149.976 165.547 150.324 165.79 150.599C166.034 150.874 166.362 151.06 166.723 151.128C168.638 151.474 172.428 149.439 175.448 149.465ZM198.616 142.416C184.066 140.714 172.841 138.16 162.134 139.277C159.474 135.54 157.865 125.711 159.222 122.985C172.123 113.874 189.16 88.1257 201.542 75.6237C199.773 98.9918 212.727 131.484 230.456 145.781C223.673 145.861 209.562 143.919 198.616 142.416ZM207.221 98.9785C217.01 100.668 225.841 112.451 216.691 123.57C212.349 115.88 209.158 107.595 207.221 98.9785ZM234.792 144.518C232.438 144.518 224.91 136.883 218.393 126.43C230.283 116.574 219.883 95.4939 206.423 95.6402C203.949 83.4574 203.444 73.2563 206.423 72.2189C208.658 71.4342 213.924 78.031 217.303 83.2978C215.441 85.3194 212.86 88.4316 213.964 89.5754C214.576 90.2138 217.143 88.5912 218.992 86.676C221.915 92.0124 224.474 97.54 226.653 103.221C222.024 105.336 223.102 108.368 227.81 106.24C230.003 111.973 231.868 117.825 233.396 123.77C228.342 122.546 228.528 122.746 228.488 123.57C228.448 124.395 232.119 126.536 234.446 127.414C236.175 132.494 235.963 142.962 234.792 144.518Z" fill="#001434"/>
<path d="M72.2674 140.647C72.2674 141.977 76.4303 143.573 76.8958 145.461C77.2017 146.671 77.1485 150.196 79.0238 149.717C80.0878 149.451 80.6863 145.062 79.5292 143.559C78.6685 142.35 77.5513 141.347 76.2574 140.62C76.1713 140.563 76.0977 140.488 76.0408 140.402C75.984 140.316 75.9451 140.219 75.9265 140.117C75.9079 140.015 75.9099 139.911 75.9325 139.81C75.9551 139.709 75.9977 139.614 76.0579 139.529C79.2233 135.14 76.9889 135.247 72.7329 129.355C71.4029 127.426 77.5874 124.726 78.1726 122.306C79.0105 118.901 74.0097 117.943 73.9299 115.935C73.9299 114.259 78.7046 112.504 79.7553 110.003C79.9625 109.252 79.9972 108.463 79.8567 107.696C79.7162 106.929 79.4042 106.204 78.944 105.574C77.9199 103.766 75.2865 104.976 76.284 106.825C77.0421 108.221 76.9224 108.753 76.0712 109.365C72.8792 111.666 70.7512 113.355 70.3522 115.19C69.6207 118.861 74.9673 121.042 74.9274 122.027C74.9274 123.357 69.2217 125.232 69.2217 128.477C69.2217 132.148 73.6639 134.223 73.8767 136.204C74.0496 137.681 71.8418 138.878 72.2674 140.647Z" fill="#001434"/>
<path d="M114.985 132.68C120.133 125.963 113.655 112.823 103.853 115.869C95.6472 118.422 92.2158 124.607 91.7902 129.9C90.54 145.235 109.253 140.141 114.985 132.68ZM101.18 120.457C101.247 125.139 101.898 132.135 104.891 135.633C92.6281 141.418 92.2158 125.285 101.18 120.457Z" fill="#001434"/>
</svg>
