<svg width="267" height="266" viewBox="0 0 267 266" fill="none" xmlns="http://www.w3.org/2000/svg">
<path d="M118.554 150.32C122.009 150.056 125.436 149.495 128.795 148.644C130.99 148.126 133.197 145.984 129.699 145.984C125.648 146.296 121.619 146.855 117.636 147.66C115.828 148.126 115.828 150.32 118.554 150.32Z" fill="#4ABD71"/>
<path d="M115.045 119.345C117.385 119.212 123.862 118.254 125.937 117.908C127.746 117.616 128.012 115.062 124.607 115.328C109.618 116.259 112.69 119.478 115.045 119.345Z" fill="#4ABD71"/>
<path d="M40.5108 107.548C46.7352 107.029 50.3661 106.51 49.8208 102.746C49.1691 97.8254 49.0361 93.5428 44.8865 93.9285C36.9065 94.5802 33.8741 94.9659 35.9489 103.784C36.3612 105.473 37.1326 107.8 40.5108 107.548ZM39.7261 97.1737C43.7161 96.4156 46.0702 95.6309 46.7352 98.5037C47.4135 102.986 47.9721 104.263 45.0461 104.608C42.3861 104.914 38.8217 105.765 38.3961 103.052C38.17 101.031 37.2656 97.6392 39.7261 97.1737Z" fill="#4ABD71"/>
<path d="M22.4897 77.5959C29.4855 76.5585 33.6351 76.9442 32.8637 70.6001C32.212 65.4131 31.9593 62.3009 26.6393 62.6201C21.7183 62.8728 16.1323 63.5378 17.05 69.1105C17.6884 72.5419 17.4357 78.2476 22.4897 77.5959ZM26.4797 65.1471C29.9776 64.7614 29.7249 68.1396 30.2436 70.9858C30.6293 73.4463 29.3392 73.9916 28.5545 74.231C26.6483 74.7502 24.6898 75.0535 22.7158 75.1354C20.2553 75.2684 19.9228 71.5045 19.6169 68.911C19.1913 65.1205 23.3941 65.5461 26.5063 65.1205L26.4797 65.1471Z" fill="#4ABD71"/>
<path d="M34.8038 160.442C35.7082 157.782 36.8121 142.42 36.6126 138.271C36.6055 137.319 36.2393 136.405 35.5872 135.711C34.9351 135.018 34.0452 134.596 33.0956 134.53C32.146 134.465 31.2066 134.76 30.4654 135.358C29.7242 135.955 29.2359 136.81 29.0981 137.752C28.3267 142.287 26.6376 158.62 28.0607 161.08C29.4838 163.541 33.8994 162.902 34.8038 160.442Z" fill="#4ABD71"/>
<path d="M44.1412 124.651C53.93 123.92 55.1802 123.068 52.9591 113.506C51.9217 109.356 46.3091 110.912 42.9708 111.564C39.3399 112.335 39.2069 114.929 39.4729 117.004C39.9251 120.116 40.5103 124.97 44.1412 124.651ZM48.1312 113.12C51.2301 112.655 50.8577 115.78 51.2434 118.174C51.7754 121.339 49.1021 121.579 44.5003 121.938C42.6915 122.058 42.2925 119.278 41.9068 116.618C41.6807 113.772 45.1653 113.559 48.1578 113.12H48.1312Z" fill="#4ABD71"/>
<path d="M109.87 95.0982C108.54 93.2495 104.417 94.3268 102.089 95.0982C99.7619 95.8696 100.267 97.4257 102.342 97.6917C104.417 97.9577 111.08 96.8804 109.87 95.0982Z" fill="#4ABD71"/>
<path d="M24.1773 157.967C23.1399 156.93 19.2962 154.935 16.9155 153.046C13.8565 150.639 20.5464 145.918 21.7168 143.058C23.0468 139.959 17.9529 136.714 15.4924 139.959C11.7285 144.614 3.12344 151.517 9.40104 156.292C11.2364 157.622 18.3386 163.154 21.5838 163.42C24.43 163.673 25.8531 159.923 24.1773 157.967Z" fill="#4ABD71"/>
<path d="M212.665 138.404C217.852 137.885 234.956 135.93 237.296 135.292C239.022 135.018 240.636 134.264 241.953 133.117C243.27 131.969 244.237 130.473 244.744 128.801C246.939 123.362 251.221 107.801 251.873 105.207C253.828 96.3891 246.992 101.43 221.922 103.651C219.847 103.784 218.424 101.842 217.253 99.6609L243.188 96.5487C243.188 96.5487 241.765 92.9843 239.198 93.3168C236.631 93.6493 220.02 95.6443 217.559 95.9103C215.099 96.1763 217.16 91.7607 211.468 92.3991C205.775 93.0375 198.234 92.6651 197.716 106.537C197.463 112.761 197.596 129.865 200.575 134.8C201.905 137.233 206.706 139.042 212.665 138.404Z" fill="#4ABD71"/>
<path d="M64.8757 207.431C67.6022 207.817 80.6894 205.223 82.7642 198.746C81.3411 191.617 81.0884 185.526 78.8806 177.466C63.4526 166.454 44.008 182.533 49.195 197.695C56.7095 190.38 71.2331 194.011 64.8757 207.431Z" fill="#4ABD71"/>
<path d="M161.193 102.494C156.405 102.494 153.027 103.013 152.774 104.17C152.255 105.5 153.545 105.859 154.583 105.859C155.62 105.859 160.421 105.34 162.629 105.088C164.837 104.835 165.994 102.494 161.193 102.494Z" fill="#4ABD71"/>
<path d="M137.6 132.179C139.555 132.179 146.285 131.142 148.36 130.849C150.435 130.557 150.834 128.189 148.107 128.189C144.53 128.335 140.97 128.78 137.467 129.519C134.887 130.291 135.685 132.179 137.6 132.179Z" fill="#4ABD71"/>
<path d="M137.082 99.5008C136.696 96.9073 125.803 99.1151 124.127 99.7668C122.452 100.419 122.186 102.227 124.247 102.227C126.309 102.227 137.481 101.975 137.082 99.5008Z" fill="#4ABD71"/>
<path d="M138.639 156.678C140.328 156.678 149.957 155.614 148.494 154.018C147.031 152.422 139.942 153.632 138.519 154.151C137.096 154.67 137.016 156.678 138.639 156.678Z" fill="#4ABD71"/>
<path d="M209.939 40.1299C209.939 16.682 177.447 18.4642 172.354 35.4616C194.205 33.2006 189.976 51.5413 176.237 48.1764C181.943 53.1506 209.939 52.3127 209.939 40.1299Z" fill="#4ABD71"/>
<path d="M22.3551 52.313C22.6608 51.736 22.7867 51.0807 22.7167 50.4316C22.6467 49.7824 22.384 49.169 21.9623 48.6704C21.5407 48.1718 20.9795 47.8109 20.351 47.634C19.7225 47.4571 19.0554 47.4724 18.4356 47.678C18.0244 47.8141 17.6442 48.0306 17.3173 48.3149C16.9903 48.5991 16.7231 48.9455 16.5311 49.3338C15.0415 52.5524 20.162 56.3429 22.3565 52.313H22.3551Z" fill="#4ABD71"/>
<path d="M143.44 181.442C147.841 180.989 152.215 180.296 156.54 179.367C158.735 178.849 159.2 176.508 156.141 176.707C153.082 176.907 146.02 177.825 143.573 178.383C141.126 178.942 140.594 181.562 143.44 181.442Z" fill="#4ABD71"/>
<path d="M121.785 167.957C124.765 168.209 133.104 166.76 131.907 165.097C130.71 163.435 123.474 164.844 122.184 165.363C120.894 165.882 120.11 167.824 121.785 167.957Z" fill="#4ABD71"/>
<path d="M100.399 75.3878C104.283 75.6538 105.972 69.4294 101.051 68.7378C96.1296 68.0462 95.5976 75.0021 100.399 75.3878Z" fill="#4ABD71"/>
<path d="M48.4101 73.9653C51.3311 73.7122 54.2323 73.2679 57.095 72.6353C59.0501 72.2496 59.3028 69.7758 56.5763 69.9753C53.8498 70.1748 50.7509 70.627 48.1574 71.3053C45.8166 72.0235 46.4683 73.9653 48.4101 73.9653Z" fill="#4ABD71"/>
<path d="M31.5598 84.2053C32.012 86.8653 32.7302 91.4671 36.2281 91.0814C47.3735 90.044 47.1208 89.1396 44.78 80.3217C43.6229 76.4248 38.0502 77.9809 34.805 78.7656C31.1741 79.67 31.214 82.1305 31.5598 84.2053ZM39.859 80.2153C42.7185 79.67 42.5855 82.4098 43.1042 84.724C43.4899 86.6658 43.1042 86.9318 42.3195 87.1845C40.5053 87.7584 38.6385 88.1505 36.7468 88.3549C35.3237 88.4879 34.938 88.1022 34.0203 83.9526C33.3819 80.9734 34.6055 81.0798 39.9255 80.1887L39.859 80.2153Z" fill="#4ABD71"/>
<path d="M84.7186 75.2684C86.2747 78.7663 92.8848 76.8245 91.0627 72.2892C89.2406 67.7539 82.6438 70.9858 84.7186 75.2684Z" fill="#4ABD71"/>
<path d="M34.9367 47.8306C33.2476 43.4283 27.2227 46.5006 29.098 50.4906C30.6142 53.7225 36.6125 52.06 34.9367 47.8306Z" fill="#4ABD71"/>
<path d="M44.1421 44.4125C43.7164 44.3339 43.2791 44.3442 42.8576 44.4428C42.4361 44.5414 42.0396 44.7261 41.6929 44.9853C41.3462 45.2444 41.0569 45.5725 40.8431 45.9489C40.6294 46.3253 40.4957 46.7418 40.4507 47.1723C40.4056 47.6028 40.45 48.038 40.5812 48.4505C40.7124 48.863 40.9275 49.2439 41.213 49.5692C41.4984 49.8946 41.8481 50.1574 42.24 50.3411C42.632 50.5249 43.0577 50.6256 43.4904 50.6369C46.9883 50.8896 48.5444 45.0642 44.1421 44.4125Z" fill="#4ABD71"/>
<path d="M87.9498 121.153C91.4477 120.634 98.2174 121.153 97.1534 115.713C96.4352 111.962 96.781 108.664 92.0994 109.063C88.6015 109.382 82.2441 109.701 83.5475 114.25C83.9332 117.136 83.8135 121.804 87.9498 121.153Z" fill="#4ABD71"/>
<path d="M97.2871 173.396C100.785 172.877 107.661 173.396 106.597 168.076C106.078 164.312 106.464 161.067 101.663 161.426C98.1649 161.678 91.8208 162.064 92.9779 166.48C93.4035 169.379 93.0045 174.047 97.2871 173.396Z" fill="#4ABD71"/>
<path d="M57.4936 106.896C59.1694 106.763 61.6432 105.991 63.1993 105.725C64.7554 105.459 64.2367 103.065 62.5476 103.265C60.6856 103.399 58.8502 103.794 57.0946 104.435C55.0198 105.207 55.8045 107.029 57.4936 106.896Z" fill="#4ABD71"/>
<path d="M85.1456 103.783C88.9095 103.264 95.3866 103.65 94.0832 97.9444C93.3118 94.1938 93.8305 90.4299 89.1622 90.6959C85.3983 90.8156 79.3069 91.2146 80.6103 96.0159C80.8231 99.2478 80.5704 104.435 85.1456 103.783Z" fill="#4ABD71"/>
<path d="M52.439 90.9488C61.2702 90.0178 57.094 86.4135 51.9203 88.4883C49.3268 89.5257 49.9652 91.2148 52.439 90.9488Z" fill="#4ABD71"/>
<path d="M42.7187 153.698C42.5249 154.288 42.5007 154.92 42.6488 155.523C42.797 156.126 43.1115 156.675 43.5566 157.107C44.0017 157.54 44.5594 157.839 45.1661 157.97C45.7728 158.101 46.4042 158.058 46.9881 157.848C50.1003 156.518 54.9016 149.283 56.1917 147.474C60.4743 141.249 52.3081 137.619 47.254 133.988C42.7187 130.742 39.7263 135.929 41.8011 138.523C43.4902 140.598 51.0047 143.324 48.2915 146.503C46.4694 148.511 43.2374 152.262 42.7187 153.698Z" fill="#4ABD71"/>
<path d="M94.9587 155.893C98.5896 155.374 105.599 155.773 104.029 150.2C103.245 146.436 103.511 142.805 98.7093 143.457C95.0784 143.843 89.12 144.362 90.4101 148.897C91.0618 151.743 91.0618 156.544 94.9587 155.893Z" fill="#4ABD71"/>
<path d="M152.256 202.177C150.048 201.659 149.662 202.044 146.031 203.999C145.26 204.385 142.919 205.555 145.38 206.46C157.828 211.128 157.123 212.325 164.957 207.63C165.995 206.979 167.032 205.555 152.256 202.177Z" fill="#4ABD71"/>
<path d="M196.465 226.157C196.718 225.519 196.851 213.589 196.585 209.173C196.469 208.447 196.161 207.764 195.694 207.196C195.226 206.628 194.615 206.195 193.925 205.941C194.005 204.385 193.959 202.824 193.792 201.273C193.14 197.642 186.397 195.434 182.766 195.953C180.439 196.219 177.978 197.509 173.562 199.85C172.423 199.566 171.299 199.22 170.198 198.812C170.45 195.833 170.716 194.53 170.198 192.974C169.546 191.165 163.454 189.476 159.558 189.476C156.775 189.742 154.067 190.532 151.578 191.803C151.153 192.065 150.67 192.215 150.172 192.238C149.674 192.262 149.178 192.158 148.731 191.936C145.486 190.899 141.855 188.824 138.876 189.609C129.154 192.269 130.058 193.599 130.324 197.509C128.496 196.653 126.504 196.199 124.485 196.179C122.929 196.179 114.63 197.735 113.726 201.619C113.317 204.017 113.143 206.449 113.207 208.881C109.323 209.918 109.842 225.865 112.037 228.831C118.008 236.997 127.465 230.905 135.112 227.926C134.859 232.328 135.112 237.01 135.897 238.42C137.4 241.08 145.353 243.221 148.731 243.221C152.362 243.221 155.98 240.561 159.491 238.167C163.375 239.497 169.852 243.221 173.616 242.051C181.01 239.856 183.085 238.167 182.819 231.411C187.554 233.685 195.162 230.44 196.465 226.157ZM192.568 211.248C188.485 215.464 182.593 212.033 176.754 210.477C175.065 210.091 174.813 210.477 171.182 212.551C170.397 213.07 168.974 213.881 170.663 214.493C172.086 214.879 174.547 215.916 177.14 216.834C181.13 218.164 176.621 222.526 171.82 223.045C167.019 223.564 162.351 218.51 158.52 219.933C153.2 222.008 148.399 229.668 139.714 222.407C138.158 221.077 146.59 216.701 147.694 216.049C149.383 215.012 148.598 213.841 135.245 210.091C132.399 209.306 132.133 210.477 124.352 214.081C121.254 215.504 118.141 214.081 115.282 212.658C113.473 211.74 115.415 210.317 122.544 207.338C126.693 206.008 118.78 204.359 117.224 203.348C115.029 201.792 121.772 198.932 124.233 199.198C130.976 199.717 132.213 204.119 139.78 200.236C143.677 198.161 133.928 197.15 132.918 195.7C132.386 194.929 136.668 192.721 140.179 192.455C142.839 192.202 148.346 195.434 150.287 195.434C152.229 195.434 157.283 191.87 160.395 191.936C163.255 192.003 167.272 193.359 166.886 194.277C166.62 194.916 163.375 196.472 161.433 197.376C159.491 198.28 161.047 198.812 161.819 199.065C171.235 202.324 173.549 203.188 175.119 202.443C180.691 199.451 180.944 199.331 183.099 198.932C185.825 198.546 191.504 200.355 190.879 201.526C189.655 203.84 182.168 205.516 185.426 206.46C189.882 207.723 195.414 208.322 192.568 211.248Z" fill="#4ABD71"/>
<path d="M70.9665 74.0978C69.4104 77.4627 74.9565 81.4926 77.3239 77.21C79.6913 72.9274 73.0413 69.6955 70.9665 74.0978Z" fill="#4ABD71"/>
<path d="M108.832 181.695C108.592 176.508 101.956 179.035 98.7106 179.368C94.561 179.753 96.0506 184.688 96.3831 187.348C96.6358 191.883 102.474 190.593 105.972 189.941C111.159 188.957 109.005 185.725 108.832 181.695Z" fill="#4ABD71"/>
<path d="M97.0342 137.885C102.208 136.848 100.013 133.603 99.6942 129.453C99.4415 124.266 92.8314 126.793 89.5862 127.125C85.4366 127.511 86.9927 132.565 87.3784 135.105C87.6976 139.827 93.523 138.524 97.0342 137.885Z" fill="#4ABD71"/>
<path d="M114.525 160.561C117.518 160.561 128.41 158.42 131.124 157.901C133.837 157.383 133.85 154.909 129.567 155.428C125.285 155.946 114.525 157.502 112.716 158.42C111.426 159.005 111.745 160.561 114.525 160.561Z" fill="#001434"/>
<path d="M251.555 93.6766C250.273 93.9343 248.976 94.1076 247.671 94.1953C246.754 89.7797 244.812 87.1862 239.106 87.8379C218.943 89.9393 219.834 91.1496 218.89 89.1679C217.4 86.0158 215.259 85.271 209.939 85.9227C193.979 88.3699 190.189 87.8512 191.798 102.255C194.458 124.719 193.447 136.356 204.499 136.356C213.809 136.476 235.089 133.497 242.484 132.074C246.754 131.289 248.961 130.651 251.422 125.078C254.508 117.484 257.063 109.684 259.069 101.736C260.373 95.2327 257.394 93.2909 251.555 93.6766ZM194.205 102.229C193.048 89.5137 196.307 90.6043 210.405 88.4896C215.073 87.8379 215.725 88.6359 216.496 90.5644C217.932 93.9027 217.533 93.1446 239.186 90.4314C242.817 90.0457 244.12 90.8171 244.892 94.581C235.688 95.7514 218.451 97.9459 213.903 98.7306C207.691 99.768 204.18 102.362 202.89 106.631C201.174 113.081 200.616 127.911 198.488 130.744C195.695 123.642 195.535 113.002 194.205 102.229ZM256.715 101.191C254.651 108.976 252.143 116.636 249.201 124.134C247.126 128.802 245.823 129.188 242.072 129.72C237.523 130.358 203.821 136.064 200.323 132.819C201.361 132.047 202.398 129.839 203.435 123.362C206.095 105.873 204.499 103.093 214.847 101.191C220.938 100.021 242.218 97.5868 250.757 96.5228C255.385 95.9642 257.739 96.4164 256.715 101.191Z" fill="#001434"/>
<path d="M149.662 161.08C146.803 161.014 138.251 162.117 136.362 163.155C134.474 164.192 134.287 165.615 136.495 165.815C138.703 166.014 149.449 163.873 150.886 163.74C152.322 163.607 152.641 161.147 149.662 161.08Z" fill="#001434"/>
<path d="M198.273 195.182C203.194 194.397 228.61 190.381 236.644 188.824C250.383 186.018 249.465 183.704 241.831 139.442C241.059 135.678 238.984 138.657 239.889 143.844C245.302 179.9 248.268 183.398 237.029 185.845C231.071 187.268 198.925 192.495 195.294 193.107C191.663 193.719 193.352 195.953 198.273 195.182Z" fill="#001434"/>
<path d="M116.479 107.548C114.922 108.067 114.523 110.142 116.598 110.142C118.673 110.142 125.908 109.49 124.897 107.801C123.887 106.112 118.035 107.03 116.479 107.548Z" fill="#001434"/>
<path d="M116.212 135.291C119.953 134.918 123.673 134.354 127.357 133.602C129.698 133.217 131.773 130.357 127.49 130.743C123.208 131.128 117.901 131.66 115.441 133.084C113.885 133.735 114.922 135.291 116.212 135.291Z" fill="#001434"/>
<path d="M132.027 173.397C130.471 174.049 131.389 175.857 133.583 175.738C137.766 175.261 141.921 174.569 146.032 173.663C148.692 172.878 148.24 171.003 145.766 171.003C141.127 171.415 136.531 172.216 132.027 173.397Z" fill="#001434"/>
<path d="M213.568 171.84C218.103 171.454 216.946 164.844 212.797 165.615C212.202 165.716 211.648 165.986 211.203 166.392C210.757 166.799 210.438 167.325 210.283 167.909C210.129 168.492 210.146 169.107 210.332 169.681C210.518 170.255 210.865 170.764 211.332 171.145C211.96 171.657 212.761 171.906 213.568 171.84Z" fill="#001434"/>
<path d="M206.441 169.765C206.121 169.054 205.55 168.486 204.837 168.17C204.124 167.854 203.32 167.813 202.578 168.055C201.838 168.298 201.213 168.808 200.826 169.485C200.439 170.162 200.316 170.958 200.482 171.72C201.387 175.99 208.13 173.915 206.441 169.765Z" fill="#001434"/>
<path d="M229.262 158.62C228.743 156.412 224.594 157.196 222.612 154.989C220.404 152.528 221.827 146.57 218.329 144.229C215.35 142.154 209.644 144.495 210.416 146.304C211.586 148.645 213.914 146.171 215.869 147.634C218.329 149.443 217.545 155.401 219.367 157.609C221.056 159.551 224.168 159.298 224.168 159.95C224.168 160.854 221.694 161.28 220.923 163.94C220.151 166.6 222.732 171.84 221.96 174.048C221.056 176.508 216.906 174.566 216.773 177.027C216.64 178.849 222.732 180.272 225.591 175.989C227.666 172.877 223.902 167.437 224.673 165.097C225.631 162.383 229.9 161.479 229.262 158.62Z" fill="#001434"/>
<path d="M152.973 113.64C151.537 111.299 139.899 113.175 137.545 114.026C135.191 114.877 135.47 116.885 138.449 116.686C141.429 116.486 153.944 115.449 152.973 113.64Z" fill="#001434"/>
<path d="M125.549 84.7256C122.184 84.7256 104.549 86.8004 102.088 87.4521C99.6275 88.1038 99.4945 90.1121 101.569 90.1121C103.644 90.1121 124.179 87.6383 126.72 87.2526C129.26 86.8669 128.01 84.7256 125.549 84.7256Z" fill="#001434"/>
<path d="M141.364 123.88C144.024 123.361 142.92 121.154 139.289 121.42C135.203 121.716 131.136 122.236 127.106 122.976C124.899 123.494 125.776 125.303 127.625 125.303C129.474 125.303 138.638 124.266 141.364 123.88Z" fill="#001434"/>
<path d="M107.528 104.436C109.736 104.303 115.176 103.399 116.213 103.266C117.251 103.133 118.022 101.749 116.346 101.191C114.91 100.712 109.35 101.324 107.276 101.842C105.201 102.361 105.321 104.689 107.528 104.436Z" fill="#001434"/>
<path d="M133.982 91.083C128.888 91.1734 123.812 91.6948 118.806 92.6391C116.998 93.2908 116.732 95.2991 118.939 95.2991C121.147 95.2991 132.426 93.9691 134.234 93.743C136.043 93.5169 136.695 91.216 133.982 91.083Z" fill="#001434"/>
<path d="M126.067 141.901C128.727 141.635 140.072 139.827 142.532 139.441C144.993 139.055 144.607 136.196 140.591 136.781C137.931 137.167 130.602 137.685 125.801 138.989C123.208 139.6 124.245 142.021 126.067 141.901Z" fill="#001434"/>
<path d="M133.462 105.607C131.507 106.125 132.292 108.067 134.885 108.067C137.479 108.067 148.066 107.442 146.549 105.341C145.033 103.239 135.404 105.088 133.462 105.607Z" fill="#001434"/>
<path d="M107.66 127.631C109.469 127.884 116.478 126.594 117.901 126.195C118.077 126.178 118.247 126.127 118.403 126.044C118.558 125.962 118.696 125.849 118.807 125.713C118.919 125.577 119.003 125.42 119.054 125.252C119.105 125.083 119.123 124.906 119.105 124.731C119.088 124.556 119.036 124.386 118.952 124.231C118.869 124.076 118.755 123.939 118.619 123.827C118.482 123.716 118.325 123.633 118.156 123.583C117.988 123.533 117.811 123.516 117.635 123.535C115.694 123.535 109.35 124.053 107.527 124.971C105.705 125.889 105.838 127.378 107.66 127.631Z" fill="#001434"/>
<path d="M62.2805 63.3391C58.9156 63.5918 45.6955 64.8952 39.8568 66.5843C38.4336 66.97 38.3006 69.1778 41.1868 68.9118C44.0729 68.6458 62.1875 66.0656 64.9007 65.6666C67.6138 65.2676 67.0818 62.9534 62.2805 63.3391Z" fill="#001434"/>
<path d="M53.729 209.692C55.0077 210.452 56.445 210.907 57.9285 211.02C59.4121 211.133 60.9017 210.902 62.2809 210.343C63.6692 211.632 65.4608 212.402 67.3516 212.52C69.2424 212.639 71.1161 212.1 72.6549 210.995C73.8253 209.958 72.6549 208.335 71.2318 209.053C70.1992 209.623 69.0393 209.921 67.8602 209.921C66.6812 209.921 65.5213 209.623 64.4887 209.053C65.3527 208.239 66.036 207.252 66.4943 206.157C66.9525 205.062 67.1755 203.883 67.1487 202.696C69.0905 200.488 68.1861 195.567 64.4222 195.314C62.3474 192.654 55.1122 192.069 51.5877 195.953C46.7997 196.99 46.9194 202.31 49.9119 204.385C50.1161 205.769 50.6957 207.071 51.5877 208.149C50.6253 208.668 49.5283 208.884 48.4409 208.768C47.3536 208.651 46.327 208.208 45.4963 207.497C44.7382 206.699 43.8072 207.231 43.8072 207.883C43.7407 210.729 49.8321 212.751 53.729 209.692ZM65.2734 198.932C65.4936 199.378 65.533 199.891 65.3834 200.365C65.2339 200.84 64.9069 201.238 64.4707 201.476C64.0346 201.715 63.5231 201.776 63.0432 201.646C62.5632 201.517 62.1519 201.206 61.8952 200.781C61.7113 200.447 61.6308 200.066 61.664 199.686C61.6972 199.306 61.8425 198.944 62.0816 198.647C62.3206 198.35 62.6426 198.131 63.0065 198.017C63.3705 197.904 63.76 197.901 64.1256 198.009C64.615 198.153 65.03 198.484 65.2734 198.932ZM60.8578 196.086C60.0735 196.715 59.5213 197.588 59.2884 198.566C59.0554 199.544 59.1551 200.572 59.5715 201.487C59.9879 202.402 60.6974 203.153 61.5879 203.62C62.4783 204.087 63.499 204.244 64.4887 204.066C64.4452 204.625 64.2841 205.169 64.016 205.662C63.7478 206.154 63.3786 206.585 62.9326 206.925C61.8154 204.119 59.4214 206.446 60.6051 208.255C59.0279 208.641 57.381 208.641 55.8038 208.255C57.2269 207.351 57.2269 206.18 56.1895 205.795C55.5378 205.542 54.5137 206.18 53.5295 206.832C53.1027 206.323 52.7532 205.754 52.4921 205.143C57.0407 205.143 58.2244 198.759 54.6866 196.591C55.6197 196.072 56.6531 195.758 57.7175 195.671C58.7819 195.584 59.8526 195.725 60.8578 196.086ZM52.0399 198.413C54.8994 198.294 55.0191 202.829 52.0399 202.563C49.7124 202.31 49.5794 198.546 52.0399 198.413Z" fill="#001434"/>
<path d="M40.243 187.787C42.5838 187.654 43.1025 185.46 44.0069 183.119C44.9113 180.778 45.8157 177.413 47.2521 176.894C48.0235 176.642 49.4466 177.679 50.0983 179.621C50.75 181.563 53.2105 180.658 51.9204 177.546C50.484 174.048 48.0368 173.556 46.6004 173.915C43.7675 174.633 42.0651 181.895 40.243 185.194C36.6919 184.608 36.3328 188.04 40.243 187.787Z" fill="#001434"/>
<path d="M39.9907 202.696C43.4886 202.696 43.7413 200.887 43.7413 197.376C43.7413 195.567 43.3556 191.285 45.6964 191.803C46.8535 192.202 47.3722 192.069 47.5052 191.285C48.0239 188.625 43.5152 188.625 42.1852 191.165C41.1478 193.24 42.1852 196.99 41.2675 199.145C41.0148 199.797 39.5917 200.475 39.1927 200.568C37.9159 201.14 38.3016 202.696 39.9907 202.696Z" fill="#001434"/>
<path d="M49.7127 81.2267C47.8906 81.7454 48.8083 83.6872 50.2314 83.8867C52.8301 83.6999 55.3974 83.2043 57.8789 82.4104C59.6744 81.9449 61.2704 77.9283 49.7127 81.2267Z" fill="#001434"/>
<path d="M59.8747 115.329C62.3352 114.93 64.543 113.999 64.0243 113.121C63.5056 112.243 62.6012 112.084 59.356 112.855C56.1108 113.626 57.361 115.661 59.8747 115.329Z" fill="#001434"/>
<path d="M60.7262 187.481C62.4153 182.547 65.3945 176.455 71.4859 175.165C74.7311 174.38 72.5233 172.824 68.8259 173.742C62.3355 175.418 59.3696 181.27 58.7046 186.563C58.3322 189.223 60.0878 189.476 60.7262 187.481Z" fill="#001434"/>
<path d="M55.2859 99.5016C57.1367 99.3955 58.9656 99.0467 60.7256 98.4642C62.5477 97.8258 62.8004 95.485 60.7256 95.8042C50.5644 96.3894 53.7963 99.5016 55.2859 99.5016Z" fill="#001434"/>
<path d="M17.9526 127.51C18.99 132.95 21.7165 134.16 21.1845 130.742C20.6525 127.324 11.8745 79.6704 9.4007 56.4619C8.882 51.8202 8.3633 45.1702 20.6791 43.6274C38.1553 41.3531 120.908 33.5327 136.175 32.748C146.988 32.2426 151.576 34.5967 153.159 54.3871C153.425 57.6323 155.819 56.3422 155.367 51.5409C153.505 36.6981 151.177 29.1171 136.042 30.1545C113.432 31.5776 51.0018 37.2833 20.332 41.1669C5.30297 43.1087 6.46007 52.0596 7.03197 57.3796C8.00287 69.0038 16.4218 119.504 17.9513 127.51H17.9526Z" fill="#001434"/>
<path d="M185.186 31.871C190.24 27.7347 196.185 27.1362 199.058 27.881C201.931 28.6258 202.941 26.0722 199.577 25.2875C194.124 24.1304 187.38 25.4205 183.883 30.0888C181.941 32.6158 184.268 32.6158 185.186 31.871Z" fill="#001434"/>
<path d="M164.187 38.9731C163.269 42.5907 164.825 45.4502 168.722 46.6206C166.514 48.0437 165.091 50.3712 167.937 54.2681C165.477 55.6912 166.381 57.0877 167.937 56.8616C175 55.8109 166.607 51.4485 169.627 49.0811C170.303 48.5451 171.045 48.0981 171.834 47.7511C172.806 48.844 174.045 49.6644 175.431 50.131C176.817 50.5975 178.3 50.6941 179.735 50.4111C185.055 55.3321 189.723 50.7303 188.419 48.988C188.034 48.4693 187.089 48.722 186.611 49.2407C186.13 49.7466 185.477 50.0543 184.78 50.1035C184.084 50.1527 183.394 49.9399 182.847 49.5067C183.832 49.2826 184.748 48.8232 185.517 48.1677C186.286 47.5122 186.885 46.6802 187.262 45.7428C187.813 45.2548 188.246 44.6489 188.531 43.9703C188.815 43.2917 188.943 42.5577 188.904 41.823C188.866 41.0882 188.663 40.3715 188.309 39.7262C187.956 39.0808 187.462 38.5234 186.863 38.0953C185.959 35.1161 180.386 32.1369 174.814 34.1053C173.861 33.841 172.85 33.8781 171.92 34.2112C170.989 34.5444 170.184 35.1574 169.616 35.9662C169.048 36.7749 168.744 37.7397 168.746 38.7282C168.747 39.7166 169.055 40.6802 169.627 41.4868C169.627 41.4868 169.76 43.3089 169.879 44.0803C169.363 44.0431 168.86 43.9037 168.399 43.6702C167.937 43.4367 167.527 43.1138 167.192 42.7202C166.856 42.3266 166.602 41.8702 166.445 41.3776C166.288 40.885 166.23 40.3661 166.275 39.8509C166.474 37.7894 164.573 37.8027 164.187 38.9731ZM186.345 43.1094C186.251 43.387 186.103 43.6433 185.91 43.8636C185.716 44.0838 185.481 44.2636 185.218 44.3926C184.955 44.5215 184.669 44.5972 184.376 44.6151C184.084 44.633 183.791 44.5928 183.514 44.4969C183.237 44.401 182.982 44.2513 182.763 44.0563C182.544 43.8613 182.366 43.6249 182.239 43.3608C182.112 43.0967 182.038 42.8101 182.023 42.5174C182.007 42.2248 182.049 41.9319 182.147 41.6557C182.343 41.1032 182.75 40.6506 183.278 40.3965C183.806 40.1424 184.413 40.1075 184.967 40.2993C185.521 40.4912 185.977 40.8942 186.235 41.4206C186.493 41.947 186.532 42.5541 186.345 43.1094ZM177.54 36.3796C179.462 36.2286 181.378 36.73 182.98 37.8027C178.045 39.1327 178.551 45.5699 182.847 47.0063C182.278 47.4372 181.61 47.7205 180.905 47.8309C180.608 47.3971 180.388 46.9158 180.253 46.4078C179.868 45.3704 177.66 45.3704 177.926 47.8309C177.362 47.9289 176.782 47.8855 176.239 47.7044C175.696 47.5233 175.206 47.2104 174.814 46.7935C176.755 46.0221 176.37 44.1335 172.872 44.466C172.724 44.1851 172.634 43.8777 172.606 43.5616C172.872 43.5616 173.257 43.6813 173.51 43.6813C177.54 43.8409 179.216 39.2258 177.54 36.3796ZM171.316 38.5209C171.755 35.0097 177.407 37.0978 175.199 40.077C174.917 40.4674 174.513 40.7525 174.051 40.8872C173.588 41.0219 173.094 40.9984 172.647 40.8205C172.2 40.6407 171.827 40.3167 171.585 39.9C171.344 39.4833 171.249 38.9978 171.316 38.5209Z" fill="#001434"/>
<path d="M161.073 129.319C163.534 129.319 171.713 128.162 173.389 127.896C175.717 127.511 175.717 125.236 173.389 125.236C171.062 125.236 161.845 126.021 159.637 126.925C157.429 127.83 158.48 129.319 161.073 129.319Z" fill="#001434"/>
<path d="M230.553 83.9536C231.072 87.0658 233.412 86.0284 232.628 80.5754C229.183 56.5024 230.207 52.8582 213.329 53.4833C214.752 53.3769 215.018 51.6612 211.494 51.2755C212.013 46.8732 214.979 40.2232 211.108 39.2257C210.224 39.1419 209.331 39.2364 208.483 39.5037C207.636 39.771 206.851 40.2056 206.174 40.7818C205.004 42.1118 206.174 43.7876 207.504 43.1093C208.834 42.431 209.845 41.7793 210.23 42.0719C211.654 43.2423 207.118 52.1932 210.23 53.7493L204.91 54.135C204.644 52.0203 201.918 53.0045 202.45 51.4085C203.221 48.2963 205.296 42.7236 203.78 39.8774C202.876 38.1883 200.681 37.4169 196.651 38.973C194.324 39.8774 194.975 42.5906 196.917 41.9522C200.029 40.9148 201.053 41.0478 201.452 41.6862C201.851 42.3246 200.681 48.3362 199.763 51.2755C199.544 51.8876 199.541 52.5563 199.754 53.1706C199.967 53.785 200.383 54.3082 200.934 54.6537C198.726 54.7867 196.398 55.0394 194.058 55.3054C195.88 52.7119 198.859 48.5623 196.917 46.6205C195.88 45.5831 194.257 45.4501 191.983 45.7028C190.041 45.9688 189.655 48.6953 191.597 48.5623C192.927 48.5623 194.191 48.2963 194.576 48.6953C195.228 49.4667 190.945 54.135 190.826 55.4251C102.7 63.7908 80.0235 65.4134 73.041 66.8365C64.6221 68.6586 61.6429 75.0027 63.5847 87.7042C65.1408 98.0782 71.8839 139.574 75.2488 159.923C65.194 162.091 46.574 166.387 38.9531 165.882C37.0113 165.749 37.264 167.823 38.9531 168.209C45.7627 169.353 60.0602 165.549 75.6345 162.384C76.2862 166.374 81.8057 196.245 83.415 203.733C85.7957 214.373 89.3069 214.666 108.313 210.383C110.773 209.732 109.736 207.271 104.934 208.189C89.0941 211.181 87.4582 211.341 85.7558 203.122C80.4358 178.929 69.3569 109.596 65.9122 87.4116C63.864 73.3269 68.4791 70.2147 73.44 69.297C90.73 66.1183 136.987 63.6312 190.241 58.0186C192.488 61.0244 195.055 60.2929 194.231 57.6329C202.397 56.8615 209.14 56.3029 213.156 56.2098C228.465 55.9305 226.749 56.5955 230.553 83.9536Z" fill="#001434"/>
<path d="M219.141 66.1849C215.483 66.4509 83.2682 79.5647 74.0779 81.0809C69.4096 81.8656 67.8535 84.4591 72.2691 83.9404C76.6847 83.4217 218.37 68.7651 222.253 68.3794C226.137 67.9937 223.809 65.7992 219.141 66.1849Z" fill="#001434"/>
<path d="M190.373 171.201C190.048 171.956 190.036 172.809 190.339 173.574C190.642 174.338 191.235 174.951 191.989 175.278C192.744 175.603 193.598 175.616 194.363 175.315C195.127 175.011 195.739 174.417 196.066 173.662C197.755 169.379 191.663 167.69 190.373 171.201Z" fill="#001434"/>
<path d="M187.261 149.935C187.38 147.728 179.347 147.728 178.177 151.491C177.006 155.255 179.347 159.272 178.443 162.517C177.658 165.496 173.256 166.015 173.509 168.343C173.761 170.67 178.829 170.284 180.385 172.239C181.941 174.195 180.385 180.007 183.497 182.48C187.261 185.46 194.257 182.733 192.049 180.273C190.878 178.717 187.779 181.696 186.223 179.621C184.149 176.894 184.893 172.878 183.231 170.311C181.901 168.236 179.095 168.502 178.696 167.85C178.297 167.199 181.555 165.776 182.326 163.448C183.231 160.788 180.77 155.468 181.675 153.327C182.579 151.186 187.128 152.529 187.261 149.935Z" fill="#001434"/>
<path d="M79.9165 213.589C83.6804 213.589 83.042 211.342 81.2465 210.73C79.185 210.052 78.919 210.211 79.1717 205.157C79.6904 197.776 79.9165 195.195 78.653 192.589C77.1767 189.503 72.6946 191.684 70.1011 195.182C68.7711 196.858 70.3671 199.584 71.7902 197.909C74.6364 194.663 75.7802 194.663 76.1925 194.796C77.1102 195.315 76.3255 202.178 76.0728 205.556C75.8334 210.211 75.1152 213.589 79.9165 213.589Z" fill="#001434"/>
<path d="M170.663 101.577C168.588 102.228 168.588 104.237 170.796 104.237C189.775 104.17 180.904 98.3713 170.663 101.577Z" fill="#001434"/>
<path d="M27.5424 106.245C29.2315 105.992 30.4019 103.585 30.7876 101.058C31.0403 99.5018 30.6546 98.7303 29.4576 98.8633C27.9015 98.983 27.7818 103.266 26.9971 103.266C26.2124 103.266 24.9223 101.457 24.2706 100.606C24.1304 100.409 23.9317 100.262 23.703 100.185C23.4742 100.109 23.227 100.106 22.9968 100.179C22.7666 100.251 22.5651 100.394 22.4212 100.588C22.2774 100.782 22.1985 101.016 22.1958 101.257C22.0628 103.266 25.8533 106.511 27.5424 106.245Z" fill="#001434"/>
<path d="M22.101 91.8533C21.835 92.8907 23.0054 94.0611 24.0428 93.2897C25.4659 92.372 27.9264 88.7411 27.9264 87.451C27.8067 85.7619 23.9364 84.2058 21.835 83.9531C21.5537 83.9674 21.2842 84.0705 21.0654 84.2477C20.8465 84.4249 20.6895 84.667 20.6171 84.9392C20.5446 85.2113 20.5604 85.4994 20.6621 85.762C20.7639 86.0246 20.9464 86.2481 21.1833 86.4003C22.5133 86.786 24.8142 87.4377 24.8142 88.0894C24.8142 88.7411 22.3537 90.1775 22.101 91.8533Z" fill="#001434"/>
<path d="M139.555 42.5908C132.905 43.2425 24.563 55.5583 20.0277 56.4627C15.4924 57.3671 14.9737 59.8409 18.2056 59.3222C21.4375 58.8035 138.251 45.3173 142.787 44.9316C147.322 44.5459 146.165 41.9524 139.555 42.5908Z" fill="#001434"/>
</svg>
