<svg width="339" height="340" viewBox="0 0 339 340" fill="none" xmlns="http://www.w3.org/2000/svg">
<g clip-path="url(#clip0_775_1231)">
<path d="M149.357 67.5399C161.786 63.8012 152.65 44.4564 141.94 52.3997C132.982 58.6511 139.874 70.6734 149.357 67.5399ZM143.397 54.6364C150.521 49.4354 156.543 60.9347 149.816 64.4963C142.516 68.3902 136.558 59.4702 143.397 54.6364Z" fill="#667ED3"/>
<path d="M76.4892 250.451C74.2474 251.506 72.3212 259.846 73.206 262.012C74.135 264.297 80.7874 269.274 82.7067 268.476C84.748 267.631 86.7522 259.121 85.9104 257.081C85.1913 254.996 77.7962 249.864 76.4892 250.451Z" fill="#667ED3"/>
<path d="M52.6163 191.187C42.8255 198.381 52.2174 210.831 61.8318 205.569C71.9515 200.03 62.2017 184.144 52.6163 191.187ZM63.4788 198.414C63.7881 204.482 53.9203 206.102 51.9446 201.569C47.2658 193.173 63.1638 187.549 63.4788 198.414Z" fill="#667ED3"/>
<path d="M277.12 153.942C265.371 156.074 259.673 140.753 264.617 130.82C267.787 124.513 274.153 117.104 270.665 108.978C264.862 95.3391 253.307 100.423 234.808 88.5562C228.656 84.6413 224.245 70.6601 208.393 68.8559C193.816 67.1622 185.934 74.5447 178.764 79.2171C168.377 86.0924 167.633 85.5261 156.323 90.5246C140.85 97.3717 144.256 122.403 144.358 123.052C145.778 132.129 157.15 146.215 157.15 146.215L163.647 143.973C158.915 138.609 149.87 116.759 152.863 112.709C159.218 112.437 174.204 98.2133 174.563 93.2876C178.453 100.588 202.917 98.323 211.652 94.2127C223.195 107.793 228.864 100.76 236.843 106.788C245.034 117.409 243.087 131.252 230.383 140.161C243.407 154.053 250.473 163.003 243.199 181.291C252.897 183.158 257.392 185.449 272.37 178.361C281.807 170.711 285.378 155.214 277.12 153.942Z" fill="#667ED3"/>
<path d="M46.3703 150.81C47.6314 148.968 44.7079 140.819 42.7306 139.443C40.9127 138.149 31.9528 137.972 31.2441 139.152C29.9579 141.284 32.7927 149.351 34.809 150.681C36.8797 152.059 45.1675 152.564 46.3703 150.81Z" fill="#667ED3"/>
<path d="M256.409 51.7396C249.182 47.5104 240.072 58.4738 244.809 64.2486C253.012 76.0986 269.613 59.3955 256.409 51.7396ZM258.624 59.756C258.935 65.8238 249.067 67.4437 247.091 62.9112C242.41 54.5117 258.306 48.8904 258.624 59.756Z" fill="#667ED3"/>
<path d="M200.133 43.7129C202.187 44.1016 207.633 37.8645 208.123 35.4699C208.603 33.1389 205.064 25.4106 202.68 24.8626C201.2 24.5499 195.075 31.0536 194.733 33.2313C194.222 35.3253 197.913 43.2435 200.133 43.7129Z" fill="#667ED3"/>
<path d="M292.51 194.183C291.684 195.312 295.164 203.59 297.011 204.841C298.923 206.137 307.677 205.861 308.938 204.019C310.141 202.265 306.586 194.816 304.439 193.362C302.461 191.986 293.929 192.232 292.51 194.183Z" fill="#667ED3"/>
<path d="M94.3231 162.943C87.3987 171.505 101.822 181.154 107.545 172.238C113.954 162.262 100.757 154.549 94.3231 162.943ZM105.398 170.784C101.585 176.665 91.7336 170.152 96.5132 164.52C100.517 159.022 110.082 163.558 105.398 170.784Z" fill="#667ED3"/>
<path d="M94.0548 70.2892C91.7684 71.2186 89.3493 79.3211 90.153 81.6509C90.9566 83.9807 97.3286 89.3279 99.29 88.6513C101.375 87.9323 103.83 79.54 103.069 77.3322C102.515 75.3283 95.4038 69.8239 94.0548 70.2892Z" fill="#667ED3"/>
<path d="M105.8 146.498C106.917 155.304 110.127 156.261 117.893 153.715C118.583 152.928 115.23 146.401 113.749 145.677C112.387 144.911 106.362 145.344 105.8 146.498Z" fill="#667ED3"/>
<path d="M192.907 271.347C190.664 272.402 188.739 280.741 189.624 282.906C190.553 285.192 197.205 290.169 199.124 289.37C201.166 288.525 203.169 280.016 202.328 277.975C201.609 275.89 194.336 270.716 192.907 271.347Z" fill="#667ED3"/>
<path d="M169.774 141.443C174.767 144.385 181.743 136.765 177.489 133.98C173.07 131.113 164.781 138.5 169.774 141.443Z" fill="#667ED3"/>
<path d="M237.122 224.128C227.33 231.322 236.723 243.772 246.337 238.51C256.458 232.972 246.709 217.091 237.122 224.128ZM247.984 231.355C248.294 237.421 238.425 239.043 236.451 234.51C231.77 226.112 247.666 220.491 247.984 231.356L247.984 231.355Z" fill="#667ED3"/>
<path d="M210.464 129.74C215.457 132.682 222.432 125.062 218.179 122.276C213.802 119.532 205.512 126.921 210.464 129.74Z" fill="#667ED3"/>
<path d="M271.107 249.86C269.885 250.693 270.922 259.665 272.17 261.293C273.624 263.124 281.949 265.424 283.683 264.043C285.287 262.767 284.08 254.591 282.619 252.611C281.253 250.759 273.06 248.363 271.107 249.86Z" fill="#667ED3"/>
<path d="M47.1553 84.2721C39.9282 80.0429 30.8181 91.005 35.555 96.7798C43.6359 108.672 60.2373 91.97 47.1553 84.2721ZM49.3705 92.2884C49.6806 98.355 39.8128 99.9749 37.8376 95.4437C33.075 87.2044 48.888 81.3417 49.3705 92.2884Z" fill="#667ED3"/>
<path d="M127.81 290.646C118.018 297.84 127.411 310.29 137.025 305.029C147.145 299.491 137.394 283.603 127.81 290.646ZM138.672 297.873C138.98 303.94 129.113 305.56 127.137 301.029C122.457 292.629 138.354 287.009 138.672 297.875L138.672 297.873Z" fill="#667ED3"/>
<path d="M71.8435 131.184C68.4978 132.619 51.8036 140.704 49.719 141.423C47.6344 142.142 48.277 144.8 51.9559 143.531C55.6348 142.262 70.0382 135.099 73.0563 133.509C75.995 132.085 75.1913 129.755 71.8435 131.184Z" fill="#001434"/>
<path d="M77.7364 125.995C80.099 128.228 81.884 126.485 78.4849 122.994C75.0858 119.502 58.1829 103.518 55.0758 100.885C53.1309 99.2232 49.6933 99.9968 53.2921 102.872C56.8909 105.747 74.785 123.206 77.7364 125.995Z" fill="#001434"/>
<path d="M64.5144 175.557C63.1961 178.894 61.261 186.009 62.2923 186.613C63.3236 187.216 64.4226 186.128 64.8961 184.617C65.3381 183.207 66.0681 178.867 66.9845 176.351C67.9008 173.836 65.8315 172.222 64.5144 175.557Z" fill="#001434"/>
<path d="M69.7191 199.006C69.4163 201.306 76.8221 199.71 95.7309 199.637C97.904 199.574 99.8441 198.754 98.9517 197.839C98.1422 197.01 96.4404 196.922 90.2081 197.151C83.9759 197.381 74.4259 197.931 72.0442 197.789C70.2391 197.728 69.7539 198.308 69.7191 199.006Z" fill="#001434"/>
<path d="M87.8388 253.122C89.9183 251.992 94.5175 248.623 94.1719 246.822C94.086 246.165 93.4962 245.271 91.8705 246.517C90.1208 247.807 88.3745 249.507 86.7467 250.755C85.0748 251.883 85.7581 254.252 87.8388 253.122Z" fill="#001434"/>
<path d="M103.898 279C99.8518 276.418 89.1633 266.197 87.2194 268.433C86.7227 269.004 87.4443 270.276 87.9805 270.64C92.2723 273.138 117.53 295.377 120.904 292.897C121.563 292.41 121.106 291.445 120.395 291.014C116.145 288.438 109.895 283.655 103.898 279Z" fill="#001434"/>
<path d="M64.9063 217.267C62.9598 211.216 62.7149 207.733 61.0399 208.448C60.3477 208.828 60.0218 209.074 60.8289 211.813C64.0145 223.697 68.2391 235.279 73.4539 246.423C74.8376 249.239 76.5873 247.949 75.1156 244.478C67.0131 226.556 67.6169 225.525 64.9063 217.267Z" fill="#001434"/>
<path d="M54.3932 184.806C53.2527 181.907 45.7827 161.434 43.7322 157.476C41.8041 153.477 39.6311 153.545 41.068 157.71C42.5894 161.713 50.4925 182.866 51.8608 185.817C53.1826 188.666 55.5331 187.71 54.3932 184.806Z" fill="#001434"/>
<path d="M37.4962 105.988C36.7566 109.811 34.0899 125.544 34.248 132.765C34.2911 136.867 36.3512 137.667 36.6211 132.087C36.891 126.507 39.7889 109.866 40.1702 106.578C40.5516 103.291 38.2362 102.167 37.4962 105.988Z" fill="#001434"/>
<path d="M136.356 276.447C135.897 279.487 135.191 282.617 134.924 284.624C134.657 286.631 137.174 287.965 137.511 284.967C137.849 281.969 138.644 279.499 138.944 276.79C139.243 274.081 136.816 273.407 136.356 276.447Z" fill="#001434"/>
<path d="M160.17 54.3375C163.447 52.7286 187.794 40.5554 190.524 38.927C193.011 37.3839 192.943 34.8005 188.25 37.1046C182.864 39.787 162.705 49.7584 159.078 51.9691C155.451 54.1797 156.878 55.9596 160.17 54.3375Z" fill="#001434"/>
<path d="M242.348 68.2519C240.15 69.8332 240.069 69.9989 238.204 71.3289C236.339 72.659 237.455 75.0805 239.784 73.5274C241.269 72.6443 242.661 71.6123 243.937 70.4473C247.304 67.5033 243.651 67.2537 242.348 68.2519Z" fill="#001434"/>
<path d="M199.246 57.0532C199.872 54.094 200.473 51.3105 201.004 48.6257C201.524 46.0071 199.198 44.5848 198.375 48.161C197.592 50.9254 197.004 53.7415 196.617 56.5885C196.36 59.4206 198.621 60.0136 199.246 57.0532Z" fill="#001434"/>
<path d="M239.522 52.9009C243.518 54.5404 244.647 52.6426 240.605 50.469C236.563 48.2953 219.258 37.5268 216.372 35.5043C213.487 33.4818 210.54 34.9094 214.753 37.5725C219.008 40.358 235.526 51.2601 239.522 52.9009Z" fill="#001434"/>
<path d="M155.821 77.9253C157.369 80.8214 159.039 79.6966 157.991 77.4581C157.054 75.1285 155.832 72.9234 154.355 70.8929C152.938 68.7747 150.393 68.5552 152.481 72.2243C154.57 75.8933 154.274 75.0346 155.821 77.9253Z" fill="#001434"/>
<path d="M98.0963 107.859C100.891 108.405 100.695 97.4958 100.128 94.2614C99.5115 90.0845 97.3883 91.0912 97.5711 92.8121C97.8878 95.7207 97.5259 104.215 97.5077 106.553C97.5588 107.496 97.8086 107.821 98.0963 107.859Z" fill="#001434"/>
<path d="M109.406 79.3983C114.732 78.5222 131.497 69.8576 134.639 68.2253C137.657 66.6356 137.505 63.8065 133.426 65.9003C129.304 67.8708 114.322 74.9593 110.033 76.4387C105.744 77.9181 105.683 80.134 109.406 79.3983Z" fill="#001434"/>
<path d="M59.4709 89.3546C67.0772 87.1416 81.5374 85.3107 85.3838 84.9434C87.5144 84.7571 90.8503 82.0982 85.1517 82.28C76.2741 83.0773 67.4707 84.5544 58.819 86.6981C55.1073 87.8392 57.8345 89.7784 59.4709 89.3546Z" fill="#001434"/>
<path d="M197.469 122.697C200.678 123.648 212.58 120.366 216.736 117.699C221.991 114.238 217.601 102.307 212.62 100.595C207.596 98.7615 195.567 101.272 191.595 106.065C187.79 110.944 191.795 121.363 197.469 122.697ZM211.505 103.725C213.809 104.438 218.715 114.683 213.231 115.888C208.611 112.116 203.784 108.605 198.771 105.372C202.973 103.65 208.748 102.892 211.505 103.725Z" fill="#001434"/>
<path d="M92.4499 132.856C84.0603 140.874 87.4653 144.407 89.5465 141.54C90.4761 140.259 92.8189 136.707 94.4794 134.763C96.1373 132.407 94.9278 130.491 92.4499 132.856Z" fill="#001434"/>
<path d="M101.939 138.09C99.8767 140.827 97.9757 143.681 96.2452 146.639C95.4743 148.304 96.4609 151.641 100.743 145.362C106.523 136.645 102.746 136.85 101.939 138.09Z" fill="#001434"/>
<path d="M83.0366 146.53C79.4337 147.224 74.8473 153.591 75.0207 156.704C75.1637 159.248 81.7922 164.796 85.3478 163.57C87.7995 162.724 93.7577 155.729 93.0798 153.356C92.5202 151.354 85.0825 146.099 83.0366 146.53ZM85.5197 160.491C83.5669 161.988 81.9891 160.199 77.8158 157.249C75.0469 155.185 80.7632 149.48 81.9549 148.962C83.8586 148.126 87.3828 150.381 90.2002 152.977C91.4431 154.195 87.9221 158.703 85.5197 160.491Z" fill="#001434"/>
<path d="M99.7477 132.533C96.6938 136 94.0995 139.846 92.029 143.976C91.0282 146.349 92.7958 147.088 94.5403 144.894C96.2403 142.75 100.401 136.424 102.218 133.739C103.917 131.095 101.126 130.96 99.7477 132.533Z" fill="#001434"/>
<path d="M290.889 168.401C291.904 171.343 295.499 181.764 296.785 187.083C297.47 189.865 299.238 190.216 298.197 184.813C296.943 179.053 295.35 173.372 293.427 167.8C292.196 163.836 289.916 165.58 290.889 168.401Z" fill="#001434"/>
<path d="M270.688 91.5412C268.966 87.7442 264.094 76.8033 261.794 72.5207C259.494 68.238 257.041 69.0842 259.429 73.6178C261.817 78.1515 266.224 88.1496 268.228 91.5735C269.939 94.5428 272.286 95.3794 270.688 91.5412Z" fill="#001434"/>
<path d="M189.787 133.037C188.301 133.402 186.799 133.691 185.284 133.905C184.094 134.035 183.71 136.505 186.02 137.629C187.833 138.513 189.992 138.057 191.076 138.766C193.162 140.13 195.334 141.962 198.729 141.066C206.421 139.099 202.995 129.168 200.195 128.213C197.395 127.258 194.981 131.377 189.787 133.037Z" fill="#001434"/>
<path d="M254.819 88.094C247.826 84.339 241.34 79.7064 235.52 74.3086C217.616 56.6097 199.264 56.6751 181.985 69.4548C175.456 74.4825 168.117 78.3599 160.285 80.9203C144.859 85.9601 136.893 103.395 141.043 119.798C125.147 105.937 113.812 108.475 106.777 114.332C96.8534 106.64 92.3481 116.065 77.9737 133.048C64.2804 149.228 59.9649 156.409 61.0407 161.118C61.946 165.333 66.8298 169.548 79.6751 178.15C94.5466 188.25 99.7426 190.984 104.411 190.197C108.182 189.579 112.03 185.234 124.79 166.15C127.072 171.171 129.827 175.963 133.019 180.461C123.34 184.622 114.483 188.775 111.567 192.251C95.3638 212.354 91.2355 214.445 92.5622 218.291C85.2982 217.916 78.9171 215.727 75.6493 220.97C75.046 222.002 74.5341 224.099 76.4065 226.745C81.6134 234.278 113.772 255.816 115.029 256.778C119.29 260.033 124.644 258.399 128.089 254.467L139.444 242.044C140.139 249.624 140.959 253.594 142.575 255.096C134.923 260.753 130.555 262.808 133.91 269.746C137.555 277.132 187.152 266.197 193.371 264.738C199.468 263.321 202.385 263.823 201.89 255.626C201.395 247.428 201.083 236.972 201.083 236.972C201.068 236.588 201.149 236.207 201.317 235.862C201.485 235.517 201.735 235.218 202.046 234.993C218.898 222.593 235.725 211.714 244.081 183.037C264.41 189.471 288.625 175.355 287.081 152.976C286.873 148.795 284.093 145.911 280.129 147.142C278.394 147.6 276.58 147.675 274.813 147.361C273.047 147.047 271.369 146.353 269.898 145.325C262.459 140.481 265.216 132.946 269.376 126.709C280.85 110.262 269.082 94.8387 254.819 88.094ZM141.546 124.839C141.457 128.162 141.17 132.101 136.769 138.834C136.036 136.959 134.849 135.294 133.315 133.989C134.241 132.297 134.476 130.205 132.341 130.758C128.554 131.736 118.173 133.038 115.373 128.104C112.705 123.949 119.303 123.181 121.965 122.949C124.137 122.885 121.351 119.183 115.75 120.84C113.352 119.06 111.162 117.483 109.508 116.27C118.464 110.026 129.487 112.946 141.546 124.839ZM120.033 162.304C113.378 172.421 107.855 182.284 103.23 183.194C100.16 183.841 67.0546 163.837 67.9565 159.689C66.3041 154.491 95.8279 118.383 99.5901 117.36C101.675 116.641 106.589 119.747 112.247 123.827C109.095 132.185 120.536 135.921 127.171 134.868C129.819 136.973 131.684 138.798 132.107 140.026C132.669 142.855 126.168 152.643 120.033 162.304ZM126.768 163.137C133.953 152.151 136.487 147.161 137.15 143.915C140.771 139.854 143.278 134.924 144.426 129.605C147.075 135.367 150.498 140.741 154.6 145.579C146.029 149.769 141.509 153.571 140.328 157.498C139.014 161.847 142.683 167.113 147.558 166.53C144.371 171.606 143.855 177.273 136.165 179.239C132.173 174.033 129.649 167.906 126.769 163.138L126.768 163.137ZM173.996 129.421C177.729 125.526 174.007 114.736 169.597 112.691C166.054 111.169 158.735 113.831 154.779 115.471C154.8 114.949 154.85 114.428 154.926 113.911C157.829 112.733 160.57 111.188 163.081 109.314C165.331 108.678 167.762 109.757 168.745 109.418C170.786 108.573 169.989 106.657 167.151 105.989C170.233 103.059 172.916 99.7348 175.129 96.1031C178.02 98.1234 181.893 99.8067 188.375 99.9019C184.846 103.59 185.644 105.509 187.036 105.167C188.427 104.825 190.485 101.645 194.319 99.6356C199.961 98.9623 205.544 97.8618 211.02 96.3437C220.014 105.315 224.001 106.136 230.722 105.738C233.139 105.589 235.913 108.063 237.799 111.94C251.301 140.344 197.169 152.847 189.05 153.176C181.908 149.192 173.816 143.614 165.237 143.007C163.28 140.322 161.563 137.472 160.103 134.488C164.065 133.688 171.131 132.348 173.996 129.422L173.996 129.421ZM158.165 117.732C162.413 116.126 166.752 115.182 168.194 115.782C170.126 116.213 173.699 124.584 171.552 127.108C170.613 127.921 169.517 128.533 168.331 128.906C165.18 124.972 161.785 121.241 158.166 117.733L158.165 117.732ZM171.074 147.579C175.81 149.375 182.544 153.893 187.299 165.58C194.001 182.051 168.064 193.344 158.601 179.048C162.097 177.846 165.386 176.11 168.35 173.901C170.057 172.489 167.817 169.969 166.109 171.382C163.237 173.567 159.984 175.201 156.515 176.199C154.643 173.553 152.524 167.013 153.035 164.915C156.368 163.485 159.518 161.662 162.417 159.484C162.588 159.353 162.731 159.189 162.839 159.003C162.947 158.816 163.017 158.61 163.045 158.397C163.074 158.183 163.059 157.966 163.004 157.758C162.948 157.55 162.852 157.355 162.721 157.184C162.59 157.013 162.427 156.87 162.24 156.762C162.054 156.654 161.848 156.584 161.634 156.556C161.421 156.527 161.204 156.542 160.996 156.597C160.787 156.653 160.592 156.749 160.421 156.88C157.454 159.412 142.698 168.34 143.577 158.163C144.405 154.996 149.266 151.231 157.983 147.425C162.199 145.764 166.898 145.819 171.074 147.579ZM154.213 178.641C156.711 182.702 160.355 185.932 164.688 187.923C165.517 188.736 167.923 191.336 171.36 194.54C160.594 188.786 151.669 182.4 146.108 176.222C147.601 173.787 148.919 170.451 150.091 168.675C150.849 172.219 152.243 175.596 154.206 178.643L154.213 178.641ZM116.97 254.05C106.844 246.569 76.5047 228.221 78.7828 222.496C80.059 219.038 89.0649 221.282 94.8477 221.756C102.171 227.874 117.614 241.619 122.627 254.568C121.729 255.016 120.724 255.205 119.725 255.114C118.725 255.022 117.771 254.654 116.97 254.05ZM192.682 261.545C187.735 262.703 154.136 270.315 139.351 268.418C138.871 268.429 138.396 268.323 137.966 268.11C137.536 267.897 137.164 267.583 136.882 267.195C136.6 266.807 136.416 266.356 136.346 265.881C136.275 265.407 136.321 264.922 136.479 264.469C137.231 261.877 143.307 258.409 147.141 256.4C167.444 252.416 187.336 252.414 198.787 256.97C198.614 259.637 198 260.26 192.682 261.545ZM218.925 217.509C196.104 239.648 196.927 224.136 198.386 253.405C186.082 249.142 165.322 249.033 145.141 252.975C142.626 251.648 142.104 233.032 141.236 224.55C140.293 216.644 145.623 212.609 149.986 206.166C152.451 202.571 150.668 200.584 149.331 202.275C136.66 218.446 136.817 217.706 138.95 237.413C125.943 251.828 125.533 252.33 125.325 252.402C119.603 238.599 103.426 224.849 96.5071 218.576C94.4778 216.736 95.6829 216.783 114.22 194.357C118.554 189.021 136.26 183.873 144.003 178.877C151.764 187.456 165.677 196.371 181.744 203.175C189.437 208.754 198.257 213.257 205.664 211.666C211.159 212.808 216.714 213.64 222.302 214.159C221.199 215.351 220.064 216.434 218.925 217.509ZM225.216 211.086C220.535 210.642 216.264 210.194 212.485 209.577C222.153 205.388 230.762 199.09 237.681 191.144C234.861 198.538 230.626 205.311 225.216 211.086ZM239.326 183.58C231.859 195.347 216.674 206.211 204.845 208.508C193.75 210.551 177.686 196.2 170.601 189.177C183.16 190.191 195.964 176.89 190.483 164.482C189.01 161.09 187.204 157.853 185.091 154.818C191.358 158.528 197.338 162.703 202.981 167.307C203.201 167.488 203.465 167.608 203.746 167.656C204.028 167.703 204.316 167.676 204.584 167.577C207.48 166.029 204.093 163.767 202.481 162.675C204.13 160.744 205.951 158.968 207.922 157.368C208.277 157.08 208.503 156.664 208.552 156.21C208.601 155.756 208.469 155.301 208.184 154.945C205.942 152.426 201.339 159.364 199.711 160.612C197.519 158.995 195.287 157.431 193.018 155.923C203.173 154.342 219.734 149.452 229.584 142.212C236.612 147.473 251.221 167.953 239.326 183.58ZM270.402 111.396C272.547 124.376 251.586 135.997 267.996 148.172C269.907 149.499 272.086 150.392 274.379 150.786C276.672 151.18 279.024 151.067 281.268 150.454C283.108 149.819 283.615 151.29 283.881 153.257C285.196 173.382 263.75 185.581 245.236 180.032C253.251 165.879 238.55 144.335 232.598 140.214C243.104 132.886 245.302 119.371 240.903 110.596C238.348 105.578 234.501 102.378 230.73 102.581C225.445 102.758 222.362 102.586 214.738 95.2004C221.105 92.181 221.698 87.9036 219.884 89.0346C205.381 98.0836 180.893 98.5057 177.064 93.3784C178.459 89.4674 178.501 85.6121 177.79 84.3476C177.116 83.2085 176.001 83.994 175.907 84.8564C175.631 87.721 174.828 90.51 173.54 93.0833C166.544 106.92 155.797 110.459 153.468 111.262C151.757 111.902 149.988 112.374 148.186 112.672C147.283 112.843 147.111 115.924 152.067 115.176C151.858 126.503 156.25 134.86 161.543 143.462C160.465 143.61 159.407 143.88 158.391 144.268C143.464 128.837 133.929 94.0776 161.949 84.1829C177.237 78.7841 182.741 72.0711 194.495 66.3706C203.603 62.5437 216.294 60.3606 233.694 76.9955C247.433 91.7418 266.628 91.7063 270.402 111.396Z" fill="#001434"/>
<path d="M181.077 128.077C182.968 128.386 182.521 126.352 181.831 125.486C180.809 124.202 180.698 122.995 181.712 121.959C182.887 120.593 186.049 121.012 188.358 122.135C190.668 123.259 193.106 121.184 190.299 119.408C187.491 117.631 182.029 116.914 179.267 119.647C176.465 122.259 179.189 127.769 181.077 128.077Z" fill="#001434"/>
<path d="M256.382 238.2C254.856 237.354 252.238 238.12 254.598 240.187C256.959 242.254 263.524 246.575 265.465 247.826C267.406 249.077 270.303 247.53 266.877 245.555C263.45 243.58 259.642 240.094 256.382 238.2Z" fill="#001434"/>
<path d="M228.527 233.814C231.309 233.129 230.675 231.291 227.64 231.651C225.019 232.006 214.745 234.041 210.903 235.229C207.916 236.119 210.112 238.108 212.404 237.593C216.254 236.814 225.746 234.5 228.527 233.814Z" fill="#001434"/>
<path d="M263.218 260.402C257.493 262.102 210.932 277.066 208.521 277.622C205.984 278.223 206.661 280.185 208.915 279.956C213.38 279.376 259.286 264.501 263.991 263.016C268.563 261.576 266.447 259.424 263.218 260.402Z" fill="#001434"/>
<path d="M295.548 210.147C294.361 214.261 285.531 240.768 284.8 245.41C284.069 250.052 286.448 250.188 287.359 246.86C288.66 241.884 296.687 217.027 297.214 212.592C297.95 208.359 296.463 207.226 295.548 210.147Z" fill="#001434"/>
<path d="M236.908 242.585C236.654 241.849 236.4 241.114 234.008 243.726C231.21 246.748 223.249 254.297 216.382 260.639C205.902 270.428 203.341 272.546 203.517 273.857C204.038 276.559 210.282 269.604 218.086 262.795C234.888 245.889 237.501 244.713 236.908 242.585Z" fill="#001434"/>
<path d="M243.241 216.803C243.278 212.539 243.183 203.515 242.87 201.016C242.112 195.24 240.321 200.387 240.426 202.682C240.576 205.101 240.834 214.203 240.991 217.443C241.147 220.682 243.325 221.027 243.241 216.803Z" fill="#001434"/>
<path d="M285.419 194.708C289.364 195.405 291.156 194.237 287.001 192.927C282.722 191.66 274.446 188.752 270.667 188.135C266.845 187.395 266.087 189.574 270.037 190.685C273.864 191.834 281.474 194.01 285.419 194.708Z" fill="#001434"/>
<path d="M182.088 284.134C178.655 285.318 149.724 293.308 146.835 294.098C143.946 294.888 143.178 297.418 147.597 296.716C151.978 295.892 179.027 288.002 182.85 286.752C186.673 285.502 185.521 282.949 182.088 284.134Z" fill="#001434"/>
<path d="M253.52 227.115C259.895 225.338 287.227 206.706 289.015 205.13C290.884 203.388 290.043 201.345 277.372 209.557C270.079 214.268 256.179 222.495 253.981 224.075C251.782 225.655 252.015 227.533 253.52 227.115Z" fill="#001434"/>
</g>
<defs>
<clipPath id="clip0_775_1231">
<rect width="266" height="266" fill="white" transform="translate(0 87.6401) rotate(-19.0318)"/>
</clipPath>
</defs>
</svg>
