<svg width="298" height="297" viewBox="0 0 298 297" fill="none" xmlns="http://www.w3.org/2000/svg">
<g clip-path="url(#clip0_775_1191)">
<path d="M124.734 156.456C117.755 161.924 109.305 165.189 100.462 165.834L104.795 172.974C104.795 172.974 109.667 170.305 112.463 172.191C114.308 173.605 115.749 175.479 116.644 177.624C116.644 177.624 132.681 168.518 131.663 164.493C130.797 160.755 124.734 156.456 124.734 156.456Z" fill="#CB6ECD"/>
<path d="M136.908 119.337C135.586 99.0735 129.022 81.7682 110.003 77.883C90.9841 73.9977 71.8158 81.2166 63.9069 84.8248C55.9981 88.433 44.9417 94.9632 40.3364 121.237C36.1117 145.293 47.4121 157.876 47.4121 157.876C47.4121 157.876 39.6992 167.069 39.8984 169.693C40.3427 175.765 59.7277 185.27 73.4849 185.639C71.8119 172.032 74.5738 162.671 80.441 158.449C75.8264 152.399 72.5378 148.094 72.933 139.017C73.8932 116.984 88.9501 99.9586 99.4521 92.3818C126.26 96.5705 136.908 119.337 136.908 119.337Z" fill="#CB6ECD"/>
<path d="M277.997 116.679C277.997 116.679 283.537 87.3845 279.772 81.2921C276.007 75.1998 259.352 73.0129 259.352 73.0129C261.389 76.4582 262.74 80.2651 263.33 84.2238C269.382 89.4857 271.479 98.3474 262.87 104.268C263.875 118.731 250.518 119.456 250.518 119.456C250.518 119.456 247.47 123.53 243.28 128.28C251.064 134.599 260.206 146.54 261.751 160.748C269.902 159.85 272.781 153.343 274.852 146.108C276.923 138.872 277.997 116.679 277.997 116.679Z" fill="#CB6ECD"/>
<path d="M59.9222 78.128C60.2824 78.4672 70.4008 75.1984 70.3425 74.9098C70.2843 74.6212 71.156 68.3097 71.156 68.3097C71.156 68.3097 64.2159 68.2986 61.9331 61.8127C59.6504 55.3268 71.1836 35.3609 72.6461 31.1056C74.1086 26.8502 81.0861 15.9043 81.0861 15.9043C81.0861 15.9043 68.9103 13.2511 63.2663 21.6411C60.8884 30.8223 59.1235 44.3806 59.1235 44.3806C59.1235 44.3806 52.5216 71.3062 59.9222 78.128Z" fill="#CB6ECD"/>
<path d="M151.942 57.4956C153.449 47.4433 155.203 34.2991 151.543 28.1125C147.884 21.9259 136.864 22.2831 136.864 22.2831C136.864 22.2831 138.062 24.9634 140.385 29.2699C142.709 33.5765 140.104 37.5303 140.337 44.6614C140.571 51.7925 142.13 50.993 142.877 60.6934C143.625 70.3938 136.994 72.5514 136.994 72.5514C136.994 72.5514 136.425 73.6874 137.022 79.3892C137.181 80.986 136.985 82.5982 136.446 84.1099C135.908 85.6215 135.041 86.9949 133.908 88.1312L135.467 92.0085C146.774 90.7222 148.493 85.0378 149.805 80.3752C151.117 75.7127 150.418 67.5728 151.942 57.4956Z" fill="#CB6ECD"/>
<path d="M245.235 206.888C253.301 212.224 252.721 215.623 255.867 222.175C257.448 208.259 258.996 196.791 258.996 196.791C258.226 200.864 244.802 206.593 245.235 206.888Z" fill="#CB6ECD"/>
<path d="M163.561 67.1563C158.647 71.147 157.854 94.2189 157.854 94.2189C157.854 94.2189 163.886 83.6524 178.8 86.1606C177.385 75.8955 181.076 73.2415 186.466 72.2441C186.683 70.2833 187.408 68.4134 188.571 66.8196C189.733 65.2258 191.292 63.9635 193.093 63.1579C193.093 63.1579 168.475 63.1656 163.561 67.1563Z" fill="#CB6ECD"/>
<path d="M198.601 167.531C198.601 167.531 183.993 164.39 180.53 172.808C177.067 181.225 175.987 203.364 175.987 203.364C175.987 203.364 173.589 215.317 176.819 220.204C177.046 220.54 181.648 212.116 194.365 202.333C194.365 202.333 180.03 194.696 182.385 186.786C185.111 178.519 190.919 171.622 198.601 167.531Z" fill="#CB6ECD"/>
<path d="M90.7814 47.9207C94.4892 50.4548 104.106 51.6937 106.078 46.5632C110.824 36.106 96.6748 33.0488 91.6434 35.9262C88.0523 37.9895 86.9133 45.2731 90.7814 47.9207ZM99.0644 38.3417C98.4724 41.1375 98.1574 43.9848 98.1239 46.8424C96.0252 46.691 93.5304 46.3835 92.5865 45.2353C89.7679 41.7923 91.6434 35.9262 99.0644 38.3417Z" fill="#001434"/>
<path d="M102.081 55.7197C103.636 61.0438 112.903 60.4439 112.127 56.3012C111.634 53.5603 107.351 55.4714 105.766 53.5473C103.862 51.7046 101.271 52.9397 102.081 55.7197Z" fill="#001434"/>
<path d="M112.174 157.91C109.371 159.776 105.752 159.343 103.846 158.934C101.94 158.525 101.15 161.456 103.149 162.091C107.803 163.576 116.098 161.731 114.424 158.349C114.312 158.165 114.162 158.006 113.985 157.883C113.808 157.761 113.607 157.676 113.395 157.635C113.184 157.593 112.966 157.597 112.755 157.644C112.545 157.692 112.347 157.782 112.174 157.91Z" fill="#001434"/>
<path d="M106.474 124.457C111.665 129.305 103.955 132.602 106.255 134.494C108.847 136.622 112.083 130.696 111.789 127.538C111.7 126.372 111.341 125.243 110.742 124.239C110.142 123.235 109.318 122.384 108.335 121.752C107.976 121.505 107.534 121.411 107.106 121.49C106.678 121.569 106.298 121.815 106.052 122.174C105.805 122.532 105.711 122.975 105.79 123.403C105.869 123.831 106.115 124.21 106.474 124.457Z" fill="#001434"/>
<path d="M101.711 126.348C100.536 119.248 96.5372 115.486 85.9734 116.824C78.4856 117.777 71.4995 122.705 73.3747 132.062C74.8962 139.07 81.7556 142.02 88.3233 141.248C99.3556 139.914 103.203 135.122 101.711 126.348ZM80.8457 136.681C75.0991 134.271 75.759 125.655 78.7635 123.024C81.2096 120.9 83.7051 120.658 86.0552 120.291C85.477 126.144 86.2479 132.052 88.3087 137.561C86.2104 137.624 84.3736 138.175 80.8457 136.681Z" fill="#001434"/>
<path d="M110.646 143.986C105.583 146.471 97.0827 141.068 94.9633 147.065C93.1787 152.084 99.5002 155.919 104.388 156.602C118.002 159.432 122.59 138.088 110.646 143.986ZM112.501 151.665C109.366 154.589 97.4224 154.403 97.7225 148.597C97.9191 144.937 106.004 149.364 111.785 147.034C115.046 145.694 115.538 148.77 112.501 151.665Z" fill="#001434"/>
<path d="M109.853 44.6426C113.386 44.5689 112.863 49.0337 109.808 49.3541C109.611 49.3808 109.421 49.4461 109.25 49.5462C109.078 49.6463 108.928 49.7792 108.808 49.9373C108.687 50.0955 108.599 50.2757 108.549 50.4679C108.498 50.66 108.486 50.8602 108.513 51.0571C108.539 51.254 108.605 51.4437 108.705 51.6153C108.805 51.787 108.938 51.9372 109.096 52.0575C109.415 52.3004 109.818 52.4065 110.216 52.3525C117.546 51.7015 116.88 40.8989 109.496 41.6639C109.291 41.6755 109.091 41.729 108.907 41.821C108.724 41.9131 108.561 42.0417 108.429 42.199C108.297 42.3564 108.199 42.539 108.141 42.7358C108.082 42.9325 108.065 43.1392 108.089 43.343C108.113 43.5468 108.179 43.7434 108.283 43.9208C108.386 44.0982 108.524 44.2525 108.69 44.3743C108.855 44.496 109.043 44.5827 109.243 44.6288C109.443 44.6749 109.651 44.6796 109.853 44.6426Z" fill="#001434"/>
<path d="M82.2313 114.567C83.9181 115.016 89.049 112.419 93.7487 114.191C94.1492 114.317 94.5829 114.282 94.9587 114.095C95.3345 113.908 95.623 113.582 95.7638 113.187C95.9045 112.791 95.8864 112.356 95.7133 111.974C95.5402 111.591 95.2255 111.291 94.8355 111.135C92.5122 109.871 86.031 110.05 82.4782 111.368C80.1471 112.233 80.571 114.121 82.2313 114.567Z" fill="#001434"/>
<path d="M97.5547 33.7331C100.172 34.2433 104.942 35.9838 105.765 33.5524C106.717 30.7216 100.96 30.0254 97.3353 30.8383C95.0645 31.3223 94.5843 33.1526 97.5547 33.7331Z" fill="#001434"/>
<path d="M100.572 139.729C99.5213 140.752 99.8349 142.774 101.28 142.684C103.779 142.523 106.148 139.934 110.68 141.658C110.877 141.738 111.09 141.778 111.303 141.774C111.516 141.77 111.727 141.723 111.922 141.635C112.117 141.548 112.292 141.422 112.437 141.265C112.581 141.108 112.693 140.924 112.765 140.723C113.758 136.798 103.503 136.821 100.572 139.729Z" fill="#001434"/>
<path d="M137.037 171.132C137.887 170.301 138.401 169.186 138.482 168C138.908 164.542 133.94 161.357 131.428 158.474C146.861 142.634 142.846 110.848 137.426 93.0677C151.123 92.0759 151.76 82.4523 152.649 65.2348C153.513 48.7648 162.912 25.3465 142.592 21.6894C126.858 18.879 104.033 16.843 88.4395 14.519C77.3444 12.8835 62.2721 12.3122 59.7573 26.3007C57.2989 46.2461 53.1458 64.9373 56.6041 77.7592C24.5185 88.5586 15.8928 134.84 34.311 158.712C30.7712 163.73 21.3099 169.17 26.9517 174.931C14.4592 207.79 11.1381 255.61 46.9714 261.916C85.795 268.859 135.565 226.242 120.421 182.002C125.722 180.142 130.622 177.289 134.857 173.597C142.049 183.083 147.716 193.634 151.653 204.867C156.182 217.486 154.425 223.26 155.543 223.652C162.054 225.942 156.371 195.184 137.037 171.132ZM125.439 159.223C120.017 162.991 109.876 166.444 101.464 165.649C93.8639 156.752 85.5462 151.934 75.2198 157.978C56.5089 137.568 77.4344 103.697 96.9177 90.6612C108.006 92.0279 122.134 96.4494 130.897 106.789C126.648 106.401 122.384 107.352 118.703 109.507C116.638 110.714 118.509 113.142 120.642 112.145C126.817 109.235 133.146 109.854 133.933 110.862C134.696 111.694 135.374 112.599 135.958 113.564C132.51 112.509 124.318 112.545 117.988 116.173C114.844 117.983 113.4 121.437 114.732 127.699C116.352 135.322 123.067 140.197 138.287 134.354C137.527 143.239 134.69 152.779 125.439 159.223ZM129.4 133.178C126.943 133.545 123.191 133.217 121.652 132.223C117.338 129.279 117.103 120.741 119.417 119.257C121.524 117.967 123.883 117.142 126.335 116.84C126.041 122.453 127.092 128.054 129.4 133.178ZM141.936 24.8381C158.592 26.154 150.228 50.1957 149.425 64.9715C148.472 82.382 148.028 89.7914 135.972 89.9672C135.669 89.3805 135.338 88.8036 135.004 88.2532C135.004 88.2532 139.325 84.2965 138.054 73.406C146.538 69.8017 143.445 58.1505 141.93 50.0038C140.258 41.0605 144.702 34.0368 139.722 24.4312L141.936 24.8381ZM92.8604 29.751C103.899 26.5152 114.884 35.0251 121.272 29.4069C121.991 31.3985 122.504 32.2389 125.966 33.4026C123.341 33.709 123.812 36.0853 125.684 36.3428C128.073 36.6013 130.427 37.1251 132.701 37.9045C132.889 38.454 133.016 39.0224 133.081 39.5997C111.169 28.9657 110.61 58.8338 132.317 51.566C132.002 73.9063 86.9359 62.0534 83.906 54.6714C82.522 51.8743 84.9361 32.0709 92.8604 29.751ZM125.987 49.6468C122.76 49.5171 119.207 49.0926 119.786 44.2861C120.345 39.7585 123.459 39.8208 126.608 40.2624C126.056 43.3582 125.848 46.5054 125.987 49.6468ZM82.5315 58.3211C91.2128 66.4935 115.153 70.5699 127.647 65.1013C141.136 74.496 133.593 85.7878 133.593 85.7878C119.285 67.2734 90.767 68.1538 72.2243 72.6893C73.5875 67.2826 77.053 61.2373 82.5315 58.3211ZM62.9437 26.8677C64.2069 19.8808 69.2923 16.675 79.5256 16.9313C76.9844 19.392 73.9845 24.7041 71.9077 29.594C67.5351 42.4557 50.4262 65.3659 69.9465 69.0986C69.4375 70.5394 69.0488 72.0199 68.7845 73.525C65.706 74.365 62.7449 75.3401 59.9276 76.4535C56.0257 67.557 60.9028 43.9699 62.9437 26.8677ZM36.5472 161.118C41.0453 165.107 46.1057 168.413 51.5661 170.929C54.5293 172.112 55.6958 169.388 52.6133 167.869C49.5308 166.35 42.5723 163.335 37.5754 157.56C27.1106 145.482 25.9966 125.056 31.9266 108.367C39.9746 85.9074 51.5447 83.5813 63.6508 79.2977C90.2734 69.8753 135.654 69.0632 137.959 110.702C127.273 94.6573 112.319 89.7588 100.422 87.8903C103.074 85.8319 105.643 83.9106 108.198 81.9877C108.505 81.7175 108.698 81.3414 108.74 80.9348C108.781 80.5281 108.668 80.1207 108.422 79.7941C108.176 79.4675 107.816 79.2457 107.414 79.1732C107.011 79.1006 106.596 79.1826 106.252 79.4027C81.8476 94.3114 49.0731 132.336 72.6811 159.984C65.7092 166.428 64.075 175.446 65.9908 187.301C46.4581 185.952 30.1431 176.436 28.3935 171.062C27.9009 169.513 33.4277 165.009 36.5472 161.118ZM111.246 227.841C99.7449 245.05 77.0834 259.41 55.0434 259.159C14.1323 259.477 17.353 210.841 29.5099 177.551C34.9839 182.608 47.5801 188.918 62.3551 190.27C57.1345 192.507 40.8923 205.233 36.9366 211.124C35.4574 213.34 37.5119 214.719 39.6919 212.254C47.415 203.733 56.6297 196.694 66.8822 191.484C71.0427 215.462 101.072 233.086 118.057 212.157C117.624 216.432 114.514 222.964 111.246 227.841ZM119.543 194.451C121.603 217.311 95.9549 225.46 80.2794 209.886C70.3216 200.002 64.2459 176.017 72.2696 165.28C75.1904 169.424 77.5407 173.941 79.2575 178.711C80.5943 181.891 83.291 180.669 82.4548 177.886C80.4765 172.52 77.7897 167.443 74.4659 162.79C76.2897 160.858 78.6305 159.49 81.2096 158.851C85.3998 163.669 86.6072 166.484 89.9615 173.518C91.5691 176.892 94.0234 175.68 92.6823 171.883C90.8448 167.147 88.3486 162.693 85.2674 158.654C94.04 158.476 105.436 174.956 106.829 184.093C107.41 186.121 110.969 186.385 109.949 183.137C109.086 180.177 108.067 177.265 106.897 174.412C113.482 169.69 118.411 181.889 119.543 194.451ZM119.236 179.002C115.901 172.467 112.032 167.326 105.417 171.523C104.934 170.659 104.434 169.821 103.903 169.018C112.96 168.913 121.756 165.976 129.06 160.621C131.496 162.596 135.352 165.779 135.342 167.6C135.258 170.564 125.663 176.98 119.236 179.002Z" fill="#001434"/>
<path d="M217.4 104.493C220.119 104.828 217.791 97.7337 224.026 100.419C224.215 100.522 224.423 100.584 224.638 100.603C224.852 100.621 225.068 100.595 225.272 100.525C225.476 100.456 225.663 100.345 225.822 100.2C225.98 100.054 226.107 99.8776 226.194 99.6807C227.076 97.203 220.37 96.1621 218.727 97.4203C216.896 98.3604 214.298 104.111 217.4 104.493Z" fill="#001434"/>
<path d="M216.075 111.432C219.795 109.412 224.019 114.502 225.732 112.127C227.765 109.335 218.472 107.212 214.962 108.401C214.56 108.548 214.233 108.85 214.053 109.238C213.873 109.627 213.855 110.071 214.003 110.473C214.15 110.875 214.452 111.202 214.84 111.382C215.229 111.562 215.673 111.58 216.075 111.432Z" fill="#001434"/>
<path d="M231.245 110.447C235.637 113.307 241.231 114.238 244.961 112.674C246.288 112.073 247.453 111.164 248.359 110.023C249.264 108.881 249.883 107.54 250.166 106.111C250.448 104.681 250.385 103.205 249.982 101.805C249.579 100.405 248.847 99.1214 247.848 98.0612C245.757 95.78 234.592 91.2279 230.999 96.5741C228.307 100.584 226.949 107.466 231.245 110.447ZM241.369 97.9997C246.242 99.7796 247.786 100.305 247.244 106C246.889 109.535 242.133 110.61 238.745 109.723C240.268 105.989 241.155 102.027 241.369 97.9997Z" fill="#001434"/>
<path d="M278.275 128.988C279.141 114.568 286.63 80.8775 278.735 77.0902C258.203 67.216 172.559 53.8458 162.288 66.5031C159.222 70.2927 156.853 82.2222 155.531 96.1031C153.278 119.598 148.478 143.758 158.833 146.508C185.197 153.536 220.059 157.177 244.898 161.136C270.593 164.786 276.976 159.207 278.275 128.988ZM197.426 81.7154C201.317 81.1164 205.172 80.2985 208.971 79.2656C209.3 79.164 209.652 79.1608 209.983 79.2564C210.314 79.3519 210.61 79.5421 210.834 79.8035C216.068 86.05 224.142 85.3433 231.814 81.2637C231.983 81.1753 232.179 81.1527 232.364 81.2002C232.548 81.2478 232.709 81.362 232.814 81.5209C236.282 86.652 242.129 87.4932 247.065 87.78C247.233 87.7892 247.393 87.8541 247.52 87.9644C247.647 88.0746 247.734 88.2241 247.767 88.3892C248.55 92.3539 250.675 95.928 253.783 98.5111C254.056 98.7182 254.273 98.9902 254.415 99.3025C254.557 99.6148 254.618 99.9575 254.594 100.3C251.403 139.237 212.616 138.195 193.467 119.486C195.422 117.11 196.151 114.819 195.655 112.613C195.234 111.334 194.504 110.178 193.529 109.249C192.554 108.319 191.365 107.646 190.066 107.288C190.88 100.688 191.102 95.7302 188.692 91.0378C189.072 88.7981 190.103 86.7199 191.656 85.0621C193.209 83.4043 195.216 82.2404 197.426 81.7154ZM164.796 68.5543C167.167 65.6303 176.692 64.5664 189.37 64.8828C187.454 66.654 186.069 68.9243 185.372 71.4389C179.189 72.3519 176.331 80.3213 177.743 85.8288C174.521 85.1967 171.195 85.326 168.032 86.2064C164.869 87.0868 161.955 88.694 159.523 90.8998C160.963 80.4104 162.621 71.1942 164.796 68.5543ZM157.419 102.527C158.551 94.5456 163.006 89.815 170.442 88.9625C169.066 91.2051 165.952 97.8834 168.693 98.5831C171.434 99.2828 172.089 89.6212 174.856 88.7025C177.119 88.8368 179.327 89.4516 181.334 90.506C179.768 92.9931 176.962 100.205 179.094 101.178C179.893 101.545 180.873 101.532 181.036 100.64C181.485 97.7285 182.481 94.9277 183.97 92.3854C191.727 98.3802 183.639 108.881 187.821 110.067C195.812 111.882 192.513 117.988 184.177 122.777C177.217 124.881 161.517 120.707 156.449 115.513C156.364 111.164 156.689 106.816 157.419 102.527ZM167.001 145.25C155.984 142.552 154.435 142.83 156.144 119.509C162.519 124.101 174.295 127.495 182.872 126.408C181.63 133.559 179.635 140.559 176.921 147.29C173.013 146.487 169.696 145.89 167.018 145.225L167.001 145.25ZM229.208 155.463C214.673 152.814 192.595 150.482 180.195 147.908C183.026 140.604 185.092 133.027 186.359 125.297C188.077 124.252 189.706 123.068 191.231 121.757C202.848 133.293 227.175 139.883 242.637 129.795C251.527 137.47 258.732 149.575 259.795 158.563C251.5 159.216 240.972 157.436 229.208 155.463ZM266.642 157.263C265.45 157.667 264.225 157.965 262.981 158.152C261.817 148.467 254.558 136.035 245.278 127.829C247.503 125.899 249.415 123.634 250.943 121.116C258.85 120.563 266.03 113.194 264.251 105.229C264.202 105.019 264.226 104.798 264.321 104.605C264.416 104.411 264.575 104.257 264.771 104.167C273.83 99.9234 273.419 87.3834 264.734 82.7215C264.537 79.9663 263.711 77.2928 262.32 74.9062C284.433 79.2398 280.31 84.7485 276.917 111.627C274.25 124.244 276.1 153.699 266.645 157.237L266.642 157.263Z" fill="#001434"/>
<path d="M203.696 85.8657C207.68 86.1558 211.176 88.1278 212.229 86.5423C213.754 84.1707 207.185 82.4499 203.332 82.6182C200.586 82.7219 199.964 85.5933 203.696 85.8657Z" fill="#001434"/>
<path d="M237.955 92.2192C243.234 92.1194 245.54 95.0436 246.908 93.6176C249.976 90.4714 239.244 87.956 236.941 89.4677C236.639 89.6445 236.409 89.9217 236.292 90.2508C236.174 90.5799 236.176 90.9399 236.296 91.2679C236.417 91.5958 236.65 91.8708 236.953 92.0448C237.256 92.2187 237.611 92.2804 237.955 92.2192Z" fill="#001434"/>
<path d="M209.078 105.692C218.683 99.6266 213.412 85.3083 199 87.3242C193.992 88.0471 191.634 94.4568 192.388 99.1059C193.309 105.987 205.721 107.811 209.078 105.692ZM205.369 90.9904C212.602 91.6675 212.799 100.509 208.357 103.272C207.501 103.695 206.556 103.911 205.601 103.903C204.645 103.894 203.705 103.662 202.856 103.224C204.363 99.3124 205.212 95.1788 205.369 90.9904Z" fill="#001434"/>
<path d="M210.355 112.938C206.838 115.265 213.756 123.073 218.471 118.521C221.964 124.862 232.597 118.292 228.512 115.551C227.138 114.631 226.088 118.04 222.95 117.733C220.495 117.431 221.296 114.3 219.28 113.917C217.263 113.535 217.022 116.467 214.843 116.319C212.663 116.171 212.33 111.587 210.355 112.938Z" fill="#001434"/>
<path d="M233.993 203.077C245.953 204.98 249.873 185.134 235.241 184.47C223.491 184.348 221.17 201.215 233.993 203.077ZM236.399 187.909C243.962 188.841 242.843 200.858 234.534 199.887C235.452 195.946 236.075 191.942 236.399 187.909Z" fill="#001434"/>
<path d="M230.248 184.216C233.277 183.664 234.574 184.012 235.099 183.232C236.927 180.469 231.74 179.83 229.016 181.705C227.596 182.683 227.917 184.639 230.248 184.216Z" fill="#001434"/>
<path d="M218.062 196.315C220.206 197.075 219.965 193.481 221.903 194.175C222.271 194.399 222.711 194.468 223.13 194.37C223.548 194.271 223.911 194.011 224.139 193.647C225.362 191.117 221.236 190.126 219.592 191.291C217.743 192.161 216.289 195.694 218.062 196.315Z" fill="#001434"/>
<path d="M221.267 124.213C217.994 124.56 215.835 124.79 214.108 122.607C213.836 122.278 213.446 122.07 213.021 122.027C212.597 121.984 212.173 122.109 211.84 122.376C211.508 122.644 211.294 123.031 211.245 123.455C211.196 123.879 211.316 124.304 211.579 124.64C213.487 128.078 218.389 128.321 221.294 127.473C223.756 126.744 222.87 124.035 221.267 124.213Z" fill="#001434"/>
<path d="M258.328 174.705C255.84 172.603 252.238 172.146 243.554 171.062C229.341 169.605 204.29 164.105 189.507 165.312C178.42 166.223 174.905 176.912 174.971 196.271C174.994 203.256 172.042 220.031 175.412 223.783C179.867 228.741 202.97 228.52 215.853 231.743C226.413 233.044 247.676 237.314 253.108 233.909C258.424 229.914 257.312 216.109 258.743 207.977C259.652 198.32 265.184 180.723 258.328 174.705ZM256.458 201.397C255.619 206.359 254.938 212.104 254.556 216.828C252.503 213.305 249.875 210.151 246.782 207.494C250.359 206.083 253.641 204.015 256.458 201.397ZM198.782 180.083C200.904 177.008 206.014 178.053 210.669 178.774C210.563 178.991 210.506 179.229 210.503 179.471C210.501 179.712 210.552 179.951 210.653 180.171C210.754 180.39 210.904 180.584 211.089 180.738C211.275 180.892 211.493 181.003 211.727 181.062C215.015 181.682 215.864 184.252 217.558 183.228C218.766 182.452 217.919 180.298 215.541 179.147C218.749 179.21 221.9 178.305 224.585 176.55C228.805 182.43 240.732 178.192 245.354 182.983C248.082 186.615 249.424 207.15 232.063 211.013C221.041 213.461 206.236 210.068 198.721 203.085C193.835 198.476 195.635 183.876 198.782 180.083ZM176.77 214.182C179.761 195.24 174.172 165.244 195.759 168.843C175.607 183.606 177.876 192.596 193.131 202.342C184.54 207.675 179.417 213.691 177.009 218.553C176.683 217.12 176.602 215.642 176.77 214.182ZM189.003 225.07C187.742 219.755 192.447 213.434 196.545 218.241C196.79 218.67 197.127 219.039 197.533 219.321C197.939 219.603 198.403 219.79 198.89 219.87C202.446 219.289 205.887 217.462 209.577 220.142C201.838 224.334 205.942 227.895 211.789 222.532C212.725 224.246 213.181 226.182 213.108 228.135C197.604 225.741 196.95 226.157 189.006 225.044L189.003 225.07ZM251.206 231.397C248.529 233.439 228.451 230.428 216.425 228.624C216.657 226.515 216.321 224.383 215.45 222.448C214.58 220.513 213.207 218.847 211.474 217.622C209.741 216.398 207.712 215.66 205.598 215.485C203.483 215.311 201.361 215.705 199.451 216.629C194.325 209.176 184.257 215.627 185.769 224.564C183.358 224.253 181.058 223.362 179.067 221.969C180.697 217.225 185.84 210.502 195.774 204.597C206.16 215.03 232.157 219.387 243.853 209.183C249.53 214.01 252.431 218.522 254.01 223.648C253.481 227.295 252.728 230.137 251.162 231.324L251.206 231.397Z" fill="#001434"/>
<path d="M207.003 199.387C219.441 199.044 221.003 181.481 206.679 181.029C194.687 180.69 194.174 199.749 207.003 199.387ZM208.041 184.439C217.254 185.803 214.048 197.24 206.298 196.084C207.148 192.248 207.731 188.357 208.041 184.439Z" fill="#001434"/>
<path d="M219.771 207.782C225.088 208.893 227.082 204.569 225.94 202.632C225.419 201.751 221.946 202.421 218.064 201.3C212.579 199.699 214.429 206.654 219.771 207.782Z" fill="#001434"/>
</g>
<defs>
<clipPath id="clip0_775_1191">
<rect width="266" height="266" fill="white" transform="translate(33.3691) rotate(7.02657)"/>
</clipPath>
</defs>
</svg>
