<svg width="80" height="102" viewBox="0 0 80 102" fill="none" xmlns="http://www.w3.org/2000/svg">
<rect x="0.108398" width="79.5313" height="79.5313" rx="19.8828" fill="#5865F2"/>
<g clip-path="url(#clip0_808_1533)">
<path d="M4.78711 39.766C4.78711 20.3878 20.4962 4.67871 39.8744 4.67871C59.2526 4.67871 74.9618 20.3878 74.9618 39.766C74.9618 59.1442 59.2526 74.8534 39.8744 74.8534C20.4962 74.8534 4.78711 59.1442 4.78711 39.766Z" fill="#5865F2"/>
<path d="M56.8966 23.6671C53.7657 22.1863 50.4083 21.0952 46.8979 20.4704C46.834 20.4583 46.7701 20.4885 46.7372 20.5488C46.3054 21.3404 45.8271 22.3732 45.4922 23.1849C41.7165 22.6022 37.9603 22.6022 34.2621 23.1849C33.9271 22.3551 33.4314 21.3404 32.9977 20.5488C32.9648 20.4904 32.9009 20.4603 32.837 20.4704C29.3285 21.0932 25.9712 22.1843 22.8383 23.6671C22.8112 23.6792 22.7879 23.6993 22.7725 23.7254C16.4042 33.5328 14.6597 43.099 15.5155 52.5467C15.5194 52.593 15.5445 52.6372 15.5794 52.6652C19.781 55.846 23.851 57.7769 27.8454 59.0568C27.9093 59.0767 27.977 59.0527 28.0177 58.9983C28.9626 57.6684 29.8049 56.266 30.5271 54.7911C30.5696 54.7047 30.529 54.6022 30.4419 54.568C29.1059 54.0456 27.8338 53.4087 26.6101 52.6853C26.5133 52.6271 26.5055 52.4844 26.5946 52.4161C26.8521 52.2172 27.1097 52.0102 27.3555 51.8012C27.4 51.7631 27.462 51.755 27.5144 51.7791C35.5535 55.5627 44.2569 55.5627 52.2012 51.7791C52.2535 51.753 52.3155 51.7611 52.3619 51.7992C52.6079 52.0082 52.8654 52.2172 53.1248 52.4161C53.2138 52.4844 53.208 52.6271 53.1113 52.6853C51.8875 53.4227 50.6154 54.0456 49.2775 54.566C49.1904 54.6002 49.1517 54.7047 49.1943 54.7911C49.9319 56.2638 50.7742 57.6664 51.7016 58.9966C51.7404 59.0527 51.8101 59.0767 51.874 59.0568C55.8878 57.7769 59.9576 55.846 64.1593 52.6652C64.1962 52.6372 64.2196 52.5949 64.2231 52.5487C65.2476 41.6262 62.5079 32.1383 56.9605 23.7274C56.9469 23.6993 56.9237 23.6792 56.8966 23.6671ZM31.7276 46.7941C29.3072 46.7941 27.313 44.5035 27.313 41.6905C27.313 38.8775 29.2685 36.5869 31.7276 36.5869C34.2059 36.5869 36.1809 38.8976 36.1422 41.6905C36.1422 44.5035 34.1865 46.7941 31.7276 46.7941ZM48.0499 46.7941C45.6297 46.7941 43.6353 44.5035 43.6353 41.6905C43.6353 38.8775 45.5909 36.5869 48.0499 36.5869C50.5283 36.5869 52.5033 38.8976 52.4645 41.6905C52.4645 44.5035 50.5283 46.7941 48.0499 46.7941Z" fill="white"/>
<path d="M39.874 70.1747C23.0796 70.1747 9.46502 56.5601 9.46502 39.7656H0.108398C0.108398 61.7274 17.9121 79.5313 39.874 79.5313V70.1747ZM70.2831 39.7656C70.2831 56.5601 56.6685 70.1747 39.874 70.1747V79.5313C61.8358 79.5313 79.6397 61.7274 79.6397 39.7656H70.2831ZM39.874 9.35662C56.6685 9.35662 70.2831 22.9712 70.2831 39.7656H79.6397C79.6397 17.8037 61.8358 0 39.874 0V9.35662ZM39.874 0C17.9121 0 0.108398 17.8037 0.108398 39.7656H9.46502C9.46502 22.9712 23.0796 9.35662 39.874 9.35662V0Z" fill="#5865F2"/>
</g>
<path d="M15.4515 97.2471V86.2808H18.4395C19.5215 86.2808 20.4417 86.4476 21.2001 86.7813C21.9686 87.115 22.5854 87.5549 23.0505 88.1009C23.5157 88.6469 23.8544 89.2537 24.0668 89.921C24.2892 90.5783 24.4005 91.2356 24.4005 91.8928C24.4005 92.722 24.2538 93.4652 23.9606 94.1225C23.6775 94.7798 23.2831 95.341 22.7775 95.8061C22.2719 96.2713 21.6905 96.6302 21.0332 96.883C20.3861 97.1257 19.6984 97.2471 18.9704 97.2471H15.4515ZM16.9227 95.8365H18.6822C19.2889 95.8365 19.8451 95.7455 20.3507 95.5634C20.8664 95.3814 21.3113 95.1185 21.6854 94.7747C22.0697 94.4309 22.368 94.0113 22.5803 93.5158C22.7927 93.0102 22.8988 92.4389 22.8988 91.8018C22.8988 91.1243 22.7876 90.5328 22.5652 90.0272C22.3427 89.5115 22.0393 89.0818 21.6551 88.738C21.2708 88.3942 20.836 88.1363 20.3507 87.9644C19.8653 87.7824 19.3546 87.6914 18.8187 87.6914H16.9227V95.8365ZM26.5229 90.9676H27.9335V97.2471H26.5229V90.9676ZM26.4167 88.6925C26.4167 88.47 26.5026 88.2829 26.6745 88.1312C26.8566 87.9796 27.0537 87.9037 27.2661 87.9037C27.4784 87.9037 27.6655 87.9796 27.8273 88.1312C27.9992 88.2829 28.0852 88.47 28.0852 88.6925C28.0852 88.925 27.9992 89.1171 27.8273 89.2688C27.6655 89.4104 27.4784 89.4812 27.2661 89.4812C27.0537 89.4812 26.8566 89.4053 26.6745 89.2537C26.5026 89.102 26.4167 88.9149 26.4167 88.6925ZM32.1335 97.3684C31.6886 97.3684 31.2538 97.2926 30.8291 97.1409C30.4145 96.9791 30.0707 96.7415 29.7977 96.428L30.3892 95.609C30.6521 95.8617 30.9201 96.0539 31.1931 96.1853C31.4763 96.3067 31.7543 96.3673 32.0273 96.3673C32.2296 96.3673 32.4167 96.3421 32.5886 96.2915C32.7605 96.2409 32.897 96.16 32.9981 96.0488C33.1093 95.9275 33.1649 95.7657 33.1649 95.5634C33.1649 95.341 33.0891 95.164 32.9374 95.0326C32.7958 94.9011 32.6088 94.7949 32.3762 94.7141C32.1537 94.6332 31.9161 94.5573 31.6633 94.4865C31.1476 94.3146 30.7533 94.077 30.4802 93.7737C30.2072 93.4703 30.0707 93.1012 30.0707 92.6664C30.0707 92.3327 30.1516 92.0243 30.3134 91.7412C30.4853 91.4479 30.733 91.2103 31.0566 91.0283C31.3903 90.8463 31.7998 90.7553 32.2852 90.7553C32.72 90.7553 33.1093 90.8109 33.4531 90.9221C33.7969 91.0232 34.1205 91.1951 34.4239 91.4378L33.8626 92.3175C33.6806 92.1254 33.4632 91.9839 33.2104 91.8928C32.9576 91.8018 32.7301 91.7513 32.5279 91.7412C32.356 91.7311 32.1891 91.7563 32.0273 91.817C31.8757 91.8777 31.7493 91.9636 31.6482 92.0749C31.547 92.1861 31.4965 92.3175 31.4965 92.4692C31.4965 92.6816 31.5673 92.8535 31.7088 92.9849C31.8504 93.1164 32.0324 93.2226 32.2549 93.3035C32.4874 93.3742 32.715 93.4501 32.9374 93.531C33.2509 93.622 33.529 93.7433 33.7716 93.895C34.0143 94.0467 34.2065 94.2337 34.348 94.4562C34.4997 94.6787 34.5755 94.9567 34.5755 95.2904C34.5755 95.6646 34.4845 96.0134 34.3025 96.337C34.1306 96.6505 33.8626 96.9033 33.4986 97.0954C33.1447 97.2774 32.6897 97.3684 32.1335 97.3684ZM41.6471 96.6707C41.364 96.8932 41.0253 97.0701 40.6309 97.2016C40.2365 97.333 39.8422 97.3987 39.4478 97.3987C38.7602 97.3987 38.1586 97.2622 37.6429 96.9892C37.1272 96.7162 36.7227 96.337 36.4294 95.8516C36.1463 95.3562 36.0047 94.7747 36.0047 94.1073C36.0047 93.44 36.1564 92.8585 36.4598 92.363C36.7732 91.8676 37.1777 91.4884 37.6732 91.2255C38.1788 90.9524 38.7198 90.8159 39.2961 90.8159C39.8017 90.8159 40.2517 90.8867 40.6461 91.0283C41.0505 91.1699 41.3944 91.362 41.6775 91.6047L40.9798 92.5147C40.7978 92.3732 40.5753 92.2468 40.3124 92.1355C40.0495 92.0243 39.7512 91.9687 39.4175 91.9687C39.0535 91.9687 38.7147 92.0648 38.4012 92.2569C38.0979 92.4389 37.8552 92.6917 37.6732 93.0153C37.5013 93.3388 37.4153 93.7029 37.4153 94.1073C37.4153 94.4916 37.5063 94.8506 37.6884 95.1843C37.8704 95.5078 38.1232 95.7657 38.4467 95.9578C38.7703 96.1398 39.1394 96.2308 39.554 96.2308C39.827 96.2308 40.0748 96.1904 40.2972 96.1095C40.5298 96.0286 40.7371 95.9174 40.9191 95.7758L41.6471 96.6707ZM42.9221 94.0467C42.9221 93.4197 43.0687 92.8535 43.3619 92.3479C43.6653 91.8423 44.0799 91.4429 44.6057 91.1496C45.1315 90.8564 45.7281 90.7098 46.3955 90.7098C47.0831 90.7098 47.6847 90.8564 48.2005 91.1496C48.7162 91.4429 49.1156 91.8423 49.3987 92.3479C49.6818 92.8535 49.8234 93.4197 49.8234 94.0467C49.8234 94.6736 49.6818 95.2449 49.3987 95.7606C49.1156 96.2662 48.7111 96.6656 48.1853 96.9589C47.6696 97.2521 47.0679 97.3987 46.3803 97.3987C45.7129 97.3987 45.1163 97.2622 44.5905 96.9892C44.0748 96.7061 43.6653 96.3168 43.3619 95.8213C43.0687 95.3157 42.9221 94.7242 42.9221 94.0467ZM44.3327 94.0618C44.3327 94.4663 44.4237 94.8354 44.6057 95.1691C44.7877 95.4927 45.0304 95.7505 45.3337 95.9426C45.6472 96.1348 45.991 96.2308 46.3652 96.2308C46.7595 96.2308 47.1084 96.1348 47.4117 95.9426C47.7252 95.7505 47.9679 95.4927 48.1398 95.1691C48.3117 94.8354 48.3976 94.4663 48.3976 94.0618C48.3976 93.6574 48.3117 93.2933 48.1398 92.9698C47.9679 92.6361 47.7252 92.3732 47.4117 92.181C47.1084 91.9788 46.7595 91.8777 46.3652 91.8777C45.9809 91.8777 45.632 91.9788 45.3186 92.181C45.0152 92.3833 44.7725 92.6512 44.5905 92.9849C44.4186 93.3085 44.3327 93.6675 44.3327 94.0618ZM52.9923 90.9676L53.1288 92.7877L53.0529 92.5451C53.2147 92.1608 53.4473 91.8372 53.7507 91.5743C54.0641 91.3013 54.3877 91.094 54.7214 90.9524C55.0652 90.8008 55.3635 90.7249 55.6163 90.7249L55.5405 92.1204C55.0652 92.09 54.6456 92.181 54.2815 92.3934C53.9276 92.6057 53.6445 92.8889 53.4321 93.2428C53.2299 93.5967 53.1288 93.9759 53.1288 94.3804V97.2471H51.7334V90.9676H52.9923ZM59.7176 97.3987C59.1413 97.3987 58.6155 97.2622 58.1402 96.9892C57.675 96.7061 57.306 96.3117 57.0329 95.8061C56.7599 95.2904 56.6234 94.6989 56.6234 94.0315C56.6234 93.3338 56.765 92.7372 57.0481 92.2417C57.3414 91.7462 57.7357 91.367 58.2312 91.1041C58.7267 90.8412 59.2828 90.7098 59.8997 90.7098C60.3951 90.7098 60.8653 90.8159 61.3103 91.0283C61.7653 91.2406 62.1192 91.5339 62.372 91.908L62.3113 92.4086V85.5072H63.7068V97.2471H62.2962V95.6848L62.4478 96.0792C62.1546 96.4634 61.7754 96.7819 61.3103 97.0347C60.8451 97.2774 60.3142 97.3987 59.7176 97.3987ZM60.1575 96.2005C60.5316 96.2005 60.8653 96.1348 61.1586 96.0033C61.4518 95.8617 61.6945 95.6696 61.8866 95.4269C62.0788 95.1843 62.2153 94.8961 62.2962 94.5624V93.3793C62.2153 93.0759 62.0686 92.813 61.8563 92.5906C61.6541 92.358 61.4063 92.176 61.1131 92.0445C60.8299 91.903 60.5114 91.8322 60.1575 91.8322C59.7733 91.8322 59.4193 91.9282 59.0958 92.1204C58.7823 92.3024 58.5295 92.5552 58.3374 92.8788C58.1453 93.2023 58.0492 93.5765 58.0492 94.0012C58.0492 94.4158 58.1453 94.7899 58.3374 95.1236C58.5295 95.4472 58.7874 95.7101 59.1109 95.9123C59.4345 96.1044 59.7834 96.2005 60.1575 96.2005Z" fill="white"/>
<defs>
<clipPath id="clip0_808_1533">
<rect width="79.5313" height="79.5313" fill="white" transform="translate(0.108398)"/>
</clipPath>
</defs>
</svg>
