<svg width="80" height="104" viewBox="0 0 80 104" fill="none" xmlns="http://www.w3.org/2000/svg">
<path fill-rule="evenodd" clip-rule="evenodd" d="M60.5804 0.429688C72.0752 0.429688 79.5313 7.88575 79.5313 19.3805V61.0101C79.5313 72.5049 72.0752 79.961 60.5804 79.961H18.9508C7.45606 79.961 0 72.5049 0 61.0101L0 19.3805C0 7.88575 7.45606 0.429688 18.9508 0.429688L60.5804 0.429688Z" fill="#252525"/>
<path d="M39.762 14.3477C25.1249 14.3477 13.2549 26.2641 13.2549 40.9641C13.2489 46.543 14.9963 51.9828 18.2502 56.5146C21.5041 61.0463 26.0999 64.4409 31.388 66.2186C32.7135 66.4638 33.1974 65.642 33.1974 64.9361C33.1974 64.3032 33.1742 62.6297 33.1609 60.4095C25.7877 62.0167 24.2302 56.8405 24.2302 56.8405C23.0273 53.7653 21.2876 52.9468 21.2876 52.9468C18.8784 51.2965 21.4665 51.3297 21.4665 51.3297C24.1275 51.5186 25.5259 54.0735 25.5259 54.0735C27.892 58.1395 31.7327 56.9665 33.2437 56.2838C33.4823 54.5639 34.1683 53.3909 34.9272 52.7248C29.0418 52.0521 22.8517 49.7689 22.8517 39.5723C22.8517 36.6661 23.8856 34.2901 25.5822 32.4278C25.3072 31.7551 24.3992 29.0477 25.8407 25.3859C25.8407 25.3859 28.0676 24.6701 33.1311 28.1132C35.2942 27.522 37.5262 27.2212 39.7686 27.2185C42.0111 27.2229 44.2431 27.5249 46.4062 28.1165C51.4663 24.6735 53.6899 25.3892 53.6899 25.3892C55.1347 29.0543 54.2267 31.7584 53.955 32.4311C55.655 34.2934 56.679 36.6694 56.679 39.5756C56.679 49.7987 50.4821 52.0488 44.5769 52.7082C45.528 53.53 46.3763 55.1538 46.3763 57.6358C46.3763 61.1949 46.3432 64.0646 46.3432 64.9361C46.3432 65.6486 46.8204 66.4771 48.1658 66.2153C53.4488 64.4334 58.0389 61.0375 61.2882 56.5068C64.5376 51.9762 66.2821 46.5395 66.2757 40.9641C66.2757 26.2641 54.4057 14.3477 39.762 14.3477Z" fill="white"/>
<path d="M24.0833 98.1407C23.9316 98.2721 23.7193 98.4036 23.4463 98.535C23.1732 98.6564 22.8699 98.7676 22.5362 98.8687C22.2126 98.9698 21.8739 99.0507 21.5199 99.1114C21.1761 99.1721 20.8526 99.2024 20.5492 99.2024C19.6695 99.2024 18.8757 99.0659 18.1679 98.7929C17.4702 98.5198 16.8685 98.1407 16.3629 97.6553C15.8674 97.1699 15.4832 96.5986 15.2102 95.9413C14.9473 95.2841 14.8158 94.5712 14.8158 93.8027C14.8158 92.8926 14.9624 92.0786 15.2557 91.3607C15.559 90.6326 15.9685 90.0208 16.4843 89.5254C17.0101 89.0198 17.6117 88.6406 18.2892 88.3878C18.9667 88.1249 19.6846 87.9934 20.443 87.9934C21.0801 87.9934 21.6716 88.0693 22.2177 88.2209C22.7637 88.3726 23.244 88.5647 23.6586 88.7973L23.1581 90.1472C22.9558 90.0259 22.703 89.9147 22.3997 89.8136C22.1064 89.7124 21.8031 89.6315 21.4896 89.5709C21.1761 89.5001 20.8829 89.4647 20.6099 89.4647C19.9627 89.4647 19.3762 89.5658 18.8504 89.768C18.3246 89.9602 17.8746 90.2433 17.5005 90.6174C17.1264 90.9815 16.8382 91.4264 16.6359 91.9522C16.4337 92.4679 16.3326 93.0493 16.3326 93.6965C16.3326 94.2931 16.4337 94.8391 16.6359 95.3346C16.8382 95.8301 17.1264 96.2599 17.5005 96.6239C17.8746 96.9778 18.3195 97.2559 18.8353 97.4581C19.3611 97.6502 19.9374 97.7463 20.5644 97.7463C20.9385 97.7463 21.3076 97.7109 21.6716 97.6401C22.0357 97.5592 22.3491 97.448 22.612 97.3064V95.1223H20.4279V93.7117H24.0833V98.1407ZM26.5401 92.8016H27.9507V99.0811H26.5401V92.8016ZM26.4339 90.5264C26.4339 90.304 26.5199 90.1169 26.6918 89.9652C26.8738 89.8136 27.071 89.7377 27.2833 89.7377C27.4957 89.7377 27.6828 89.8136 27.8446 89.9652C28.0165 90.1169 28.1024 90.304 28.1024 90.5264C28.1024 90.759 28.0165 90.9511 27.8446 91.1028C27.6828 91.2444 27.4957 91.3152 27.2833 91.3152C27.071 91.3152 26.8738 91.2393 26.6918 91.0876C26.5199 90.936 26.4339 90.7489 26.4339 90.5264ZM30.998 90.0411H32.4086V92.8319H34.1378V93.9392H32.4086V99.0811H30.998V93.9392H29.8453V92.8319H30.998V90.0411ZM44.867 88.1148V99.0811H43.4109V94.2729H37.6624V99.0811H36.1911V88.1148H37.6624V92.8774H43.4109V88.1148H44.867ZM49.6642 99.3237C49.0979 99.3237 48.6277 99.1518 48.2536 98.808C47.8896 98.4541 47.6975 97.9991 47.6772 97.4429V92.8016H49.0878V96.9424C49.1081 97.2862 49.2041 97.5643 49.376 97.7766C49.558 97.989 49.8412 98.1002 50.2254 98.1103C50.5793 98.1103 50.8928 98.0092 51.1658 97.807C51.4489 97.5946 51.6765 97.3115 51.8484 96.9576C52.0203 96.5935 52.1062 96.184 52.1062 95.729V92.8016H53.5168V99.0811H52.2276L52.1062 97.5339L52.1821 97.807C52.0607 98.1002 51.8736 98.3631 51.6209 98.5957C51.3782 98.8181 51.09 98.9951 50.7563 99.1266C50.4226 99.258 50.0586 99.3237 49.6642 99.3237ZM59.7796 99.2327C59.2032 99.2327 58.6925 99.1063 58.2476 98.8535C57.8128 98.6007 57.464 98.2822 57.201 97.898L57.3679 97.4581V99.0811H55.9573V87.3412H57.3527V94.2425L57.3072 93.7117C57.56 93.3679 57.919 93.0898 58.3841 92.8774C58.8594 92.655 59.3852 92.5437 59.9616 92.5437C60.5278 92.5437 61.0435 92.6803 61.5087 92.9533C61.9738 93.2263 62.3429 93.6105 62.6159 94.106C62.8991 94.5914 63.0406 95.1728 63.0406 95.8503C63.0406 96.5581 62.889 97.1649 62.5856 97.6705C62.2924 98.176 61.898 98.5654 61.4025 98.8384C60.907 99.1013 60.3661 99.2327 59.7796 99.2327ZM59.4914 98.0345C59.8959 98.0345 60.2599 97.9384 60.5835 97.7463C60.907 97.5542 61.1598 97.2963 61.3418 96.9727C61.5239 96.639 61.6149 96.2599 61.6149 95.8352C61.6149 95.4307 61.5188 95.0667 61.3267 94.7431C61.1447 94.4094 60.8919 94.1465 60.5683 93.9544C60.2548 93.7622 59.8959 93.6662 59.4914 93.6662C59.1476 93.6662 58.8291 93.7319 58.5358 93.8633C58.2426 93.9948 57.9948 94.1768 57.7926 94.4094C57.5904 94.6318 57.4488 94.8948 57.3679 95.1981V96.457C57.4488 96.7604 57.5853 97.0334 57.7774 97.2761C57.9695 97.5087 58.2122 97.6957 58.5055 97.8373C58.7987 97.9688 59.1274 98.0345 59.4914 98.0345Z" fill="white"/>
</svg>
