<svg width="81" height="102" viewBox="0 0 81 102" fill="none" xmlns="http://www.w3.org/2000/svg">
<path fill-rule="evenodd" clip-rule="evenodd" d="M61.1039 0.244141C72.5987 0.244141 80.0547 7.7002 80.0547 19.195V60.8246C80.0547 72.3194 72.5987 79.7754 61.1039 79.7754H19.4743C7.9795 79.7754 0.523437 72.3194 0.523437 60.8246L0.523437 19.195C0.523437 7.7002 7.9795 0.244141 19.4743 0.244141L61.1039 0.244141Z" fill="url(#paint0_linear_808_1503)"/>
<mask id="mask0_808_1503" style="mask-type:alpha" maskUnits="userSpaceOnUse" x="0" y="0" width="81" height="80">
<path fill-rule="evenodd" clip-rule="evenodd" d="M61.1039 0.244141C72.5987 0.244141 80.0547 7.7002 80.0547 19.195V60.8246C80.0547 72.3194 72.5987 79.7754 61.1039 79.7754H19.4743C7.9795 79.7754 0.523437 72.3194 0.523437 60.8246L0.523437 19.195C0.523437 7.7002 7.9795 0.244141 19.4743 0.244141L61.1039 0.244141Z" fill="white"/>
</mask>
<g mask="url(#mask0_808_1503)">
<path fill-rule="evenodd" clip-rule="evenodd" d="M24.523 116.59C55.4928 116.59 80.5986 91.4841 80.5986 60.5142C80.5986 29.5444 55.4928 4.43848 24.523 4.43848C-6.44677 4.43848 -31.5527 29.5444 -31.5527 60.5142C-31.5527 91.4841 -6.44677 116.59 24.523 116.59Z" fill="url(#paint1_radial_808_1503)"/>
</g>
<g filter="url(#filter0_d_808_1503)">
<path fill-rule="evenodd" clip-rule="evenodd" d="M27.8626 16.4767C21.5571 16.4767 16.4455 21.5883 16.4455 27.8938V52.5921C16.4455 58.8975 21.5571 64.0091 27.8626 64.0091H52.8714C59.1769 64.0091 64.2885 58.8975 64.2885 52.5921V27.8938C64.2885 21.5883 59.1769 16.4767 52.8714 16.4767H27.8626ZM11.0088 27.8938C11.0088 18.5857 18.5545 11.04 27.8626 11.04H52.8714C62.1795 11.04 69.7252 18.5857 69.7252 27.8938V52.5921C69.7252 61.9001 62.1795 69.4458 52.8714 69.4458H27.8626C18.5545 69.4458 11.0088 61.9001 11.0088 52.5921V27.8938Z" fill="white"/>
</g>
<g filter="url(#filter1_d_808_1503)">
<path fill-rule="evenodd" clip-rule="evenodd" d="M24.9883 40.4763C24.9883 31.9403 31.9081 25.0205 40.4441 25.0205C48.9801 25.0205 55.8999 31.9403 55.8999 40.4763C55.8999 49.0122 48.9801 55.9321 40.4441 55.9321C31.9081 55.9321 24.9883 49.0122 24.9883 40.4763ZM40.4441 30.4572C34.9107 30.4572 30.425 34.9429 30.425 40.4763C30.425 46.0096 34.9107 50.4954 40.4441 50.4954C45.9775 50.4954 50.4631 46.0096 50.4631 40.4763C50.4631 34.9429 45.9775 30.4572 40.4441 30.4572Z" fill="white"/>
</g>
<g filter="url(#filter2_d_808_1503)">
<path fill-rule="evenodd" clip-rule="evenodd" d="M56.0552 28.3594C58.1141 28.3594 59.7832 26.6903 59.7832 24.6314C59.7832 22.5724 58.1141 20.9033 56.0552 20.9033C53.9962 20.9033 52.3271 22.5724 52.3271 24.6314C52.3271 26.6903 53.9962 28.3594 56.0552 28.3594Z" fill="white"/>
</g>
<path d="M6.86651 86.5249H8.33778V97.4912H6.86651V86.5249ZM12.398 91.2118L12.5193 92.7437L12.4587 92.501C12.6609 92.0359 12.9895 91.6668 13.4446 91.3938C13.8996 91.1106 14.4254 90.9691 15.022 90.9691C15.6186 90.9691 16.104 91.146 16.4781 91.4999C16.8624 91.8437 17.0596 92.2937 17.0697 92.8499V97.4912H15.6439V93.3504C15.6338 93.0066 15.5327 92.7285 15.3406 92.5162C15.1585 92.2937 14.8703 92.1825 14.476 92.1825C14.112 92.1825 13.7833 92.2836 13.4901 92.4858C13.1968 92.6881 12.9643 92.9662 12.7924 93.3201C12.6306 93.674 12.5497 94.0835 12.5497 94.5487V97.4912H11.1391V91.2118H12.398ZM21.2823 97.6126C20.8374 97.6126 20.4026 97.5367 19.9779 97.385C19.5633 97.2232 19.2195 96.9856 18.9464 96.6722L19.538 95.8531C19.8009 96.1059 20.0689 96.298 20.3419 96.4295C20.625 96.5508 20.9031 96.6115 21.1761 96.6115C21.3783 96.6115 21.5654 96.5862 21.7373 96.5356C21.9092 96.4851 22.0457 96.4042 22.1468 96.293C22.2581 96.1716 22.3137 96.0098 22.3137 95.8076C22.3137 95.5851 22.2379 95.4082 22.0862 95.2767C21.9446 95.1453 21.7575 95.0391 21.525 94.9582C21.3025 94.8773 21.0649 94.8015 20.8121 94.7307C20.2964 94.5588 19.902 94.3211 19.629 94.0178C19.356 93.7144 19.2195 93.3454 19.2195 92.9105C19.2195 92.5769 19.3004 92.2684 19.4622 91.9853C19.6341 91.6921 19.8818 91.4544 20.2054 91.2724C20.5391 91.0904 20.9486 90.9994 21.434 90.9994C21.8688 90.9994 22.2581 91.055 22.6019 91.1663C22.9457 91.2674 23.2693 91.4393 23.5726 91.682L23.0114 92.5617C22.8294 92.3696 22.612 92.228 22.3592 92.137C22.1064 92.046 21.8789 91.9954 21.6766 91.9853C21.5047 91.9752 21.3379 92.0005 21.1761 92.0612C21.0244 92.1218 20.898 92.2078 20.7969 92.319C20.6958 92.4302 20.6452 92.5617 20.6452 92.7134C20.6452 92.9257 20.716 93.0976 20.8576 93.2291C20.9992 93.3605 21.1812 93.4667 21.4036 93.5476C21.6362 93.6184 21.8637 93.6942 22.0862 93.7751C22.3996 93.8661 22.6777 93.9875 22.9204 94.1391C23.1631 94.2908 23.3552 94.4779 23.4968 94.7003C23.6485 94.9228 23.7243 95.2009 23.7243 95.5346C23.7243 95.9087 23.6333 96.2576 23.4513 96.5811C23.2794 96.8946 23.0114 97.1474 22.6474 97.3395C22.2935 97.5215 21.8384 97.6126 21.2823 97.6126ZM26.3063 88.4512H27.7169V91.2421H29.446V92.3493H27.7169V97.4912H26.3063V92.3493H25.1535V91.2421H26.3063V88.4512ZM33.7593 97.6429C33.1728 97.6429 32.6369 97.5165 32.1515 97.2637C31.6763 97.0109 31.2971 96.6418 31.0139 96.1564C30.7409 95.661 30.6044 95.0593 30.6044 94.3515C30.6044 93.6538 30.751 93.0521 31.0443 92.5465C31.3375 92.0308 31.7268 91.6365 32.2122 91.3634C32.7077 91.0904 33.2487 90.9539 33.8351 90.9539C34.4216 90.9539 34.9171 91.0904 35.3216 91.3634C35.7261 91.6263 36.0345 91.9398 36.2468 92.3038L36.1558 92.5465L36.2923 91.2118H37.5968V97.4912H36.1862V95.8531L36.3378 96.2171C36.2974 96.3182 36.2064 96.4497 36.0648 96.6115C35.9334 96.7632 35.7513 96.9199 35.5188 97.0817C35.2963 97.2435 35.0385 97.38 34.7452 97.4912C34.452 97.5923 34.1233 97.6429 33.7593 97.6429ZM34.1385 96.475C34.4924 96.475 34.8109 96.4092 35.0941 96.2778C35.3772 96.1463 35.6098 95.9643 35.7918 95.7318C35.9839 95.4891 36.1154 95.2009 36.1862 94.8672V93.6386C36.1053 93.3352 35.9637 93.0723 35.7615 92.8499C35.5592 92.6173 35.3165 92.4403 35.0334 92.319C34.7503 92.1875 34.4368 92.1218 34.093 92.1218C33.7189 92.1218 33.3751 92.2128 33.0616 92.3948C32.7481 92.5769 32.4953 92.8297 32.3032 93.1532C32.1212 93.4768 32.0302 93.856 32.0302 94.2908C32.0302 94.6953 32.1262 95.0644 32.3184 95.3981C32.5105 95.7318 32.7683 95.9947 33.0919 96.1868C33.4155 96.3789 33.7644 96.475 34.1385 96.475ZM43.0562 100.601C42.5911 100.601 42.1815 100.545 41.8276 100.434C41.4737 100.333 41.1501 100.186 40.8569 99.9939C40.5737 99.8018 40.3007 99.5844 40.0378 99.3417L40.8569 98.3861C41.1906 98.6996 41.5293 98.9423 41.8731 99.1142C42.2169 99.2861 42.6012 99.372 43.0259 99.372C43.5011 99.372 43.9005 99.2911 44.2241 99.1293C44.5578 98.9777 44.8106 98.7602 44.9825 98.4771C45.1544 98.2041 45.2404 97.8856 45.2404 97.5215L45.2555 95.8228L45.3769 96.0958C45.1949 96.5306 44.8662 96.8997 44.391 97.203C43.9157 97.4963 43.3393 97.6429 42.6618 97.6429C42.0855 97.6429 41.5546 97.4963 41.0692 97.203C40.594 96.9098 40.2097 96.5154 39.9165 96.0199C39.6333 95.5143 39.4918 94.9481 39.4918 94.3211C39.4918 93.6639 39.6435 93.0875 39.9468 92.592C40.2502 92.0864 40.6496 91.687 41.1451 91.3938C41.6405 91.1005 42.1815 90.9539 42.768 90.9539C43.3242 90.9539 43.8298 91.0702 44.2848 91.3028C44.7499 91.5252 45.0887 91.8134 45.301 92.1673L45.2252 92.4252L45.3769 91.2118H46.6661V97.5367C46.6661 98.103 46.5195 98.6187 46.2263 99.0838C45.933 99.549 45.5184 99.9181 44.9825 100.191C44.4466 100.464 43.8045 100.601 43.0562 100.601ZM40.9024 94.2908C40.9024 94.6953 40.9984 95.0644 41.1906 95.3981C41.3827 95.7318 41.6405 95.9947 41.9641 96.1868C42.2978 96.3789 42.6669 96.475 43.0714 96.475C43.4455 96.475 43.7792 96.4092 44.0724 96.2778C44.3758 96.1362 44.6286 95.9492 44.8308 95.7166C45.0331 95.4739 45.1746 95.1958 45.2555 94.8824V93.6386C45.1645 93.3352 45.0128 93.0723 44.8005 92.8499C44.5881 92.6173 44.3353 92.4403 44.0421 92.319C43.7489 92.1875 43.4253 92.1218 43.0714 92.1218C42.6669 92.1218 42.2978 92.2128 41.9641 92.3948C41.6405 92.5769 41.3827 92.8347 41.1906 93.1684C40.9984 93.492 40.9024 93.8661 40.9024 94.2908ZM50.3618 91.2118L50.4984 93.0319L50.4225 92.7892C50.5843 92.405 50.8169 92.0814 51.1202 91.8185C51.4337 91.5454 51.7573 91.3382 52.091 91.1966C52.4348 91.0449 52.7331 90.9691 52.9859 90.9691L52.91 92.3645C52.4348 92.3342 52.0151 92.4252 51.6511 92.6375C51.2972 92.8499 51.0141 93.133 50.8017 93.4869C50.5995 93.8408 50.4984 94.22 50.4984 94.6245V97.4912H49.1029V91.2118H50.3618ZM57.2664 97.6429C56.6799 97.6429 56.144 97.5165 55.6586 97.2637C55.1833 97.0109 54.8042 96.6418 54.521 96.1564C54.248 95.661 54.1115 95.0593 54.1115 94.3515C54.1115 93.6538 54.2581 93.0521 54.5514 92.5465C54.8446 92.0308 55.2339 91.6365 55.7193 91.3634C56.2148 91.0904 56.7557 90.9539 57.3422 90.9539C57.9287 90.9539 58.4242 91.0904 58.8287 91.3634C59.2331 91.6263 59.5415 91.9398 59.7539 92.3038L59.6629 92.5465L59.7994 91.2118H61.1038V97.4912H59.6932V95.8531L59.8449 96.2171C59.8045 96.3182 59.7135 96.4497 59.5719 96.6115C59.4404 96.7632 59.2584 96.9199 59.0258 97.0817C58.8034 97.2435 58.5455 97.38 58.2523 97.4912C57.959 97.5923 57.6304 97.6429 57.2664 97.6429ZM57.6456 96.475C57.9995 96.475 58.318 96.4092 58.6011 96.2778C58.8843 96.1463 59.1169 95.9643 59.2989 95.7318C59.491 95.4891 59.6224 95.2009 59.6932 94.8672V93.6386C59.6123 93.3352 59.4708 93.0723 59.2685 92.8499C59.0663 92.6173 58.8236 92.4403 58.5405 92.319C58.2573 92.1875 57.9439 92.1218 57.6001 92.1218C57.2259 92.1218 56.8821 92.2128 56.5687 92.3948C56.2552 92.5769 56.0024 92.8297 55.8103 93.1532C55.6283 93.4768 55.5373 93.856 55.5373 94.2908C55.5373 94.6953 55.6333 95.0644 55.8254 95.3981C56.0176 95.7318 56.2754 95.9947 56.599 96.1868C56.9226 96.3789 57.2714 96.475 57.6456 96.475ZM64.8038 91.2118L64.9252 92.6224L64.8645 92.501C65.0971 92.0258 65.4257 91.6516 65.8504 91.3786C66.2852 91.1056 66.7807 90.9691 67.3368 90.9691C67.6907 90.9691 68.0042 91.0247 68.2772 91.1359C68.5503 91.2471 68.7727 91.4089 68.9446 91.6213C69.1266 91.8235 69.2429 92.0763 69.2935 92.3797L69.2176 92.4252C69.4603 91.9701 69.794 91.6162 70.2187 91.3634C70.6535 91.1005 71.1085 90.9691 71.5838 90.9691C72.2006 90.9691 72.686 91.146 73.0399 91.4999C73.4039 91.8437 73.591 92.2937 73.6011 92.8499V97.4912H72.1905V93.3504C72.1804 93.0268 72.0995 92.7589 71.9478 92.5465C71.8063 92.3241 71.5535 92.2027 71.1894 92.1825C70.8254 92.1825 70.4968 92.2937 70.2035 92.5162C69.9204 92.7386 69.6979 93.0268 69.5362 93.3807C69.3744 93.7245 69.2884 94.0987 69.2783 94.5032V97.4912H67.8677V93.3504C67.8576 93.0268 67.7716 92.7589 67.6098 92.5465C67.4582 92.3241 67.2003 92.2027 66.8363 92.1825C66.4622 92.1825 66.1335 92.2937 65.8504 92.5162C65.5673 92.7386 65.3448 93.0268 65.183 93.3807C65.0313 93.7347 64.9555 94.1139 64.9555 94.5183V97.4912H63.5449V91.2118H64.8038Z" fill="white"/>
<defs>
<filter id="filter0_d_808_1503" x="9.02051" y="9.05176" width="62.6934" height="62.3828" filterUnits="userSpaceOnUse" color-interpolation-filters="sRGB">
<feFlood flood-opacity="0" result="BackgroundImageFix"/>
<feColorMatrix in="SourceAlpha" type="matrix" values="0 0 0 0 0 0 0 0 0 0 0 0 0 0 0 0 0 0 127 0" result="hardAlpha"/>
<feOffset/>
<feGaussianBlur stdDeviation="0.994141"/>
<feColorMatrix type="matrix" values="0 0 0 0 0 0 0 0 0 0 0 0 0 0 0 0 0 0 0.130633 0"/>
<feBlend mode="normal" in2="BackgroundImageFix" result="effect1_dropShadow_808_1503"/>
<feBlend mode="normal" in="SourceGraphic" in2="effect1_dropShadow_808_1503" result="shape"/>
</filter>
<filter id="filter1_d_808_1503" x="23" y="23.0322" width="34.8877" height="34.8877" filterUnits="userSpaceOnUse" color-interpolation-filters="sRGB">
<feFlood flood-opacity="0" result="BackgroundImageFix"/>
<feColorMatrix in="SourceAlpha" type="matrix" values="0 0 0 0 0 0 0 0 0 0 0 0 0 0 0 0 0 0 127 0" result="hardAlpha"/>
<feOffset/>
<feGaussianBlur stdDeviation="0.994141"/>
<feColorMatrix type="matrix" values="0 0 0 0 0 0 0 0 0 0 0 0 0 0 0 0 0 0 0.130633 0"/>
<feBlend mode="normal" in2="BackgroundImageFix" result="effect1_dropShadow_808_1503"/>
<feBlend mode="normal" in="SourceGraphic" in2="effect1_dropShadow_808_1503" result="shape"/>
</filter>
<filter id="filter2_d_808_1503" x="50.3389" y="18.915" width="11.4326" height="11.4326" filterUnits="userSpaceOnUse" color-interpolation-filters="sRGB">
<feFlood flood-opacity="0" result="BackgroundImageFix"/>
<feColorMatrix in="SourceAlpha" type="matrix" values="0 0 0 0 0 0 0 0 0 0 0 0 0 0 0 0 0 0 127 0" result="hardAlpha"/>
<feOffset/>
<feGaussianBlur stdDeviation="0.994141"/>
<feColorMatrix type="matrix" values="0 0 0 0 0 0 0 0 0 0 0 0 0 0 0 0 0 0 0.130633 0"/>
<feBlend mode="normal" in2="BackgroundImageFix" result="effect1_dropShadow_808_1503"/>
<feBlend mode="normal" in="SourceGraphic" in2="effect1_dropShadow_808_1503" result="shape"/>
</filter>
<linearGradient id="paint0_linear_808_1503" x1="-1.02912" y1="7.26655" x2="21.002" y2="102.148" gradientUnits="userSpaceOnUse">
<stop stop-color="#4E60D3"/>
<stop offset="0.148736" stop-color="#913BAF"/>
<stop offset="0.315836" stop-color="#D52D88"/>
<stop offset="0.493765" stop-color="#D72E85"/>
<stop offset="0.81651" stop-color="#E6366D"/>
<stop offset="1" stop-color="#F26D4F"/>
</linearGradient>
<radialGradient id="paint1_radial_808_1503" cx="0" cy="0" r="1" gradientUnits="userSpaceOnUse" gradientTransform="translate(27.576 80.0362) rotate(15.5573) scale(72.343 68.1252)">
<stop stop-color="#FED980"/>
<stop offset="0.372276" stop-color="#FCAE49"/>
<stop offset="0.555546" stop-color="#F06745"/>
<stop offset="1" stop-color="#E83D5C" stop-opacity="0.01"/>
</radialGradient>
</defs>
</svg>
