<svg width="80" height="104" viewBox="0 0 80 104" fill="none" xmlns="http://www.w3.org/2000/svg">
<path fill-rule="evenodd" clip-rule="evenodd" d="M18.066 0.429688L61.6762 0.429688C66.4354 0.443412 70.9958 2.34891 74.3611 5.72989C77.7264 9.11087 79.6231 13.6925 79.6367 18.4739V61.9232C79.6214 66.7035 77.724 71.2835 74.3589 74.6631C70.9937 78.0427 66.4343 79.9473 61.6762 79.961H18.066C13.3079 79.9473 8.74848 78.0427 5.38336 74.6631C2.01824 71.2835 0.120837 66.7035 0.105469 61.9232L0.105469 18.4739C0.11913 13.6925 2.01578 9.11087 5.38109 5.72989C8.74639 2.34891 13.3068 0.443412 18.066 0.429688Z" fill="#0A66C2"/>
<path fill-rule="evenodd" clip-rule="evenodd" d="M31.943 31.2578H41.9945V36.4598H42.1369C43.5413 33.9368 46.9587 31.2578 52.0653 31.2578C62.6734 31.2578 64.6345 37.8903 64.6345 46.519V64.7649H54.1559V48.5478C54.1559 44.8349 54.0782 40.0556 48.7062 40.0556C43.3342 40.0556 42.4152 44.0936 42.4152 48.2812V64.7974H31.943V31.2578ZM25.995 21.101C25.995 22.1839 25.6754 23.2424 25.0766 24.1428C24.4778 25.0432 23.6266 25.7449 22.6309 26.1593C21.6351 26.5737 20.5393 26.6821 19.4822 26.4709C18.4251 26.2596 17.454 25.7382 16.6919 24.9725C15.9297 24.2068 15.4107 23.2312 15.2004 22.1692C14.9901 21.1071 15.0981 20.0062 15.5105 19.0058C15.923 18.0054 16.6215 17.1503 17.5177 16.5487C18.4139 15.9471 19.4675 15.626 20.5454 15.626C21.9902 15.6277 23.3753 16.2051 24.397 17.2315C25.4186 18.2579 25.9933 19.6495 25.995 21.101ZM15.1087 31.2578H25.995V64.7649H15.1087V31.2578Z" fill="white"/>
<path d="M11.6273 88.1148H13.0985V97.6705H18.6651V99.0811H11.6273V88.1148ZM20.7138 92.8016H22.1244V99.0811H20.7138V92.8016ZM20.6076 90.5264C20.6076 90.304 20.6936 90.1169 20.8655 89.9652C21.0475 89.8136 21.2447 89.7377 21.457 89.7377C21.6694 89.7377 21.8564 89.8136 22.0182 89.9652C22.1901 90.1169 22.2761 90.304 22.2761 90.5264C22.2761 90.759 22.1901 90.9511 22.0182 91.1028C21.8564 91.2444 21.6694 91.3152 21.457 91.3152C21.2447 91.3152 21.0475 91.2393 20.8655 91.0876C20.6936 90.936 20.6076 90.7489 20.6076 90.5264ZM25.8239 92.8016L25.9453 94.3335L25.8846 94.0909C26.0868 93.6257 26.4155 93.2566 26.8705 92.9836C27.3255 92.7005 27.8513 92.5589 28.4479 92.5589C29.0445 92.5589 29.5299 92.7359 29.9041 93.0898C30.2883 93.4336 30.4855 93.8836 30.4956 94.4397V99.0811H29.0698V94.9403C29.0597 94.5965 28.9586 94.3184 28.7665 94.106C28.5845 93.8836 28.2963 93.7723 27.9019 93.7723C27.5379 93.7723 27.2092 93.8735 26.916 94.0757C26.6228 94.2779 26.3902 94.556 26.2183 94.9099C26.0565 95.2638 25.9756 95.6734 25.9756 96.1385V99.0811H24.565V92.8016H25.8239ZM32.9487 99.0811V87.3412H34.3593V99.0811H32.9487ZM35.8761 94.9099L38.758 99.0811H37.1047L34.9357 95.6986L35.8761 94.9099ZM33.9195 97.0789L33.783 95.729L37.5901 92.6651L38.4546 93.4083L33.9195 97.0789ZM43.1782 99.2327C42.4603 99.2327 41.8435 99.0912 41.3277 98.808C40.812 98.5148 40.4126 98.1204 40.1295 97.6249C39.8565 97.1194 39.72 96.543 39.72 95.8958C39.72 95.279 39.8767 94.7178 40.1902 94.2122C40.5036 93.7066 40.9233 93.3021 41.4491 92.9988C41.9749 92.6954 42.5614 92.5437 43.2085 92.5437C44.0377 92.5437 44.7253 92.7864 45.2714 93.2718C45.8174 93.7572 46.1865 94.4246 46.3786 95.2739L41.2064 97.0941L40.8727 96.2599L45.1197 94.7127L44.8163 94.9099C44.695 94.5762 44.4928 94.288 44.2096 94.0454C43.9265 93.7926 43.5574 93.6662 43.1024 93.6662C42.7181 93.6662 42.3743 93.7622 42.071 93.9544C41.7676 94.1364 41.53 94.3892 41.3581 94.7127C41.1862 95.0363 41.1002 95.4054 41.1002 95.82C41.1002 96.2548 41.1912 96.639 41.3733 96.9727C41.5553 97.2963 41.803 97.5542 42.1165 97.7463C42.44 97.9283 42.8041 98.0193 43.2085 98.0193C43.4816 98.0193 43.7445 97.9688 43.9973 97.8676C44.2602 97.7665 44.5029 97.6351 44.7253 97.4733L45.3775 98.5198C45.0641 98.7322 44.7102 98.9041 44.3158 99.0356C43.9315 99.167 43.5524 99.2327 43.1782 99.2327ZM50.6943 99.2327C50.1179 99.2327 49.5921 99.0962 49.1169 98.8232C48.6517 98.5401 48.2826 98.1457 48.0096 97.6401C47.7366 97.1244 47.6001 96.5329 47.6001 95.8655C47.6001 95.1678 47.7417 94.5712 48.0248 94.0757C48.318 93.5802 48.7124 93.201 49.2079 92.9381C49.7034 92.6752 50.2595 92.5437 50.8763 92.5437C51.3718 92.5437 51.842 92.6499 52.2869 92.8623C52.742 93.0746 53.0959 93.3679 53.3487 93.742L53.288 94.2425V87.3412H54.6834V99.0811H53.2728V97.5188L53.4245 97.9131C53.1313 98.2974 52.7521 98.6159 52.2869 98.8687C51.8218 99.1114 51.2909 99.2327 50.6943 99.2327ZM51.1342 98.0345C51.5083 98.0345 51.842 97.9688 52.1353 97.8373C52.4285 97.6957 52.6712 97.5036 52.8633 97.2609C53.0554 97.0182 53.1919 96.7301 53.2728 96.3964V95.2133C53.1919 94.9099 53.0453 94.647 52.833 94.4246C52.6307 94.192 52.383 94.01 52.0897 93.8785C51.8066 93.7369 51.4881 93.6662 51.1342 93.6662C50.7499 93.6662 50.396 93.7622 50.0724 93.9544C49.759 94.1364 49.5062 94.3892 49.314 94.7127C49.1219 95.0363 49.0259 95.4105 49.0259 95.8352C49.0259 96.2497 49.1219 96.6239 49.314 96.9576C49.5062 97.2811 49.764 97.5441 50.0876 97.7463C50.4112 97.9384 50.76 98.0345 51.1342 98.0345ZM57.486 88.1148H58.9573V99.0811H57.486V88.1148ZM63.0175 92.8016L63.1389 94.3335L63.0782 94.0909C63.2804 93.6257 63.6091 93.2566 64.0641 92.9836C64.5191 92.7005 65.045 92.5589 65.6416 92.5589C66.2382 92.5589 66.7235 92.7359 67.0977 93.0898C67.4819 93.4336 67.6791 93.8836 67.6892 94.4397V99.0811H66.2634V94.9403C66.2533 94.5965 66.1522 94.3184 65.9601 94.106C65.7781 93.8836 65.4899 93.7723 65.0955 93.7723C64.7315 93.7723 64.4029 93.8735 64.1096 94.0757C63.8164 94.2779 63.5838 94.556 63.4119 94.9099C63.2501 95.2638 63.1692 95.6734 63.1692 96.1385V99.0811H61.7586V92.8016H63.0175Z" fill="white"/>
</svg>
