<svg width="80" height="104" viewBox="0 0 80 104" fill="none" xmlns="http://www.w3.org/2000/svg">
<path fill-rule="evenodd" clip-rule="evenodd" d="M60.8773 0.429688C72.3721 0.429688 79.8282 7.88575 79.8282 19.3805V61.0101C79.8282 72.5049 72.3721 79.961 60.8773 79.961H19.2477C7.75293 79.961 0.296875 72.5049 0.296875 61.0101L0.296875 19.3805C0.296875 7.88575 7.75293 0.429688 19.2477 0.429688L60.8773 0.429688Z" fill="#FF4500"/>
<path fill-rule="evenodd" clip-rule="evenodd" d="M41.0739 30.9414C47.565 31.181 53.3952 33.1476 57.626 36.1905C58.7244 34.9832 60.2765 34.2305 61.997 34.2305C65.3265 34.2305 68.0254 37.0494 68.0254 40.5267C68.0254 43.0956 66.5526 45.3051 64.4406 46.2842C64.5356 46.8966 64.5843 47.5186 64.5843 48.1484C64.5843 57.6653 53.457 65.3802 39.7308 65.3802C26.0046 65.3802 14.8773 57.6653 14.8773 48.1484C14.8773 47.4992 14.929 46.8583 15.0299 46.2277C12.9816 45.2218 11.5635 43.0472 11.5635 40.5267C11.5635 37.0494 14.2626 34.2305 17.5921 34.2305C19.2862 34.2305 20.8172 34.9604 21.9124 36.1355C26.1221 33.1344 31.8953 31.1932 38.3203 30.944L41.787 14.68L52.9887 17.255C53.675 15.5506 55.344 14.3477 57.294 14.3477C59.8562 14.3477 61.9333 16.4247 61.9333 18.987C61.9333 21.5492 59.8562 23.6263 57.294 23.6263C54.8938 23.6263 52.9193 21.8037 52.6792 19.467L43.8556 17.4259L41.0739 30.9414ZM29.5895 57.0728C30.0534 57.4864 30.641 57.8892 31.3629 58.2569C33.3277 59.2575 35.9637 59.8447 39.3559 59.8447C42.7314 59.8447 45.4892 59.2644 47.6708 58.2849C48.457 57.9319 49.1175 57.5484 49.6582 57.1582C50.0047 56.908 50.2448 56.6983 50.3855 56.5525C50.8936 56.0255 50.8784 55.1864 50.3515 54.6782C49.8246 54.17 48.9854 54.1852 48.4773 54.7121C48.4814 54.7078 48.4645 54.724 48.4255 54.758C48.3431 54.83 48.2371 54.9144 48.1066 55.0086C47.7099 55.2949 47.2052 55.588 46.5849 55.8665C44.7479 56.6913 42.3603 57.1936 39.3559 57.1936C36.3681 57.1936 34.1441 56.6982 32.566 55.8945C31.7019 55.4545 31.2587 55.0593 31.1272 54.8716C30.7071 54.2721 29.8805 54.1266 29.281 54.5467C28.6815 54.9669 28.536 55.7934 28.9561 56.3929C29.0769 56.5654 29.2838 56.8002 29.5895 57.0728ZM29.9182 49.474C32.4805 49.474 34.5576 47.3969 34.5576 44.8346C34.5576 42.2724 32.4805 40.1953 29.9182 40.1953C27.356 40.1953 25.2789 42.2724 25.2789 44.8346C25.2789 47.3969 27.356 49.474 29.9182 49.474ZM49.3408 49.474C51.9031 49.474 53.9802 47.3969 53.9802 44.8346C53.9802 42.2724 51.9031 40.1953 49.3408 40.1953C46.7786 40.1953 44.7015 42.2724 44.7015 44.8346C44.7015 47.3969 46.7786 49.474 49.3408 49.474Z" fill="white"/>
<path d="M21.6899 88.1148C22.246 88.1148 22.7567 88.1906 23.2218 88.3423C23.6971 88.4838 24.1066 88.7012 24.4504 88.9945C24.8043 89.2776 25.0773 89.6315 25.2694 90.0562C25.4717 90.4708 25.5728 90.9562 25.5728 91.5123C25.5728 91.9471 25.5071 92.3718 25.3756 92.7864C25.2543 93.201 25.047 93.5802 24.7537 93.924C24.4605 94.2577 24.0762 94.5307 23.601 94.7431C23.1358 94.9453 22.5595 95.0464 21.8719 95.0464H20.2489V99.0811H18.7776V88.1148H21.6899ZM21.8415 93.6358C22.2763 93.6358 22.6353 93.5701 22.9184 93.4386C23.2117 93.3072 23.4392 93.1403 23.601 92.9381C23.7628 92.7258 23.8791 92.4982 23.9499 92.2556C24.0206 92.0129 24.056 91.7854 24.056 91.573C24.056 91.3506 24.0156 91.123 23.9347 90.8905C23.8639 90.6478 23.7426 90.4253 23.5707 90.2231C23.4089 90.0208 23.1915 89.854 22.9184 89.7225C22.6555 89.5911 22.332 89.5254 21.9477 89.5254H20.2489V93.6358H21.8415ZM23.6465 94.4701L26.5132 99.0811H24.8144L21.9022 94.5156L23.6465 94.4701ZM31.1467 99.2327C30.4288 99.2327 29.812 99.0912 29.2962 98.808C28.7805 98.5148 28.3811 98.1204 28.098 97.6249C27.825 97.1194 27.6885 96.543 27.6885 95.8958C27.6885 95.279 27.8452 94.7178 28.1587 94.2122C28.4721 93.7066 28.8918 93.3021 29.4176 92.9988C29.9434 92.6954 30.5299 92.5437 31.1771 92.5437C32.0062 92.5437 32.6938 92.7864 33.2399 93.2718C33.7859 93.7572 34.155 94.4246 34.3471 95.2739L29.1749 97.0941L28.8412 96.2599L33.0882 94.7127L32.7848 94.9099C32.6635 94.5762 32.4613 94.288 32.1781 94.0454C31.895 93.7926 31.5259 93.6662 31.0709 93.6662C30.6866 93.6662 30.3428 93.7622 30.0395 93.9544C29.7361 94.1364 29.4985 94.3892 29.3266 94.7127C29.1547 95.0363 29.0687 95.4054 29.0687 95.82C29.0687 96.2548 29.1597 96.639 29.3418 96.9727C29.5238 97.2963 29.7715 97.5542 30.085 97.7463C30.4086 97.9283 30.7726 98.0193 31.1771 98.0193C31.4501 98.0193 31.713 97.9688 31.9658 97.8676C32.2287 97.7665 32.4714 97.6351 32.6938 97.4733L33.346 98.5198C33.0326 98.7322 32.6787 98.9041 32.2843 99.0356C31.9 99.167 31.5209 99.2327 31.1467 99.2327ZM38.6628 99.2327C38.0864 99.2327 37.5606 99.0962 37.0854 98.8232C36.6202 98.5401 36.2511 98.1457 35.9781 97.6401C35.7051 97.1244 35.5686 96.5329 35.5686 95.8655C35.5686 95.1678 35.7102 94.5712 35.9933 94.0757C36.2865 93.5802 36.6809 93.201 37.1764 92.9381C37.6719 92.6752 38.228 92.5437 38.8448 92.5437C39.3403 92.5437 39.8105 92.6499 40.2554 92.8623C40.7105 93.0746 41.0644 93.3679 41.3172 93.742L41.2565 94.2425V87.3412H42.6519V99.0811H41.2413V97.5188L41.393 97.9131C41.0998 98.2974 40.7206 98.6159 40.2554 98.8687C39.7903 99.1114 39.2594 99.2327 38.6628 99.2327ZM39.1027 98.0345C39.4768 98.0345 39.8105 97.9688 40.1038 97.8373C40.397 97.6957 40.6397 97.5036 40.8318 97.2609C41.0239 97.0182 41.1604 96.7301 41.2413 96.3964V95.2133C41.1604 94.9099 41.0138 94.647 40.8015 94.4246C40.5992 94.192 40.3515 94.01 40.0583 93.8785C39.7751 93.7369 39.4566 93.6662 39.1027 93.6662C38.7184 93.6662 38.3645 93.7622 38.0409 93.9544C37.7275 94.1364 37.4747 94.3892 37.2826 94.7127C37.0904 95.0363 36.9944 95.4105 36.9944 95.8352C36.9944 96.2497 37.0904 96.6239 37.2826 96.9576C37.4747 97.2811 37.7325 97.5441 38.0561 97.7463C38.3797 97.9384 38.7285 98.0345 39.1027 98.0345ZM47.6539 99.2327C47.0775 99.2327 46.5517 99.0962 46.0764 98.8232C45.6113 98.5401 45.2422 98.1457 44.9692 97.6401C44.6962 97.1244 44.5596 96.5329 44.5596 95.8655C44.5596 95.1678 44.7012 94.5712 44.9843 94.0757C45.2776 93.5802 45.6719 93.201 46.1674 92.9381C46.6629 92.6752 47.2191 92.5437 47.8359 92.5437C48.3314 92.5437 48.8016 92.6499 49.2465 92.8623C49.7015 93.0746 50.0554 93.3679 50.3082 93.742L50.2476 94.2425V87.3412H51.643V99.0811H50.2324V97.5188L50.3841 97.9131C50.0908 98.2974 49.7116 98.6159 49.2465 98.8687C48.7813 99.1114 48.2505 99.2327 47.6539 99.2327ZM48.0937 98.0345C48.4679 98.0345 48.8016 97.9688 49.0948 97.8373C49.388 97.6957 49.6307 97.5036 49.8229 97.2609C50.015 97.0182 50.1515 96.7301 50.2324 96.3964V95.2133C50.1515 94.9099 50.0049 94.647 49.7925 94.4246C49.5903 94.192 49.3425 94.01 49.0493 93.8785C48.7662 93.7369 48.4476 93.6662 48.0937 93.6662C47.7095 93.6662 47.3556 93.7622 47.032 93.9544C46.7185 94.1364 46.4657 94.3892 46.2736 94.7127C46.0815 95.0363 45.9854 95.4105 45.9854 95.8352C45.9854 96.2497 46.0815 96.6239 46.2736 96.9576C46.4657 97.2811 46.7236 97.5441 47.0472 97.7463C47.3707 97.9384 47.7196 98.0345 48.0937 98.0345ZM54.0967 92.8016H55.5073V99.0811H54.0967V92.8016ZM53.9906 90.5264C53.9906 90.304 54.0765 90.1169 54.2484 89.9652C54.4304 89.8136 54.6276 89.7377 54.84 89.7377C55.0523 89.7377 55.2394 89.8136 55.4012 89.9652C55.5731 90.1169 55.659 90.304 55.659 90.5264C55.659 90.759 55.5731 90.9511 55.4012 91.1028C55.2394 91.2444 55.0523 91.3152 54.84 91.3152C54.6276 91.3152 54.4304 91.2393 54.2484 91.0876C54.0765 90.936 53.9906 90.7489 53.9906 90.5264ZM58.5546 90.0411H59.9652V92.8319H61.6944V93.9392H59.9652V99.0811H58.5546V93.9392H57.4019V92.8319H58.5546V90.0411Z" fill="white"/>
</svg>
