<svg width="80" height="102" viewBox="0 0 80 102" fill="none" xmlns="http://www.w3.org/2000/svg">
<path fill-rule="evenodd" clip-rule="evenodd" d="M61.057 0C72.5518 0 80.0078 7.45606 80.0078 18.9508V60.5804C80.0078 72.0752 72.5518 79.5313 61.057 79.5313H19.4274C7.93262 79.5313 0.476562 72.0752 0.476562 60.5804L0.476562 18.9508C0.476562 7.45606 7.93262 0 19.4274 0L61.057 0Z" fill="black"/>
<path d="M45.8442 36.3949L63.8582 15.9062H59.591L43.9428 33.6926L31.4539 15.9062H17.0459L35.9357 42.8049L17.0459 64.2878H21.3131L37.8274 45.5008L51.0194 64.2878H65.4274M22.8533 19.0549H29.409L59.5878 61.2938H53.0305" fill="white"/>
<path d="M17.5157 86.2808H24.7963V87.6914H21.8537V97.2471H20.3825V87.6914H17.5157V86.2808ZM29.5445 90.9676L31.395 95.1994L31.1219 95.2298L32.8511 90.9676H34.2313L31.3495 97.6263L29.3321 93.3186L27.4968 97.6263L24.5846 90.9676H25.9649L27.9215 95.3966L27.4362 95.3056L28.8316 92.0597L28.3311 90.9676H29.5445ZM35.7455 90.9676H37.1561V97.2471H35.7455V90.9676ZM35.6393 88.6925C35.6393 88.47 35.7253 88.2829 35.8972 88.1312C36.0792 87.9796 36.2764 87.9037 36.4887 87.9037C36.7011 87.9037 36.8881 87.9796 37.0499 88.1312C37.2218 88.2829 37.3078 88.47 37.3078 88.6925C37.3078 88.925 37.2218 89.1171 37.0499 89.2688C36.8881 89.4104 36.7011 89.4812 36.4887 89.4812C36.2764 89.4812 36.0792 89.4053 35.8972 89.2537C35.7253 89.102 35.6393 88.9149 35.6393 88.6925ZM40.2034 88.2071H41.614V90.998H43.3431V92.1052H41.614V97.2471H40.2034V92.1052H39.0507V90.998H40.2034V88.2071ZM45.6543 88.2071H47.0649V90.998H48.794V92.1052H47.0649V97.2471H45.6543V92.1052H44.5016V90.998H45.6543V88.2071ZM53.4107 97.3987C52.6928 97.3987 52.076 97.2572 51.5603 96.9741C51.0446 96.6808 50.6451 96.2864 50.362 95.791C50.089 95.2854 49.9525 94.709 49.9525 94.0618C49.9525 93.445 50.1092 92.8838 50.4227 92.3782C50.7361 91.8726 51.1558 91.4682 51.6816 91.1648C52.2074 90.8614 52.7939 90.7098 53.4411 90.7098C54.2702 90.7098 54.9578 90.9524 55.5039 91.4378C56.0499 91.9232 56.419 92.5906 56.6111 93.44L51.4389 95.2601L51.1052 94.4259L55.3522 92.8788L55.0488 93.0759C54.9275 92.7422 54.7253 92.4541 54.4421 92.2114C54.159 91.9586 53.7899 91.8322 53.3349 91.8322C52.9506 91.8322 52.6068 91.9282 52.3035 92.1204C52.0001 92.3024 51.7625 92.5552 51.5906 92.8788C51.4187 93.2023 51.3327 93.5714 51.3327 93.986C51.3327 94.4208 51.4238 94.8051 51.6058 95.1388C51.7878 95.4623 52.0355 95.7202 52.349 95.9123C52.6726 96.0943 53.0366 96.1853 53.4411 96.1853C53.7141 96.1853 53.977 96.1348 54.2298 96.0336C54.4927 95.9325 54.7354 95.8011 54.9578 95.6393L55.6101 96.6859C55.2966 96.8982 54.9427 97.0701 54.5483 97.2016C54.1641 97.333 53.7849 97.3987 53.4107 97.3987ZM59.6376 90.9676L59.7741 92.7877L59.6982 92.5451C59.86 92.1608 60.0926 91.8372 60.396 91.5743C60.7094 91.3013 61.033 91.094 61.3667 90.9524C61.7105 90.8008 62.0088 90.7249 62.2616 90.7249L62.1858 92.1204C61.7105 92.09 61.2909 92.181 60.9268 92.3934C60.5729 92.6057 60.2898 92.8889 60.0774 93.2428C59.8752 93.5967 59.7741 93.9759 59.7741 94.3804V97.2471H58.3786V90.9676H59.6376Z" fill="white"/>
</svg>
