<svg width="81" height="104" viewBox="0 0 81 104" fill="none" xmlns="http://www.w3.org/2000/svg">
<path fill-rule="evenodd" clip-rule="evenodd" d="M80.4102 59.7784C80.4102 60.2133 80.3962 61.1577 80.3698 61.8878C80.3061 63.6726 80.1648 65.9762 79.9504 67.0247C79.6644 68.5172 79.1801 69.9648 78.5104 71.329C77.0376 74.2373 74.6739 76.5988 71.7643 78.069C70.392 78.7405 68.936 79.2253 67.4351 79.5105C66.3959 79.7202 64.1094 79.8584 62.337 79.9221C61.6054 79.9485 60.661 79.961 60.2276 79.961H21.0677C20.6328 79.961 19.6884 79.947 18.9583 79.9206C17.1735 79.8569 14.8699 79.7155 13.8214 79.5027C12.3285 79.2153 10.8805 78.7305 9.51551 78.0612C6.60487 76.5871 4.24165 74.2212 2.77088 71.3088C2.09936 69.9366 1.61455 68.4806 1.32938 66.9797C1.11967 65.9405 0.981427 63.6508 0.91774 61.8816C0.891333 61.1515 0.878906 60.2055 0.878906 59.7675L0.878906 20.6076C0.878906 20.1727 0.892886 19.2283 0.91774 18.4982C0.989194 16.7181 1.13055 14.4098 1.34491 13.3659C1.63188 11.8732 2.11611 10.4252 2.78486 9.06007C4.25923 6.15328 6.62255 3.79269 9.53104 2.32166C10.9033 1.65014 12.3593 1.16534 13.8602 0.880158C14.8994 0.670456 17.189 0.532208 18.9583 0.468521C19.6884 0.442114 20.6344 0.429688 21.0724 0.429688L60.2322 0.429688C60.6672 0.429688 61.6116 0.443668 62.3417 0.468521C64.1218 0.539975 66.4301 0.681329 67.4739 0.895691C68.9667 1.18266 70.4147 1.66689 71.7798 2.33564C74.6866 3.81001 77.0472 6.17333 78.5182 9.08182C79.1897 10.4541 79.6745 11.9101 79.9597 13.411C80.1694 14.4502 80.3077 16.7367 80.3714 18.5091C80.3978 19.2391 80.4102 20.1851 80.4102 20.6185V59.7784Z" fill="url(#paint0_linear_808_1560)"/>
<path fill-rule="evenodd" clip-rule="evenodd" d="M59.8372 20.8826C57.338 18.3651 54.3636 16.3692 51.0866 15.0109C47.8096 13.6525 44.2955 12.9587 40.7481 12.9699C25.8873 12.9699 13.7789 25.072 13.7789 39.9499C13.7747 44.6838 15.0177 49.3353 17.3827 53.4361L13.5537 67.4162L27.8569 63.6617C31.8122 65.8179 36.2448 66.9484 40.7497 66.9502H40.7606C55.6307 66.9502 67.7406 54.848 67.7406 39.9701C67.7487 36.4246 67.054 32.9126 65.6966 29.6372C64.3392 26.3617 62.3461 23.3878 59.8325 20.8873L59.8372 20.8826ZM40.7559 62.4082C36.7374 62.4089 32.7928 61.3283 29.3357 59.2797L28.514 58.7904L20.0265 61.0102L22.2928 52.7355L21.7616 51.8858C19.5083 48.315 18.3171 44.1769 18.3271 39.9546C18.3271 27.5837 28.3882 17.5165 40.7683 17.5165C43.7143 17.5169 46.6312 18.0979 49.3525 19.2262C52.0738 20.3545 54.5461 22.008 56.628 24.0922C58.71 26.1765 60.3608 28.6506 61.486 31.3731C62.6113 34.0957 63.1891 37.0133 63.1862 39.9592C63.1753 52.3347 53.1159 62.3989 40.7543 62.3989L40.7559 62.4082ZM53.0506 45.601C52.3796 45.2592 49.0616 43.6329 48.445 43.4077C47.8283 43.1824 47.3809 43.0675 46.9227 43.7494C46.4644 44.4313 45.1798 45.9412 44.7853 46.3901C44.3907 46.839 43.9993 46.9011 43.3298 46.5594C42.6603 46.2177 40.4794 45.5078 37.9055 43.2104C35.9048 41.424 34.5487 39.2121 34.1542 38.5503C33.7596 37.8886 34.1091 37.5081 34.4524 37.1787C34.7631 36.8789 35.1235 36.3928 35.4636 35.9982C35.8038 35.6037 35.911 35.3272 36.1347 34.8705C36.3584 34.4138 36.2496 34.0286 36.0803 33.6899C35.911 33.3513 34.558 30.0318 34.0082 28.6804C33.466 27.3585 32.9022 27.5433 32.4874 27.52C32.0727 27.4967 31.6455 27.4999 31.1997 27.4999C30.8585 27.509 30.5228 27.5883 30.2136 27.7329C29.9044 27.8775 29.6283 28.0842 29.4025 28.3402C28.7812 29.0113 27.0414 30.6485 27.0414 33.9664C27.0414 37.2844 29.4553 40.4905 29.7939 40.9425C30.1326 41.3945 34.5487 48.2059 41.3104 51.1231C42.9166 51.8128 44.1717 52.2276 45.1503 52.5491C46.5255 52.9634 47.9779 53.0544 49.394 52.8147C50.6911 52.6237 53.383 51.1853 53.9469 49.6117C54.5108 48.0382 54.5108 46.6868 54.343 46.4087C54.1752 46.1307 53.7356 45.9427 53.0553 45.5979L53.0506 45.601Z" fill="white"/>
<path d="M4.48614 88.1754H6.18493L9.15781 96.548L8.89996 96.4419L11.0689 90.8298L11.7515 92.8168L8.85445 99.5816L4.48614 88.1754ZM9.74935 88.1754H11.2206L14.4362 96.4267L14.1328 96.366L16.9692 88.1754H18.5315L14.2238 99.5664L9.74935 88.1754ZM20.3791 99.0811V87.3412H21.7594V94.2577L21.729 93.9999C21.9414 93.5853 22.265 93.2415 22.6998 92.9684C23.1447 92.6954 23.6655 92.5589 24.2621 92.5589C24.8587 92.5589 25.344 92.7359 25.7182 93.0898C26.1024 93.4336 26.2996 93.8836 26.3097 94.4397V99.0811H24.8839V94.9403C24.8738 94.5965 24.7727 94.3184 24.5806 94.106C24.3986 93.8836 24.1104 93.7723 23.716 93.7723C23.352 93.7723 23.0234 93.8785 22.7301 94.0909C22.4369 94.2931 22.2043 94.5712 22.0324 94.9251C21.8706 95.279 21.7897 95.6835 21.7897 96.1385V99.0811H20.3791ZM31.3717 99.2327C30.7852 99.2327 30.2493 99.1063 29.7639 98.8535C29.2887 98.6007 28.9095 98.2317 28.6263 97.7463C28.3533 97.2508 28.2168 96.6492 28.2168 95.9413C28.2168 95.2436 28.3634 94.642 28.6567 94.1364C28.9499 93.6207 29.3392 93.2263 29.8246 92.9533C30.3201 92.6803 30.8611 92.5437 31.4475 92.5437C32.034 92.5437 32.5295 92.6803 32.934 92.9533C33.3385 93.2162 33.6469 93.5297 33.8592 93.8937L33.7682 94.1364L33.9047 92.8016H35.2092V99.0811H33.7986V97.4429L33.9502 97.807C33.9098 97.9081 33.8188 98.0395 33.6772 98.2013C33.5458 98.353 33.3637 98.5097 33.1312 98.6715C32.9087 98.8333 32.6509 98.9698 32.3576 99.0811C32.0644 99.1822 31.7357 99.2327 31.3717 99.2327ZM31.7509 98.0648C32.1048 98.0648 32.4233 97.9991 32.7065 97.8676C32.9896 97.7362 33.2222 97.5542 33.4042 97.3216C33.5963 97.0789 33.7278 96.7907 33.7986 96.457V95.2284C33.7177 94.9251 33.5761 94.6622 33.3739 94.4397C33.1716 94.2071 32.9289 94.0302 32.6458 93.9088C32.3627 93.7774 32.0492 93.7117 31.7054 93.7117C31.3313 93.7117 30.9875 93.8027 30.674 93.9847C30.3605 94.1667 30.1077 94.4195 29.9156 94.7431C29.7336 95.0667 29.6426 95.4458 29.6426 95.8807C29.6426 96.2851 29.7386 96.6542 29.9308 96.9879C30.1229 97.3216 30.3807 97.5845 30.7043 97.7766C31.0279 97.9688 31.3768 98.0648 31.7509 98.0648ZM38.2569 90.0411H39.6675V92.8319H41.3966V93.9392H39.6675V99.0811H38.2569V93.9392H37.1042V92.8319H38.2569V90.0411ZM44.8606 99.2024C44.4157 99.2024 43.9809 99.1266 43.5562 98.9749C43.1416 98.8131 42.7978 98.5755 42.5248 98.262L43.1163 97.4429C43.3792 97.6957 43.6472 97.8879 43.9202 98.0193C44.2033 98.1407 44.4814 98.2013 44.7544 98.2013C44.9567 98.2013 45.1437 98.176 45.3156 98.1255C45.4875 98.0749 45.624 97.994 45.7252 97.8828C45.8364 97.7615 45.892 97.5997 45.892 97.3974C45.892 97.175 45.8162 96.998 45.6645 96.8666C45.5229 96.7351 45.3358 96.6289 45.1033 96.548C44.8808 96.4671 44.6432 96.3913 44.3904 96.3205C43.8747 96.1486 43.4803 95.911 43.2073 95.6076C42.9343 95.3043 42.7978 94.9352 42.7978 94.5004C42.7978 94.1667 42.8787 93.8583 43.0405 93.5752C43.2124 93.2819 43.4601 93.0443 43.7837 92.8623C44.1174 92.6803 44.5269 92.5893 45.0123 92.5893C45.4471 92.5893 45.8364 92.6449 46.1802 92.7561C46.524 92.8572 46.8476 93.0291 47.1509 93.2718L46.5897 94.1515C46.4077 93.9594 46.1903 93.8178 45.9375 93.7268C45.6847 93.6358 45.4572 93.5853 45.255 93.5752C45.083 93.565 44.9162 93.5903 44.7544 93.651C44.6027 93.7117 44.4763 93.7976 44.3752 93.9088C44.2741 94.0201 44.2235 94.1515 44.2235 94.3032C44.2235 94.5156 44.2943 94.6875 44.4359 94.8189C44.5775 94.9504 44.7595 95.0565 44.9819 95.1374C45.2145 95.2082 45.442 95.2841 45.6645 95.365C45.9779 95.456 46.256 95.5773 46.4987 95.729C46.7414 95.8807 46.9335 96.0677 47.0751 96.2902C47.2268 96.5126 47.3026 96.7907 47.3026 97.1244C47.3026 97.4986 47.2116 97.8474 47.0296 98.171C46.8577 98.4845 46.5897 98.7373 46.2257 98.9294C45.8718 99.1114 45.4167 99.2024 44.8606 99.2024ZM48.5346 99.0811L53.3276 87.6597H53.4186L58.1965 99.0811H56.5129L52.9333 89.9652L53.9799 89.2827L49.9756 99.0811H48.5346ZM51.3407 94.9251H55.4208L55.9062 96.1992H50.916L51.3407 94.9251ZM63.614 99.2327C63.1387 99.2327 62.6786 99.1215 62.2337 98.899C61.7989 98.6766 61.4602 98.3783 61.2175 98.0041L61.3085 97.5643V102.099H59.9131V92.7106H61.1265L61.3237 94.3184L61.172 93.8785C61.4753 93.4943 61.8596 93.1757 62.3247 92.9229C62.7899 92.6701 63.3106 92.5437 63.887 92.5437C64.4735 92.5437 64.9993 92.6853 65.4645 92.9684C65.9397 93.2516 66.3138 93.6459 66.5869 94.1515C66.8599 94.6571 66.9964 95.2487 66.9964 95.9262C66.9964 96.6037 66.8498 97.1901 66.5565 97.6856C66.2633 98.1811 65.8588 98.5654 65.3431 98.8384C64.8375 99.1013 64.2611 99.2327 63.614 99.2327ZM63.341 98.1103C63.7454 98.1103 64.1145 98.0193 64.4482 97.8373C64.792 97.6452 65.065 97.3873 65.2673 97.0637C65.4695 96.7301 65.5706 96.3559 65.5706 95.9413C65.5706 95.5166 65.4746 95.1425 65.2824 94.8189C65.0903 94.4852 64.8325 94.2223 64.5089 94.0302C64.1954 93.8381 63.8415 93.742 63.4471 93.742C63.0831 93.742 62.7545 93.8128 62.4612 93.9544C62.168 94.0959 61.9253 94.2931 61.7332 94.5459C61.5411 94.7886 61.4045 95.0717 61.3237 95.3953V96.4419C61.3742 96.7654 61.4956 97.0536 61.6877 97.3064C61.8798 97.5592 62.1174 97.7564 62.4006 97.898C62.6938 98.0395 63.0073 98.1103 63.341 98.1103ZM72.605 99.2327C72.1298 99.2327 71.6697 99.1215 71.2248 98.899C70.79 98.6766 70.4512 98.3783 70.2085 98.0041L70.2995 97.5643V102.099H68.9041V92.7106H70.1175L70.3147 94.3184L70.163 93.8785C70.4664 93.4943 70.8506 93.1757 71.3158 92.9229C71.7809 92.6701 72.3017 92.5437 72.8781 92.5437C73.4645 92.5437 73.9904 92.6853 74.4555 92.9684C74.9308 93.2516 75.3049 93.6459 75.5779 94.1515C75.8509 94.6571 75.9874 95.2487 75.9874 95.9262C75.9874 96.6037 75.8408 97.1901 75.5476 97.6856C75.2543 98.1811 74.8499 98.5654 74.3342 98.8384C73.8286 99.1013 73.2522 99.2327 72.605 99.2327ZM72.332 98.1103C72.7365 98.1103 73.1056 98.0193 73.4393 97.8373C73.7831 97.6452 74.0561 97.3873 74.2583 97.0637C74.4606 96.7301 74.5617 96.3559 74.5617 95.9413C74.5617 95.5166 74.4656 95.1425 74.2735 94.8189C74.0814 94.4852 73.8235 94.2223 73.4999 94.0302C73.1865 93.8381 72.8326 93.742 72.4382 93.742C72.0742 93.742 71.7455 93.8128 71.4523 93.9544C71.159 94.0959 70.9164 94.2931 70.7242 94.5459C70.5321 94.7886 70.3956 95.0717 70.3147 95.3953V96.4419C70.3653 96.7654 70.4866 97.0536 70.6787 97.3064C70.8709 97.5592 71.1085 97.7564 71.3916 97.898C71.6849 98.0395 71.9983 98.1103 72.332 98.1103Z" fill="white"/>
<defs>
<linearGradient id="paint0_linear_808_1560" x1="40.4726" y1="0.495611" x2="40.4726" y2="79.6823" gradientUnits="userSpaceOnUse">
<stop stop-color="#61FD7D"/>
<stop offset="1" stop-color="#2BB826"/>
</linearGradient>
</defs>
</svg>
