<svg width="80" height="102" viewBox="0 0 80 102" fill="none" xmlns="http://www.w3.org/2000/svg">
<g clip-path="url(#clip0_808_1525)">
<path fill-rule="evenodd" clip-rule="evenodd" d="M18.4646 0.386719L61.653 0.386719C66.3662 0.40031 70.8825 2.28729 74.2153 5.63543C77.548 8.98356 79.4263 13.5207 79.4399 18.2557V61.2828C79.4246 66.0166 77.5456 70.5521 74.213 73.8989C70.8804 77.2456 66.3651 79.1317 61.653 79.1453H18.4646C13.7525 79.1317 9.23715 77.2456 5.90458 73.8989C2.57201 70.5521 0.692954 66.0166 0.677734 61.2828L0.677734 18.2557C0.691264 13.5207 2.56957 8.98356 5.90233 5.63543C9.23508 2.28729 13.7514 0.40031 18.4646 0.386719Z" fill="white"/>
<path d="M18.4644 0L61.6528 0C66.4675 0.0152826 71.0806 1.94351 74.4852 5.36374C77.8897 8.78396 79.809 13.4184 79.8242 18.2553V61.2824C79.8107 66.1193 77.8917 70.754 74.4866 74.1736C71.0816 77.5931 66.4674 79.5194 61.6528 79.5313H18.4644C13.6498 79.5194 9.03566 77.5931 5.6306 74.1736C2.22554 70.754 0.306507 66.1193 0.292969 61.2824L0.292969 18.2553C0.308181 13.4184 2.22755 8.78396 5.63206 5.36374C9.03658 1.94351 13.6497 0.0152826 18.4644 0ZM61.6528 0.772711L18.4644 0.772711C13.8522 0.782917 9.43172 2.6281 6.17036 5.90452C2.909 9.18093 1.07229 13.6218 1.06213 18.2553L1.06213 61.2824C1.07398 65.9148 2.91144 70.354 6.17262 73.6291C9.43379 76.9041 13.8533 78.7484 18.4644 78.7586H61.6528C66.264 78.7484 70.6834 76.9041 73.9446 73.6291C77.2058 70.354 79.0432 65.9148 79.0551 61.2824V18.2553C79.0449 13.6218 77.2082 9.18093 73.9469 5.90452C70.6855 2.6281 66.2651 0.782917 61.6528 0.772711Z" fill="#999999"/>
<path fill-rule="evenodd" clip-rule="evenodd" d="M67.5373 28.5004C67.5373 28.5004 66.9925 24.6368 65.3068 22.9047C63.1724 20.6638 60.7751 20.6509 59.6855 20.5157C51.84 19.9619 40.0334 19.9619 40.0334 19.9619C40.0334 19.9619 28.2588 19.9619 20.407 20.535C19.3109 20.6702 16.9201 20.6831 14.7857 22.924C13.1 24.6304 12.5615 28.5197 12.5615 28.5197C12.2142 31.549 12.0281 34.5948 12.0039 37.6441V41.9198C12.0284 44.969 12.2146 48.0148 12.5615 51.0442C12.5615 51.0442 13.1128 54.9078 14.7857 56.6399C16.9201 58.8808 19.7276 58.81 20.9839 59.0482C25.4706 59.4796 40.0591 59.6084 40.0591 59.6084C40.0591 59.6084 51.8529 59.6084 59.6983 59.0225C60.7944 58.8937 63.1852 58.8808 65.3196 56.6399C67.0053 54.9335 67.5566 51.0442 67.5566 51.0442C67.904 48.0127 68.0902 44.9648 68.1142 41.9133V37.6248C68.0816 34.5733 67.8911 31.5256 67.5438 28.4939L67.5373 28.5004Z" fill="#FF0000"/>
<path fill-rule="evenodd" clip-rule="evenodd" d="M34.2451 47.0779V31.2373L49.3976 39.1898L34.2451 47.0779Z" fill="white"/>
</g>
<path d="M15.0483 93.5916L10.9833 86.2808H12.7883L16.0493 92.3327L15.5943 92.363L18.825 86.2808H20.6148L16.5195 93.5916V97.2471H15.0483V93.5916ZM20.1137 94.0467C20.1137 93.4197 20.2603 92.8535 20.5536 92.3479C20.8569 91.8423 21.2715 91.4429 21.7973 91.1496C22.3231 90.8564 22.9197 90.7098 23.5871 90.7098C24.2747 90.7098 24.8764 90.8564 25.3921 91.1496C25.9078 91.4429 26.3072 91.8423 26.5903 92.3479C26.8735 92.8535 27.015 93.4197 27.015 94.0467C27.015 94.6736 26.8735 95.2449 26.5903 95.7606C26.3072 96.2662 25.9027 96.6656 25.3769 96.9589C24.8612 97.2521 24.2595 97.3987 23.5719 97.3987C22.9046 97.3987 22.308 97.2622 21.7821 96.9892C21.2664 96.7061 20.8569 96.3168 20.5536 95.8213C20.2603 95.3157 20.1137 94.7242 20.1137 94.0467ZM21.5243 94.0618C21.5243 94.4663 21.6153 94.8354 21.7973 95.1691C21.9793 95.4927 22.222 95.7505 22.5254 95.9426C22.8388 96.1348 23.1826 96.2308 23.5568 96.2308C23.9511 96.2308 24.3 96.1348 24.6034 95.9426C24.9168 95.7505 25.1595 95.4927 25.3314 95.1691C25.5033 94.8354 25.5893 94.4663 25.5893 94.0618C25.5893 93.6574 25.5033 93.2933 25.3314 92.9698C25.1595 92.6361 24.9168 92.3732 24.6034 92.181C24.3 91.9788 23.9511 91.8777 23.5568 91.8777C23.1725 91.8777 22.8237 91.9788 22.5102 92.181C22.2068 92.3833 21.9642 92.6512 21.7821 92.9849C21.6102 93.3085 21.5243 93.6675 21.5243 94.0618ZM30.912 97.4898C30.3457 97.4898 29.8755 97.3179 29.5014 96.9741C29.1373 96.6201 28.9452 96.1651 28.925 95.609V90.9676H30.3356V95.1084C30.3558 95.4522 30.4519 95.7303 30.6238 95.9426C30.8058 96.155 31.0889 96.2662 31.4732 96.2763C31.8271 96.2763 32.1405 96.1752 32.4136 95.973C32.6967 95.7606 32.9242 95.4775 33.0961 95.1236C33.268 94.7596 33.354 94.35 33.354 93.895V90.9676H34.7646V97.2471H33.4753L33.354 95.7L33.4298 95.973C33.3085 96.2662 33.1214 96.5291 32.8686 96.7617C32.6259 96.9842 32.3377 97.1611 32.004 97.2926C31.6703 97.424 31.3063 97.4898 30.912 97.4898ZM36.75 86.2808H44.0305V87.6914H41.088V97.2471H39.6167V87.6914H36.75V86.2808ZM47.1018 97.4898C46.5355 97.4898 46.0653 97.3179 45.6912 96.9741C45.3271 96.6201 45.135 96.1651 45.1148 95.609V90.9676H46.5254V95.1084C46.5456 95.4522 46.6417 95.7303 46.8136 95.9426C46.9956 96.155 47.2787 96.2662 47.663 96.2763C48.0169 96.2763 48.3304 96.1752 48.6034 95.973C48.8865 95.7606 49.114 95.4775 49.2859 95.1236C49.4578 94.7596 49.5438 94.35 49.5438 93.895V90.9676H50.9544V97.2471H49.6651L49.5438 95.7L49.6196 95.973C49.4983 96.2662 49.3112 96.5291 49.0584 96.7617C48.8157 96.9842 48.5275 97.1611 48.1938 97.2926C47.8602 97.424 47.4961 97.4898 47.1018 97.4898ZM57.2171 97.3987C56.6408 97.3987 56.1301 97.2723 55.6852 97.0196C55.2504 96.7668 54.9015 96.4482 54.6386 96.064L54.8055 95.6241V97.2471H53.3948V85.5072H54.7903V92.4086L54.7448 91.8777C54.9976 91.5339 55.3565 91.2558 55.8217 91.0435C56.2969 90.821 56.8228 90.7098 57.3991 90.7098C57.9654 90.7098 58.4811 90.8463 58.9463 91.1193C59.4114 91.3923 59.7805 91.7766 60.0535 92.272C60.3366 92.7574 60.4782 93.3388 60.4782 94.0163C60.4782 94.7242 60.3265 95.3309 60.0232 95.8365C59.7299 96.3421 59.3356 96.7314 58.8401 97.0044C58.3446 97.2673 57.8036 97.3987 57.2171 97.3987ZM56.9289 96.2005C57.3334 96.2005 57.6974 96.1044 58.021 95.9123C58.3446 95.7202 58.5974 95.4623 58.7794 95.1388C58.9614 94.8051 59.0524 94.4259 59.0524 94.0012C59.0524 93.5967 58.9564 93.2327 58.7642 92.9091C58.5822 92.5754 58.3294 92.3125 58.0058 92.1204C57.6924 91.9282 57.3334 91.8322 56.9289 91.8322C56.5851 91.8322 56.2666 91.8979 55.9734 92.0294C55.6801 92.1608 55.4324 92.3428 55.2301 92.5754C55.0279 92.7979 54.8863 93.0608 54.8055 93.3641V94.623C54.8863 94.9264 55.0229 95.1994 55.215 95.4421C55.4071 95.6747 55.6498 95.8617 55.943 96.0033C56.2363 96.1348 56.5649 96.2005 56.9289 96.2005ZM65.2981 97.3987C64.5802 97.3987 63.9633 97.2572 63.4476 96.9741C62.9319 96.6808 62.5325 96.2864 62.2494 95.791C61.9764 95.2854 61.8399 94.709 61.8399 94.0618C61.8399 93.445 61.9966 92.8838 62.3101 92.3782C62.6235 91.8726 63.0432 91.4682 63.569 91.1648C64.0948 90.8614 64.6813 90.7098 65.3284 90.7098C66.1576 90.7098 66.8452 90.9524 67.3913 91.4378C67.9373 91.9232 68.3064 92.5906 68.4985 93.44L63.3263 95.2601L62.9926 94.4259L67.2396 92.8788L66.9362 93.0759C66.8149 92.7422 66.6126 92.4541 66.3295 92.2114C66.0464 91.9586 65.6773 91.8322 65.2223 91.8322C64.838 91.8322 64.4942 91.9282 64.1909 92.1204C63.8875 92.3024 63.6499 92.5552 63.478 92.8788C63.3061 93.2023 63.2201 93.5714 63.2201 93.986C63.2201 94.4208 63.3111 94.8051 63.4931 95.1388C63.6752 95.4623 63.9229 95.7202 64.2364 95.9123C64.5599 96.0943 64.924 96.1853 65.3284 96.1853C65.6015 96.1853 65.8644 96.1348 66.1172 96.0336C66.3801 95.9325 66.6228 95.8011 66.8452 95.6393L67.4974 96.6859C67.184 96.8982 66.8301 97.0701 66.4357 97.2016C66.0514 97.333 65.6722 97.3987 65.2981 97.3987Z" fill="white"/>
<defs>
<clipPath id="clip0_808_1525">
<rect width="79.5313" height="79.5313" fill="white" transform="translate(0.292969)"/>
</clipPath>
</defs>
</svg>
