<svg width="418" height="208" viewBox="0 0 418 208" fill="none" xmlns="http://www.w3.org/2000/svg">
<g clip-path="url(#clip0_187_3909)">
<rect width="417.597" height="207.167" transform="translate(0.302246)" fill="#B9B9B9"/>
<g clip-path="url(#clip1_187_3909)">
<rect width="420" height="420" transform="translate(-1.89941 -58)" fill="white"/>
<path d="M178.101 122L-1.89941 302H358.101L178.101 122Z" fill="#6699FF"/>
<path d="M177.001 246.9C211.801 246.9 243.301 232.8 266.101 210L256.301 200.2C236.001 220.5 208.001 233 177.001 233C146.601 233 119.101 220.9 98.9006 201.3L89.1006 211.1C111.701 233.2 142.701 246.9 177.001 246.9Z" fill="#FEE94E"/>
<path d="M178.101 122L-1.89941 302V-58L178.101 122Z" fill="#0000FF"/>
<path d="M40.1006 120.9C40.1006 83.0998 55.4006 48.8998 80.2006 24.0998L71.7006 15.5998C44.8006 42.4998 28.1006 79.7998 28.1006 120.9C28.1006 162.6 45.2006 200.3 72.9006 227.3L81.4006 218.8C55.9006 193.9 40.1006 159.2 40.1006 120.9Z" fill="#FFBB33"/>
<path d="M89.0004 211.1L98.8004 201.3C77.8004 180.9 64.8004 152.4 64.8004 120.9C64.8004 89.8999 77.4004 61.8998 97.6004 41.5998L87.8004 31.7998C65.0004 54.5999 50.9004 86.0999 50.9004 120.9C51.0004 156.2 65.5004 188.2 89.0004 211.1Z" fill="#FFBB33"/>
<path d="M718.101 302L358.101 302L718.101 -58L718.101 302Z" fill="#FFBB33"/>
<path d="M358.101 -58V302L-1.89941 -58H358.101Z" fill="#FFBB33"/>
<path d="M310.101 -58L274.101 -58L274.101 218L310.101 254L310.101 -58Z" fill="#0000FF"/>
<path d="M238.101 -58L202.101 -58L202.101 146L238.101 182L238.101 -58Z" fill="#0000FF"/>
<path d="M166.101 -58L130.101 -58L130.101 73.9998L166.101 110L166.101 -58Z" fill="#0000FF"/>
<path d="M94.1006 -58L58.1006 -58L58.1006 1.99992L94.1006 37.9999L94.1006 -58Z" fill="#0000FF"/>
<path d="M334.101 194L310.101 218V194L322.101 182L334.101 194Z" fill="#FEE94E"/>
<path d="M286.101 194L310.101 218V194L298.101 182L286.101 194Z" fill="#FFBB33"/>
<path d="M334.101 122L310.101 146V122L322.101 110L334.101 122Z" fill="#FEE94E"/>
<path d="M286.101 122L310.101 146V122L298.101 110L286.101 122Z" fill="#FFBB33"/>
<path d="M334.101 50L310.101 74V50L322.101 38L334.101 50Z" fill="#FEE94E"/>
<path d="M286.101 50L310.101 74V50L298.101 38L286.101 50Z" fill="#FFBB33"/>
<path d="M334.101 -22L310.101 2V-22L322.101 -34L334.101 -22Z" fill="#FEE94E"/>
<path d="M286.101 -22L310.101 2V-22L298.101 -34L286.101 -22Z" fill="#FFBB33"/>
<path d="M262.101 122L238.101 146V122L250.101 110L262.101 122Z" fill="#FEE94E"/>
<path d="M214.101 122L238.101 146V122L226.101 110L214.101 122Z" fill="#FFBB33"/>
<path d="M262.101 50L238.101 74V50L250.101 38L262.101 50Z" fill="#FEE94E"/>
<path d="M214.101 50L238.101 74V50L226.101 38L214.101 50Z" fill="#FFBB33"/>
<path d="M262.101 -22L238.101 2V-22L250.101 -34L262.101 -22Z" fill="#FEE94E"/>
<path d="M214.101 -22L238.101 2V-22L226.101 -34L214.101 -22Z" fill="#FFBB33"/>
<path d="M190.101 50L166.101 74V50L178.101 38L190.101 50Z" fill="#FEE94E"/>
<path d="M142.101 50L166.101 74V50L154.101 38L142.101 50Z" fill="#FFBB33"/>
<path d="M190.101 -22L166.101 2V-22L178.101 -34L190.101 -22Z" fill="#FEE94E"/>
<path d="M142.101 -22L166.101 2V-22L154.101 -34L142.101 -22Z" fill="#FFBB33"/>
<path d="M118.101 -22L94.1006 2V-22L106.101 -34L118.101 -22Z" fill="#FEE94E"/>
<path d="M70.1006 -22L94.1006 2V-22L82.1006 -34L70.1006 -22Z" fill="#FFBB33"/>
<path d="M358.101 -58V302L718.101 -58H358.101Z" fill="#0000FF"/>
</g>
</g>
<defs>
<clipPath id="clip0_187_3909">
<rect width="417.597" height="207.167" fill="white" transform="translate(0.302246)"/>
</clipPath>
<clipPath id="clip1_187_3909">
<rect width="420" height="420" fill="white" transform="translate(-1.89941 -58)"/>
</clipPath>
</defs>
</svg>
