<svg width="418" height="208" viewBox="0 0 418 208" fill="none" xmlns="http://www.w3.org/2000/svg">
<g clip-path="url(#clip0_187_4168)">
<rect width="417.597" height="207.167" transform="translate(0.302246)" fill="#B9B9B9"/>
<path d="M164.269 140.286H254.225C257.854 140.286 260.231 136.48 258.647 133.208L240.444 95.6242C238.988 92.6187 235.033 91.9062 232.624 94.2155L218.946 107.329C216.797 109.389 213.33 109.08 211.578 106.673L193.152 81.3647C190.97 78.3677 186.391 78.7722 184.765 82.1056L159.853 133.197C158.257 136.469 160.635 140.286 164.269 140.286Z" fill="white"/>
<path d="M225.702 74.7631C225.702 79.1165 222.181 82.6456 217.837 82.6456C213.494 82.6456 209.973 79.1165 209.973 74.7631C209.973 70.4097 213.494 66.8806 217.837 66.8806C222.181 66.8806 225.702 70.4097 225.702 74.7631Z" fill="white"/>
<g clip-path="url(#clip1_187_4168)">
<rect width="1080" height="1080" transform="translate(-605.899 -758)" fill="white"/>
<path d="M-65.8994 142L114.101 322L114.101 -38L-65.8994 142Z" fill="#00CC00"/>
<path d="M-65.8994 142L114.101 322L-245.899 322L-65.8994 142Z" fill="#00FF00"/>
<path d="M-245.899 -38V322L114.101 -38H-245.899Z" fill="#CC00CC"/>
<path d="M18.1006 -38L54.1006 -38L54.1006 21.9999L18.1006 57.9999L18.1006 -38Z" fill="#FF66FF"/>
<path d="M-5.89941 -2L18.1006 22V-2L6.10059 -14L-5.89941 -2Z" fill="#00CC00"/>
<path d="M42.1006 -2L18.1006 22V-2L30.1006 -14L42.1006 -2Z" fill="#00FF00"/>
<path d="M114.101 -38V322L186.101 250V-38H114.101Z" fill="#00FF00"/>
<path d="M186.101 -38V250L258.101 178V-38H186.101Z" fill="#00CC00"/>
<path d="M228.101 124L210.101 142L204.101 148L228.101 172L240.101 160L228.101 148L240.101 136L228.101 124Z" fill="#00FF00"/>
<path d="M228.101 52L210.101 70L204.101 76L228.101 100L240.101 88L228.101 76L240.101 64L228.101 52Z" fill="#00FF00"/>
<path d="M228.101 -20L210.101 -2L204.101 4L228.101 28L240.101 16L228.101 4L240.101 -8L228.101 -20Z" fill="#00FF00"/>
<path d="M258.101 -38V178L330.101 106V-38H258.101Z" fill="#00FF00"/>
<path d="M330.101 -38V106L402.101 34V-38H330.101Z" fill="#00CC00"/>
<path d="M402.101 -38H474.101L402.101 34V-38Z" fill="#00FF00"/>
<path d="M372.101 -20L354.101 -2L348.101 4L372.101 28L384.101 16L372.101 4L384.101 -8L372.101 -20Z" fill="#00FF00"/>
<path d="M474.101 -38L114.101 322H474.101V-38Z" fill="#CC00CC"/>
<path d="M474.101 -38V322L294.101 142L474.101 -38Z" fill="#FF66FF"/>
<path d="M387.601 235.5C411.501 211.677 426.101 178.283 426.101 142C426.101 105.617 411.501 72.3232 387.601 48.5L294.101 142L387.601 235.5Z" fill="#CC00CC"/>
<path d="M387.601 235.5L294.101 142L200.601 235.5C224.424 259.4 257.818 274 294.101 274C330.384 274 363.777 259.4 387.601 235.5Z" fill="#FF66FF"/>
</g>
<path d="M0.302246 179.011H102.721C105.424 179.011 107.615 181.202 107.615 183.904V207.167H0.302246V179.011Z" fill="#DFB0EB"/>
<path d="M19.1396 193.834C19.1396 194.642 19.0368 195.378 18.8313 196.042C18.6306 196.702 18.3272 197.27 17.9209 197.748C17.5147 198.221 17.0058 198.587 16.394 198.845C15.7823 199.103 15.0655 199.232 14.2435 199.232C13.4072 199.232 12.6808 199.103 12.0643 198.845C11.4525 198.587 10.9436 198.219 10.5374 197.741C10.1359 197.263 9.83485 196.692 9.63413 196.028C9.43341 195.364 9.33306 194.628 9.33306 193.82C9.33306 192.74 9.50988 191.798 9.86353 190.996C10.222 190.188 10.7644 189.562 11.4908 189.117C12.222 188.668 13.1443 188.444 14.2578 188.444C15.3474 188.444 16.2531 188.666 16.9747 189.11C17.6963 189.555 18.2364 190.181 18.5948 190.988C18.958 191.791 19.1396 192.74 19.1396 193.834ZM11.1395 193.834C11.1395 194.642 11.2494 195.342 11.4693 195.935C11.6891 196.523 12.026 196.977 12.48 197.297C12.9388 197.612 13.5266 197.77 14.2435 197.77C14.9651 197.77 15.5529 197.612 16.0069 197.297C16.461 196.977 16.7955 196.523 17.0105 195.935C17.2256 195.342 17.3331 194.642 17.3331 193.834C17.3331 192.606 17.087 191.646 16.5948 190.953C16.1073 190.255 15.3283 189.906 14.2578 189.906C13.541 189.906 12.9508 190.064 12.4872 190.379C12.0284 190.695 11.6891 191.146 11.4693 191.734C11.2494 192.317 11.1395 193.017 11.1395 193.834ZM25.3547 191.003C26.2484 191.003 26.9437 191.235 27.4407 191.698C27.9425 192.157 28.1934 192.895 28.1934 193.913V199.089H26.5088V194.229C26.5088 193.612 26.3822 193.151 26.1289 192.845C25.8756 192.534 25.4837 192.379 24.9533 192.379C24.1838 192.379 23.6486 192.616 23.3475 193.089C23.0512 193.562 22.9031 194.248 22.9031 195.146V199.089H21.2185V191.153H22.5303L22.7669 192.229H22.8601C23.0321 191.951 23.2448 191.724 23.4981 191.548C23.7561 191.366 24.0429 191.23 24.3583 191.139C24.6785 191.048 25.0106 191.003 25.3547 191.003ZM32.2436 199.089H30.5519V187.935H32.2436V199.089ZM36.3369 191.153V199.089H34.6523V191.153H36.3369ZM35.5053 188.114C35.7634 188.114 35.9856 188.183 36.172 188.322C36.3632 188.46 36.4587 188.699 36.4587 189.039C36.4587 189.373 36.3632 189.612 36.172 189.755C35.9856 189.894 35.7634 189.963 35.5053 189.963C35.2377 189.963 35.0107 189.894 34.8243 189.755C34.6427 189.612 34.5519 189.373 34.5519 189.039C34.5519 188.699 34.6427 188.46 34.8243 188.322C35.0107 188.183 35.2377 188.114 35.5053 188.114ZM42.8889 191.003C43.7826 191.003 44.4779 191.235 44.9749 191.698C45.4767 192.157 45.7276 192.895 45.7276 193.913V199.089H44.043V194.229C44.043 193.612 43.9164 193.151 43.6631 192.845C43.4098 192.534 43.0179 192.379 42.4875 192.379C41.718 192.379 41.1828 192.616 40.8817 193.089C40.5854 193.562 40.4373 194.248 40.4373 195.146V199.089H38.7527V191.153H40.0645L40.3011 192.229H40.3942C40.5663 191.951 40.779 191.724 41.0322 191.548C41.2903 191.366 41.5771 191.23 41.8925 191.139C42.2127 191.048 42.5448 191.003 42.8889 191.003ZM51.2474 191.003C51.9547 191.003 52.5616 191.149 53.0682 191.44C53.5748 191.732 53.9643 192.145 54.2367 192.68C54.5091 193.215 54.6453 193.856 54.6453 194.601V195.505H49.3477C49.3668 196.274 49.5723 196.867 49.9642 197.282C50.3609 197.698 50.9152 197.906 51.6273 197.906C52.1339 197.906 52.5879 197.858 52.9893 197.763C53.3956 197.662 53.8137 197.517 54.2438 197.325V198.695C53.8472 198.881 53.4433 199.017 53.0323 199.103C52.6214 199.189 52.1291 199.232 51.5556 199.232C50.7767 199.232 50.0909 199.082 49.4983 198.781C48.9105 198.475 48.4493 198.021 48.1147 197.419C47.785 196.816 47.6201 196.069 47.6201 195.175C47.6201 194.286 47.7707 193.531 48.0717 192.91C48.3728 192.288 48.7958 191.815 49.3406 191.49C49.8854 191.165 50.521 191.003 51.2474 191.003ZM51.2474 192.272C50.7169 192.272 50.2868 192.444 49.9571 192.788C49.6321 193.132 49.4409 193.636 49.3836 194.3H52.9965C52.9917 193.904 52.9248 193.552 52.7958 193.247C52.6715 192.941 52.4804 192.702 52.2223 192.53C51.969 192.358 51.644 192.272 51.2474 192.272ZM66.4662 199.089H60.5306V188.608H66.4662V190.057H62.2511V192.902H66.2009V194.343H62.2511V197.634H66.4662V199.089ZM70.373 199.089L67.355 191.153H69.14L70.7744 195.813C70.8796 196.109 70.9752 196.429 71.0612 196.773C71.1472 197.118 71.2069 197.407 71.2404 197.641H71.2977C71.3312 197.397 71.3957 197.106 71.4913 196.766C71.5869 196.422 71.6848 196.104 71.7852 195.813L73.4196 191.153H75.1974L72.1795 199.089H70.373ZM79.563 191.003C80.2703 191.003 80.8773 191.149 81.3838 191.44C81.8904 191.732 82.2799 192.145 82.5523 192.68C82.8247 193.215 82.9609 193.856 82.9609 194.601V195.505H77.6634C77.6825 196.274 77.888 196.867 78.2799 197.282C78.6765 197.698 79.2309 197.906 79.943 197.906C80.4495 197.906 80.9036 197.858 81.305 197.763C81.7112 197.662 82.1294 197.517 82.5595 197.325V198.695C82.1628 198.881 81.759 199.017 81.348 199.103C80.937 199.189 80.4448 199.232 79.8713 199.232C79.0923 199.232 78.4065 199.082 77.8139 198.781C77.2261 198.475 76.7649 198.021 76.4304 197.419C76.1006 196.816 75.9358 196.069 75.9358 195.175C75.9358 194.286 76.0863 193.531 76.3874 192.91C76.6885 192.288 77.1114 191.815 77.6562 191.49C78.201 191.165 78.8366 191.003 79.563 191.003ZM79.563 192.272C79.0326 192.272 78.6025 192.444 78.2727 192.788C77.9477 193.132 77.7566 193.636 77.6992 194.3H81.3122C81.3074 193.904 81.2405 193.552 81.1114 193.247C80.9872 192.941 80.796 192.702 80.538 192.53C80.2847 192.358 79.9597 192.272 79.563 192.272ZM88.9968 191.003C89.8905 191.003 90.5858 191.235 91.0829 191.698C91.5846 192.157 91.8355 192.895 91.8355 193.913V199.089H90.1509V194.229C90.1509 193.612 90.0243 193.151 89.771 192.845C89.5177 192.534 89.1258 192.379 88.5954 192.379C87.826 192.379 87.2907 192.616 86.9896 193.089C86.6933 193.562 86.5452 194.248 86.5452 195.146V199.089H84.8606V191.153H86.1724L86.409 192.229H86.5022C86.6742 191.951 86.8869 191.724 87.1402 191.548C87.3982 191.366 87.685 191.23 88.0004 191.139C88.3206 191.048 88.6527 191.003 88.9968 191.003ZM97.1474 197.87C97.3673 197.87 97.5847 197.851 97.7998 197.813C98.0148 197.77 98.2107 197.72 98.3876 197.662V198.938C98.2012 199.02 97.9599 199.089 97.6636 199.146C97.3673 199.204 97.059 199.232 96.7388 199.232C96.2896 199.232 95.8858 199.158 95.5273 199.01C95.1689 198.857 94.8846 198.597 94.6743 198.229C94.464 197.861 94.3589 197.352 94.3589 196.702V192.436H93.2764V191.684L94.4377 191.089L94.9897 189.39H96.0506V191.153H98.3231V192.436H96.0506V196.68C96.0506 197.082 96.151 197.38 96.3517 197.576C96.5524 197.772 96.8177 197.87 97.1474 197.87Z" fill="#2D2C3C"/>
</g>
<defs>
<clipPath id="clip0_187_4168">
<rect width="417.597" height="207.167" fill="white" transform="translate(0.302246)"/>
</clipPath>
<clipPath id="clip1_187_4168">
<rect width="1080" height="1080" fill="white" transform="translate(-605.899 -758)"/>
</clipPath>
</defs>
</svg>
