<svg width="414" height="208" viewBox="0 0 414 208" fill="none" xmlns="http://www.w3.org/2000/svg">
<g clip-path="url(#clip0_187_4427)">
<rect width="417.597" height="207.167" transform="translate(0.302246)" fill="#B9B9B9"/>
<path d="M164.269 140.286H254.225C257.854 140.286 260.231 136.48 258.647 133.208L240.444 95.6242C238.988 92.6187 235.033 91.9062 232.624 94.2155L218.946 107.329C216.797 109.389 213.33 109.08 211.578 106.673L193.152 81.3647C190.97 78.3677 186.391 78.7722 184.765 82.1056L159.853 133.197C158.257 136.469 160.635 140.286 164.269 140.286Z" fill="white"/>
<path d="M225.702 74.7631C225.702 79.1165 222.181 82.6456 217.837 82.6456C213.494 82.6456 209.973 79.1165 209.973 74.7631C209.973 70.4097 213.494 66.8806 217.837 66.8806C222.181 66.8806 225.702 70.4097 225.702 74.7631Z" fill="white"/>
<g clip-path="url(#clip1_187_4427)">
<rect width="1080" height="1080" transform="translate(-330.899 -436)" fill="white"/>
<path d="M209.101 104L389.101 -76L29.1006 -76L209.101 104Z" fill="#FF0000"/>
<path d="M210.201 -43.7C169.101 -43.7 131.901 -26.9999 104.901 -0.0999237L113.401 8.40008C138.201 -16.3999 172.401 -31.7 210.201 -31.7C247.401 -31.7 281.101 -16.7999 305.801 7.20007L314.301 -1.29993C287.501 -27.4999 250.801 -43.7 210.201 -43.7Z" fill="#00E5E5"/>
<path d="M210.201 -20.8999C175.401 -20.8999 143.901 -6.79988 121.101 16.0001L130.901 25.8001C151.201 5.50011 179.201 -6.99988 210.201 -6.99988C240.601 -6.99988 268.101 5.10014 288.301 24.7001L298.101 14.9002C275.501 -7.19985 244.501 -20.8999 210.201 -20.8999Z" fill="#00E5E5"/>
<path d="M209.101 104L389.101 -76L389.101 284L209.101 104Z" fill="#FF0000"/>
<path d="M347.101 105.1C347.101 142.9 331.801 177.1 307.001 201.9L315.501 210.4C342.401 183.5 359.101 146.2 359.101 105.1C359.101 63.4002 342.001 25.7002 314.301 -1.29981L305.801 7.20019C331.301 32.1002 347.101 66.8002 347.101 105.1Z" fill="#00E5E5"/>
<path d="M298.201 14.9001L288.401 24.7001C309.401 45.1001 322.401 73.6001 322.401 105.1C322.401 136.1 309.801 164.1 289.601 184.4L299.401 194.2C322.201 171.4 336.301 139.9 336.301 105.1C336.201 69.8001 321.701 37.8001 298.201 14.9001Z" fill="#00E5E5"/>
<path d="M389.101 284L389.101 -76L749.101 284L389.101 284Z" fill="#00E5E5"/>
<path d="M461.101 68L389.101 -4L389.101 68L461.101 68Z" fill="#80FFFF"/>
<path d="M461.101 140L389.101 68L389.101 140L461.101 140Z" fill="#80FFFF"/>
<path d="M461.101 212L389.101 140L389.101 212L461.101 212Z" fill="#80FFFF"/>
<path d="M749.101 -76V284L389.101 -76H749.101Z" fill="#00E5E5"/>
<path d="M29.1006 284L-330.899 -76L-330.899 284L29.1006 284Z" fill="#80FFFF"/>
<path d="M29.1006 284L-330.899 284L-150.899 104L29.1006 284Z" fill="#00E5E5"/>
<path d="M389.101 284L29.1006 -76L29.1006 284L389.101 284Z" fill="#FF8080"/>
<path d="M389.101 284L29.1006 284L209.101 104L389.101 284Z" fill="#80FFFF"/>
<path d="M-330.899 -76L29.1006 284L29.1006 -76L-330.899 -76Z" fill="#FF0000"/>
<path d="M-330.899 -76L29.1006 -76L-150.899 104L-330.899 -76Z" fill="#FF8080"/>
</g>
<path d="M0.302246 179.011H103.721C106.424 179.011 108.615 181.202 108.615 183.904V207.167H0.302246V179.011Z" fill="#B0E4EB"/>
<path d="M19.1396 193.834C19.1396 194.642 19.0368 195.378 18.8313 196.042C18.6306 196.702 18.3272 197.27 17.9209 197.748C17.5147 198.221 17.0058 198.587 16.394 198.845C15.7823 199.103 15.0655 199.232 14.2435 199.232C13.4072 199.232 12.6808 199.103 12.0643 198.845C11.4525 198.587 10.9436 198.219 10.5374 197.741C10.1359 197.263 9.83485 196.692 9.63413 196.028C9.43341 195.364 9.33306 194.628 9.33306 193.82C9.33306 192.74 9.50988 191.798 9.86353 190.996C10.222 190.188 10.7644 189.562 11.4908 189.117C12.222 188.668 13.1443 188.444 14.2578 188.444C15.3474 188.444 16.2531 188.666 16.9747 189.11C17.6963 189.555 18.2364 190.181 18.5948 190.988C18.958 191.791 19.1396 192.74 19.1396 193.834ZM11.1395 193.834C11.1395 194.642 11.2494 195.342 11.4693 195.935C11.6891 196.523 12.026 196.977 12.48 197.297C12.9388 197.612 13.5266 197.77 14.2435 197.77C14.9651 197.77 15.5529 197.612 16.0069 197.297C16.461 196.977 16.7955 196.523 17.0105 195.935C17.2256 195.342 17.3331 194.642 17.3331 193.834C17.3331 192.606 17.087 191.646 16.5948 190.953C16.1073 190.255 15.3283 189.906 14.2578 189.906C13.541 189.906 12.9508 190.064 12.4872 190.379C12.0284 190.695 11.6891 191.146 11.4693 191.734C11.2494 192.317 11.1395 193.017 11.1395 193.834ZM25.1827 192.436H23.2543V199.089H21.5697V192.436H20.2722V191.626L21.5697 191.132V190.58C21.5697 189.906 21.6749 189.371 21.8851 188.974C22.1002 188.577 22.406 188.293 22.8027 188.121C23.2041 187.944 23.682 187.856 24.2364 187.856C24.5996 187.856 24.9318 187.887 25.2328 187.949C25.5339 188.006 25.7872 188.073 25.9927 188.15L25.5554 189.426C25.3929 189.373 25.2113 189.325 25.0106 189.282C24.8099 189.235 24.5948 189.211 24.3654 189.211C23.9831 189.211 23.7012 189.33 23.5196 189.569C23.3427 189.808 23.2543 190.157 23.2543 190.616V191.153H25.1827V192.436ZM30.4945 192.436H28.5662V199.089H26.8816V192.436H25.5841V191.626L26.8816 191.132V190.58C26.8816 189.906 26.9867 189.371 27.197 188.974C27.4121 188.577 27.7179 188.293 28.1146 188.121C28.516 187.944 28.9939 187.856 29.5483 187.856C29.9115 187.856 30.2436 187.887 30.5447 187.949C30.8458 188.006 31.0991 188.073 31.3046 188.15L30.8673 189.426C30.7048 189.373 30.5232 189.325 30.3225 189.282C30.1218 189.235 29.9067 189.211 29.6773 189.211C29.295 189.211 29.013 189.33 28.8314 189.569C28.6546 189.808 28.5662 190.157 28.5662 190.616V191.153H30.4945V192.436ZM33.534 199.089H31.8422V187.935H33.534V199.089ZM37.6129 191.153V199.089H35.9283V191.153H37.6129ZM36.7813 188.114C37.0394 188.114 37.2616 188.183 37.448 188.322C37.6391 188.46 37.7347 188.699 37.7347 189.039C37.7347 189.373 37.6391 189.612 37.448 189.755C37.2616 189.894 37.0394 189.963 36.7813 189.963C36.5137 189.963 36.2867 189.894 36.1003 189.755C35.9187 189.612 35.8279 189.373 35.8279 189.039C35.8279 188.699 35.9187 188.46 36.1003 188.322C36.2867 188.183 36.5137 188.114 36.7813 188.114ZM44.1649 191.003C45.0586 191.003 45.7539 191.235 46.2509 191.698C46.7527 192.157 47.0036 192.895 47.0036 193.913V199.089H45.319V194.229C45.319 193.612 45.1924 193.151 44.9391 192.845C44.6858 192.534 44.2939 192.379 43.7635 192.379C42.994 192.379 42.4588 192.616 42.1577 193.089C41.8614 193.562 41.7133 194.248 41.7133 195.146V199.089H40.0287V191.153H41.3405L41.5771 192.229H41.6702C41.8423 191.951 42.055 191.724 42.3082 191.548C42.5663 191.366 42.8531 191.23 43.1685 191.139C43.4887 191.048 43.8208 191.003 44.1649 191.003ZM52.5234 191.003C53.2307 191.003 53.8376 191.149 54.3442 191.44C54.8508 191.732 55.2403 192.145 55.5127 192.68C55.7851 193.215 55.9213 193.856 55.9213 194.601V195.505H50.6237C50.6428 196.274 50.8483 196.867 51.2402 197.282C51.6369 197.698 52.1912 197.906 52.9033 197.906C53.4099 197.906 53.8639 197.858 54.2653 197.763C54.6716 197.662 55.0897 197.517 55.5198 197.325V198.695C55.1232 198.881 54.7193 199.017 54.3083 199.103C53.8974 199.189 53.4051 199.232 52.8316 199.232C52.0527 199.232 51.3669 199.082 50.7743 198.781C50.1864 198.475 49.7253 198.021 49.3907 197.419C49.061 196.816 48.8961 196.069 48.8961 195.175C48.8961 194.286 49.0467 193.531 49.3477 192.91C49.6488 192.288 50.0718 191.815 50.6166 191.49C51.1614 191.165 51.797 191.003 52.5234 191.003ZM52.5234 192.272C51.9929 192.272 51.5628 192.444 51.2331 192.788C50.9081 193.132 50.7169 193.636 50.6596 194.3H54.2725C54.2677 193.904 54.2008 193.552 54.0718 193.247C53.9475 192.941 53.7564 192.702 53.4983 192.53C53.245 192.358 52.92 192.272 52.5234 192.272ZM67.7421 199.089H61.8066V188.608H67.7421V190.057H63.5271V192.902H67.4769V194.343H63.5271V197.634H67.7421V199.089ZM71.649 199.089L68.631 191.153H70.416L72.0504 195.813C72.1556 196.109 72.2511 196.429 72.3372 196.773C72.4232 197.118 72.4829 197.407 72.5164 197.641H72.5737C72.6072 197.397 72.6717 197.106 72.7673 196.766C72.8629 196.422 72.9608 196.104 73.0612 195.813L74.6956 191.153H76.4734L73.4555 199.089H71.649ZM80.839 191.003C81.5463 191.003 82.1533 191.149 82.6598 191.44C83.1664 191.732 83.5559 192.145 83.8283 192.68C84.1007 193.215 84.2369 193.856 84.2369 194.601V195.505H78.9394C78.9585 196.274 79.164 196.867 79.5559 197.282C79.9525 197.698 80.5069 197.906 81.219 197.906C81.7255 197.906 82.1795 197.858 82.581 197.763C82.9872 197.662 83.4054 197.517 83.8355 197.325V198.695C83.4388 198.881 83.035 199.017 82.624 199.103C82.213 199.189 81.7208 199.232 81.1473 199.232C80.3683 199.232 79.6825 199.082 79.0899 198.781C78.5021 198.475 78.0409 198.021 77.7064 197.419C77.3766 196.816 77.2118 196.069 77.2118 195.175C77.2118 194.286 77.3623 193.531 77.6634 192.91C77.9645 192.288 78.3874 191.815 78.9322 191.49C79.477 191.165 80.1126 191.003 80.839 191.003ZM80.839 192.272C80.3086 192.272 79.8785 192.444 79.5487 192.788C79.2237 193.132 79.0326 193.636 78.9752 194.3H82.5882C82.5834 193.904 82.5165 193.552 82.3874 193.247C82.2632 192.941 82.072 192.702 81.814 192.53C81.5607 192.358 81.2357 192.272 80.839 192.272ZM90.2728 191.003C91.1665 191.003 91.8618 191.235 92.3588 191.698C92.8606 192.157 93.1115 192.895 93.1115 193.913V199.089H91.4269V194.229C91.4269 193.612 91.3003 193.151 91.047 192.845C90.7937 192.534 90.4018 192.379 89.8714 192.379C89.1019 192.379 88.5667 192.616 88.2656 193.089C87.9693 193.562 87.8212 194.248 87.8212 195.146V199.089H86.1366V191.153H87.4484L87.685 192.229H87.7782C87.9502 191.951 88.1629 191.724 88.4162 191.548C88.6742 191.366 88.961 191.23 89.2764 191.139C89.5966 191.048 89.9287 191.003 90.2728 191.003ZM98.4234 197.87C98.6432 197.87 98.8607 197.851 99.0757 197.813C99.2908 197.77 99.4867 197.72 99.6636 197.662V198.938C99.4772 199.02 99.2358 199.089 98.9395 199.146C98.6432 199.204 98.335 199.232 98.0148 199.232C97.5656 199.232 97.1618 199.158 96.8033 199.01C96.4449 198.857 96.1605 198.597 95.9503 198.229C95.74 197.861 95.6349 197.352 95.6349 196.702V192.436H94.5524V191.684L95.7137 191.089L96.2657 189.39H97.3266V191.153H99.599V192.436H97.3266V196.68C97.3266 197.082 97.427 197.38 97.6277 197.576C97.8284 197.772 98.0937 197.87 98.4234 197.87Z" fill="#2D2C3C"/>
</g>
<defs>
<clipPath id="clip0_187_4427">
<rect width="417.597" height="207.167" fill="white" transform="translate(0.302246)"/>
</clipPath>
<clipPath id="clip1_187_4427">
<rect width="1080" height="1080" fill="white" transform="translate(-330.899 -436)"/>
</clipPath>
</defs>
</svg>
