<svg width="554" height="404" viewBox="0 0 554 404" fill="none" xmlns="http://www.w3.org/2000/svg">
<path d="M482.628 67.589H0V403.345H482.628V67.589Z" fill="#1D044A"/>
<path d="M496.457 57.5275H13.8286V393.283H496.457V57.5275Z" fill="white"/>
<path d="M496.457 57.5275H13.8286V93.1841H496.457V57.5275Z" fill="#AB4DF0"/>
<path d="M496.457 57.5275H13.8286V393.283H496.457V57.5275Z" stroke="#1D044A" stroke-miterlimit="10"/>
<path d="M13.8286 93.1841H496.457" stroke="#1D044A" stroke-miterlimit="10"/>
<path d="M468.485 83.4963L484.781 67.2153" stroke="#1D044A" stroke-miterlimit="10"/>
<path d="M484.781 83.4963L468.485 67.2153" stroke="#1D044A" stroke-miterlimit="10"/>
<path d="M453.221 67.918H438.271V82.8683H453.221V67.918Z" stroke="#1D044A" stroke-miterlimit="10"/>
<path d="M425.323 75.3931H408.145" stroke="#1D044A" stroke-miterlimit="10"/>
<path d="M515.31 38.6899H32.6816V374.445H515.31V38.6899Z" fill="white"/>
<path d="M515.31 38.6899H32.6816V74.3465H515.31V38.6899Z" fill="#FF6AC3"/>
<path d="M515.31 38.6899H32.6816V374.445H515.31V38.6899Z" stroke="#1D044A" stroke-miterlimit="10"/>
<path d="M32.6816 74.3465H515.31" stroke="#1D044A" stroke-miterlimit="10"/>
<path d="M487.338 64.6586L503.619 48.3777" stroke="#1D044A" stroke-miterlimit="10"/>
<path d="M503.619 64.6586L487.338 48.3777" stroke="#1D044A" stroke-miterlimit="10"/>
<path d="M472.059 49.0803H457.108V64.0307H472.059V49.0803Z" stroke="#1D044A" stroke-miterlimit="10"/>
<path d="M444.176 56.5555H426.998" stroke="#1D044A" stroke-miterlimit="10"/>
<path d="M534.148 19.8374H51.5195V355.593H534.148V19.8374Z" fill="white"/>
<path d="M534.148 19.8374H51.5195V55.4941H534.148V19.8374Z" fill="#FF9D00"/>
<path d="M534.148 19.8374H51.5195V355.593H534.148V19.8374Z" stroke="#1D044A" stroke-miterlimit="10"/>
<path d="M51.5195 55.494H534.148" stroke="#1D044A" stroke-miterlimit="10"/>
<path d="M506.177 45.8063L522.473 29.5254" stroke="#1D044A" stroke-miterlimit="10"/>
<path d="M522.473 45.8063L506.177 29.5254" stroke="#1D044A" stroke-miterlimit="10"/>
<path d="M490.912 30.228H475.961V45.1784H490.912V30.228Z" stroke="#1D044A" stroke-miterlimit="10"/>
<path d="M463.014 37.7031H445.836" stroke="#1D044A" stroke-miterlimit="10"/>
<path d="M552.999 1H70.3711V336.756H552.999V1Z" fill="#93AFD7"/>
<path d="M552.999 1H70.3711V336.756H552.999V1Z" stroke="#1D044A" stroke-miterlimit="10"/>
<path d="M70.3711 36.6566H552.999" stroke="#1D044A" stroke-miterlimit="10"/>
<path d="M552.999 1H70.3711V36.6566H552.999V1Z" fill="#FFD900" stroke="#1D044A" stroke-miterlimit="10"/>
<path d="M525.028 26.9688L541.309 10.6879" stroke="#1D044A" stroke-miterlimit="10"/>
<path d="M541.309 26.9688L525.028 10.6879" stroke="#1D044A" stroke-miterlimit="10"/>
<path d="M509.747 11.3905H494.796V26.3409H509.747V11.3905Z" stroke="#1D044A" stroke-miterlimit="10"/>
<path d="M481.865 18.8656H464.688" stroke="#1D044A" stroke-miterlimit="10"/>
<path d="M229.085 305.731C229.085 301.726 202.855 298.479 170.498 298.479C138.141 298.479 111.911 301.726 111.911 305.731C111.911 309.735 138.141 312.988 170.498 312.988C202.855 312.988 229.085 309.741 229.085 305.731Z" fill="#FFC051"/>
<path d="M337.434 305.731C337.434 301.726 310.686 298.479 277.69 298.479C244.693 298.479 217.946 301.726 217.946 305.731C217.946 309.735 244.693 312.988 277.69 312.988C310.686 312.988 337.434 309.741 337.434 305.731Z" fill="#FFC051"/>
<path d="M491.76 299.422C491.76 294.51 462.479 290.523 426.355 290.523C390.23 290.523 360.949 294.504 360.949 299.422C360.949 304.34 390.23 308.321 426.355 308.321C462.479 308.321 491.76 304.34 491.76 299.422Z" fill="#FF367C"/>
<path d="M512.793 281.38H240.467" stroke="black" stroke-width="2" stroke-linecap="round" stroke-linejoin="round"/>
<path d="M227.428 281.38H171.591" stroke="black" stroke-width="2" stroke-linecap="round" stroke-linejoin="round"/>
<path d="M109.371 281.38H125.584" stroke="black" stroke-width="2" stroke-linecap="round" stroke-linejoin="round"/>
<path d="M135.845 281.38H146.14" stroke="black" stroke-width="2" stroke-linecap="round" stroke-linejoin="round"/>
<path d="M176.265 76.184V78.4771" stroke="black" stroke-width="2" stroke-linecap="round" stroke-linejoin="round"/>
<path d="M176.265 81.0553V83.3484" stroke="black" stroke-width="2" stroke-linecap="round" stroke-linejoin="round"/>
<path d="M179.84 79.7633H177.549" stroke="black" stroke-width="2" stroke-linecap="round" stroke-linejoin="round"/>
<path d="M174.974 79.7633H172.684" stroke="black" stroke-width="2" stroke-linecap="round" stroke-linejoin="round"/>
<path d="M446.428 67.6228V69.9158" stroke="black" stroke-width="2" stroke-linecap="round" stroke-linejoin="round"/>
<path d="M446.428 72.4999V74.793" stroke="black" stroke-width="2" stroke-linecap="round" stroke-linejoin="round"/>
<path d="M450.009 71.2079H447.718" stroke="black" stroke-width="2" stroke-linecap="round" stroke-linejoin="round"/>
<path d="M445.137 71.2079H442.847" stroke="black" stroke-width="2" stroke-linecap="round" stroke-linejoin="round"/>
<path d="M501.55 213.891V216.184" stroke="black" stroke-width="2" stroke-linecap="round" stroke-linejoin="round"/>
<path d="M501.55 218.762V221.055" stroke="black" stroke-width="2" stroke-linecap="round" stroke-linejoin="round"/>
<path d="M505.131 217.47H502.84" stroke="black" stroke-width="2" stroke-linecap="round" stroke-linejoin="round"/>
<path d="M500.259 217.47H497.969" stroke="black" stroke-width="2" stroke-linecap="round" stroke-linejoin="round"/>
<path d="M360.942 261.906V264.199" stroke="black" stroke-width="2" stroke-linecap="round" stroke-linejoin="round"/>
<path d="M360.942 266.783V269.076" stroke="black" stroke-width="2" stroke-linecap="round" stroke-linejoin="round"/>
<path d="M364.523 265.491H362.233" stroke="black" stroke-width="2" stroke-linecap="round" stroke-linejoin="round"/>
<path d="M359.652 265.491H357.361" stroke="black" stroke-width="2" stroke-linecap="round" stroke-linejoin="round"/>
<path d="M416.623 141.228C416.623 141.228 413.873 146.094 413.937 151.594C414.001 157.094 416.047 162.919 416.047 162.919" stroke="white" stroke-width="2" stroke-linecap="round" stroke-linejoin="round"/>
<path d="M433.261 130.421C433.261 129.565 433.953 128.872 434.807 128.872C435.662 128.872 436.353 129.565 436.353 130.421C436.353 131.276 435.662 131.969 434.807 131.969C433.953 131.969 433.261 131.276 433.261 130.421Z" fill="white"/>
<path d="M432.778 135.571C432.778 134.716 433.47 134.023 434.325 134.023C435.179 134.023 435.871 134.716 435.871 135.571C435.871 136.427 435.179 137.119 434.325 137.119C433.47 137.119 432.778 136.427 432.778 135.571Z" fill="white"/>
<path d="M511.514 180.63L510.148 180.537C509.973 180.094 509.758 179.669 509.514 179.268L510.252 178.075L507.259 175.496L506.224 176.335C505.642 176.061 505.026 175.857 504.381 175.729L504.021 174.373L500.097 174.792L500.004 176.131C499.463 176.346 498.951 176.608 498.48 176.928L497.283 176.276L494.806 179.355L495.678 180.31C495.463 180.81 495.301 181.334 495.19 181.875L493.853 182.213L494.208 186.147L495.574 186.263C495.76 186.747 495.987 187.2 496.26 187.631L495.551 188.836L498.544 191.414L499.562 190.541C500.143 190.815 500.765 191.013 501.41 191.135L501.8 192.468L505.724 192.049L505.788 190.704C506.317 190.489 506.817 190.227 507.282 189.913L508.52 190.628L510.997 187.55L510.09 186.496C510.305 185.996 510.462 185.466 510.566 184.919L511.874 184.558L511.52 180.624L511.514 180.63ZM504.334 183.295C504.41 184.11 503.805 184.832 502.992 184.902C502.178 184.977 501.463 184.372 501.387 183.557C501.312 182.742 501.91 182.021 502.724 181.951C503.538 181.875 504.259 182.48 504.329 183.295H504.334Z" fill="#FFC051"/>
<path d="M228.585 71.9354L227.044 71.4058C226.98 70.8412 226.864 70.2883 226.701 69.7529L227.916 68.6122L225.265 64.7244L223.824 65.3704C223.242 64.8757 222.591 64.4509 221.888 64.1075V62.4371L217.249 61.7096L216.731 63.217C216.046 63.2927 215.377 63.444 214.737 63.6652L213.563 62.5477L209.773 65.3297L210.482 66.6916C210.081 67.1979 209.732 67.7508 209.436 68.3444L207.796 68.3212L206.994 72.9539L208.523 73.5126C208.587 74.1237 208.709 74.7173 208.895 75.2935L207.715 76.4575L210.366 80.3453L211.802 79.6585C212.389 80.1532 213.04 80.5664 213.743 80.9098L213.784 82.5627L218.423 83.2902L218.911 81.7654C219.586 81.6839 220.243 81.5384 220.871 81.3172L222.074 82.522L225.864 79.74L225.143 78.2501C225.544 77.7379 225.887 77.1792 226.178 76.5856L227.794 76.5739L228.596 71.9412L228.585 71.9354ZM219.51 72.7909C219.342 73.7512 218.429 74.3914 217.476 74.2285C216.516 74.0597 215.883 73.1518 216.045 72.1915C216.208 71.2312 217.121 70.5851 218.074 70.7539C219.034 70.9227 219.673 71.8364 219.51 72.7909Z" stroke="#FF367C" stroke-width="2" stroke-linecap="round" stroke-linejoin="round"/>
<path d="M416.623 141.228C416.623 141.228 413.873 146.094 413.937 151.594C414.001 157.094 416.047 162.919 416.047 162.919" stroke="white" stroke-width="2" stroke-linecap="round" stroke-linejoin="round"/>
<path d="M433.261 130.421C433.261 129.565 433.953 128.872 434.807 128.872C435.662 128.872 436.353 129.565 436.353 130.421C436.353 131.276 435.662 131.969 434.807 131.969C433.953 131.969 433.261 131.276 433.261 130.421Z" fill="white"/>
<path d="M432.778 135.571C432.778 134.716 433.47 134.023 434.325 134.023C435.179 134.023 435.871 134.716 435.871 135.571C435.871 136.427 435.179 137.119 434.325 137.119C433.47 137.119 432.778 136.427 432.778 135.571Z" fill="white"/>
<path d="M132.828 95.4482H147.907C152.047 95.4482 155.401 91.898 155.401 87.5213V77.7728C155.401 73.3962 152.047 69.846 147.907 69.846H123.805C119.666 69.846 116.312 73.3962 116.312 77.7728V87.5213C116.312 91.898 119.974 95.4482 124.114 95.4482" stroke="white" stroke-width="2" stroke-linecap="round" stroke-linejoin="round"/>
<path d="M132.793 95.4482C132.793 95.4482 132.363 97.328 133.909 99.4116C134.147 99.7317 134.432 100.063 134.769 100.395C137.298 102.892 141.071 103.718 141.071 103.718C141.071 103.718 132.944 103.637 130.124 102.549C124.067 100.203 124.177 95.4482 124.177 95.4482" stroke="white" stroke-width="2" stroke-linecap="round" stroke-linejoin="round"/>
<path d="M124.817 79.321L120.939 82.3183L124.817 85.7986" stroke="white" stroke-width="2" stroke-linecap="round" stroke-linejoin="round"/>
<path d="M146.896 79.2628L150.773 82.2601L146.896 85.7404" stroke="white" stroke-width="2" stroke-linecap="round" stroke-linejoin="round"/>
<path d="M128.59 85.9734V79.7693H130.497C131.043 79.7693 131.531 79.8915 131.962 80.136C132.392 80.3804 132.729 80.7296 132.967 81.1836C133.211 81.6375 133.328 82.1497 133.328 82.7259V83.011C133.328 83.5872 133.211 84.0994 132.973 84.5475C132.735 84.9957 132.403 85.3449 131.973 85.5893C131.543 85.8337 131.055 85.9618 130.514 85.9618H128.596L128.59 85.9734ZM129.863 80.7994V84.9433H130.479C130.979 84.9433 131.363 84.7803 131.624 84.4544C131.886 84.1285 132.026 83.6629 132.031 83.0518V82.7259C132.031 82.0973 131.903 81.6142 131.642 81.2941C131.38 80.9682 130.997 80.8053 130.497 80.8053H129.869L129.863 80.7994Z" fill="black"/>
<path d="M136.484 85.9732H135.206V79.7691H136.484V85.9732Z" fill="black"/>
<path d="M140.833 84.4309L142.24 79.7633H143.664L141.507 85.9674H140.176L138.025 79.7633H139.443L140.839 84.4309H140.833Z" fill="black"/>
<path d="M504.584 99.1497H489.464C485.313 99.1497 481.947 95.5879 481.947 91.1996V81.422C481.947 77.0337 485.313 73.4719 489.464 73.4719H513.636C517.786 73.4719 521.152 77.0337 521.152 81.422V91.1996C521.152 95.5879 517.478 99.1497 513.328 99.1497" stroke="white" stroke-width="2" stroke-linecap="round" stroke-linejoin="round"/>
<path d="M504.625 99.1497C504.625 99.1497 505.055 101.035 503.509 103.125C503.271 103.445 502.986 103.777 502.643 104.114C500.108 106.617 496.318 107.449 496.318 107.449C496.318 107.449 504.468 107.368 507.299 106.273C513.374 103.922 513.264 99.1497 513.264 99.1497" stroke="white" stroke-width="2" stroke-linecap="round" stroke-linejoin="round"/>
<path d="M512.956 84.1981L516.112 86.6425L512.956 89.4769" stroke="white" stroke-width="2" stroke-linecap="round" stroke-linejoin="round"/>
<path d="M490.324 84.1457L487.167 86.5901L490.324 89.4245" stroke="white" stroke-width="2" stroke-linecap="round" stroke-linejoin="round"/>
<path d="M493.94 85.7637C494.202 85.4494 494.528 85.2923 494.923 85.2923C495.719 85.2923 496.126 85.7579 496.132 86.6833V89.0404H495.15V86.7124C495.15 86.5028 495.103 86.3457 495.016 86.2468C494.923 86.1478 494.772 86.0954 494.562 86.0954C494.272 86.0954 494.068 86.206 493.935 86.4272V89.0404H492.952V83.8198H493.935V85.7637H493.94Z" fill="black"/>
<path d="M499.26 89.1044C498.719 89.1044 498.283 88.9414 497.946 88.6097C497.609 88.2779 497.44 87.8356 497.44 87.2885V87.1954C497.44 86.8288 497.51 86.497 497.655 86.206C497.8 85.915 497.998 85.688 498.26 85.5309C498.521 85.3738 498.818 85.2923 499.155 85.2923C499.655 85.2923 500.05 85.4494 500.341 85.7695C500.631 86.0838 500.771 86.5378 500.771 87.1198V87.5213H498.434C498.463 87.76 498.562 87.952 498.719 88.0975C498.876 88.243 499.079 88.3129 499.323 88.3129C499.701 88.3129 499.998 88.1732 500.207 87.8996L500.69 88.4409C500.544 88.6504 500.341 88.8134 500.091 88.9298C499.841 89.0462 499.562 89.1044 499.254 89.1044H499.26ZM499.149 86.0838C498.957 86.0838 498.794 86.1478 498.672 86.2817C498.55 86.4155 498.475 86.6018 498.44 86.8462H499.806V86.7706C499.806 86.5494 499.742 86.3806 499.632 86.2642C499.515 86.142 499.358 86.0838 499.149 86.0838Z" fill="black"/>
<path d="M504.148 89.0404C504.102 88.9531 504.073 88.8425 504.05 88.7086C503.811 88.9763 503.503 89.1044 503.125 89.1044C502.765 89.1044 502.468 88.9996 502.23 88.7901C501.992 88.5806 501.875 88.3187 501.875 87.9986C501.875 87.6086 502.021 87.3118 502.306 87.1023C502.596 86.8928 503.009 86.788 503.556 86.788H504.009V86.5785C504.009 86.4097 503.962 86.27 503.881 86.1711C503.794 86.0663 503.654 86.0198 503.468 86.0198C503.306 86.0198 503.172 86.0605 503.079 86.1362C502.986 86.2177 502.939 86.3224 502.939 86.4621H501.957C501.957 86.2468 502.021 86.0547 502.155 85.8685C502.288 85.688 502.468 85.5425 502.713 85.4436C502.951 85.3388 503.224 85.2865 503.521 85.2865C503.974 85.2865 504.335 85.4029 504.596 85.6298C504.864 85.8568 504.997 86.1769 504.997 86.5901V88.1848C504.997 88.534 505.05 88.7959 505.143 88.9763V89.0345H504.148V89.0404ZM503.34 88.3536C503.486 88.3536 503.619 88.3187 503.742 88.2547C503.864 88.1906 503.957 88.1033 504.015 87.9928V87.3584H503.649C503.16 87.3584 502.899 87.5272 502.864 87.8705V87.9287C502.864 88.051 502.904 88.1499 502.992 88.2314C503.079 88.3129 503.195 88.3478 503.346 88.3478L503.34 88.3536Z" fill="black"/>
<path d="M506.294 87.1721C506.294 86.596 506.422 86.142 506.678 85.8044C506.933 85.4669 507.288 85.2923 507.73 85.2923C508.09 85.2923 508.381 85.4261 508.613 85.6939V83.8198H509.596V89.0404H508.712L508.666 88.6504C508.422 88.9589 508.108 89.1102 507.724 89.1102C507.294 89.1102 506.945 88.9414 506.683 88.598C506.422 88.2547 506.294 87.7832 506.294 87.178V87.1721ZM507.271 87.242C507.271 87.5854 507.329 87.8531 507.451 88.0335C507.573 88.2197 507.747 88.307 507.974 88.307C508.276 88.307 508.491 88.179 508.613 87.9229V86.4679C508.491 86.2118 508.282 86.0838 507.98 86.0838C507.509 86.0838 507.271 86.4679 507.271 87.2362V87.242Z" fill="black"/>
<path d="M489.057 241.588H474.536C470.548 241.588 467.315 245.005 467.315 249.224V258.612C467.315 262.826 470.548 266.248 474.536 266.248H497.748C501.736 266.248 504.968 262.831 504.968 258.612V249.224C504.968 245.011 501.44 241.588 497.452 241.588" stroke="white" stroke-width="2" stroke-linecap="round" stroke-linejoin="round"/>
<path d="M489.098 241.588C489.098 241.588 489.511 239.778 488.022 237.77C487.796 237.462 487.517 237.142 487.191 236.822C484.755 234.418 481.122 233.621 481.122 233.621C481.122 233.621 488.947 233.696 491.667 234.75C497.498 237.008 497.394 241.588 497.394 241.588" stroke="white" stroke-width="2" stroke-linecap="round" stroke-linejoin="round"/>
<path d="M479.308 255.347C479.489 255.347 479.634 255.294 479.75 255.196C479.867 255.097 479.925 254.963 479.925 254.8H480.843C480.843 255.05 480.773 255.277 480.64 255.487C480.506 255.696 480.326 255.853 480.093 255.97C479.861 256.086 479.605 256.138 479.326 256.138C478.803 256.138 478.384 255.97 478.082 255.638C477.78 255.306 477.628 254.841 477.628 254.253V254.189C477.628 253.624 477.78 253.17 478.082 252.833C478.384 252.495 478.797 252.326 479.32 252.326C479.779 252.326 480.146 252.46 480.425 252.716C480.704 252.978 480.843 253.327 480.849 253.764H479.931C479.931 253.572 479.867 253.415 479.756 253.298C479.646 253.176 479.495 253.118 479.308 253.118C479.082 253.118 478.907 253.199 478.791 253.368C478.675 253.537 478.617 253.805 478.617 254.183V254.282C478.617 254.66 478.675 254.934 478.791 255.097C478.907 255.26 479.082 255.347 479.32 255.347H479.308Z" fill="black"/>
<path d="M481.948 254.194C481.948 253.828 482.018 253.502 482.157 253.217C482.297 252.932 482.5 252.71 482.762 252.553C483.023 252.396 483.331 252.32 483.68 252.32C484.174 252.32 484.581 252.472 484.895 252.774C485.209 253.077 485.383 253.49 485.418 254.014V254.264C485.424 254.829 485.267 255.283 484.953 255.62C484.639 255.958 484.215 256.133 483.686 256.133C483.157 256.133 482.733 255.964 482.419 255.62C482.105 255.277 481.948 254.817 481.948 254.235V254.189V254.194ZM482.93 254.264C482.93 254.614 482.994 254.881 483.128 255.067C483.262 255.254 483.448 255.347 483.692 255.347C483.936 255.347 484.116 255.254 484.25 255.073C484.384 254.893 484.447 254.596 484.447 254.194C484.447 253.851 484.384 253.583 484.25 253.397C484.116 253.211 483.93 253.112 483.686 253.112C483.442 253.112 483.262 253.205 483.128 253.391C482.994 253.578 482.93 253.869 482.93 254.259V254.264Z" fill="black"/>
<path d="M486.575 254.2C486.575 253.624 486.703 253.17 486.959 252.833C487.215 252.495 487.569 252.32 488.011 252.32C488.371 252.32 488.662 252.454 488.895 252.722V250.848H489.877V256.069H488.994L488.947 255.679C488.703 255.987 488.389 256.138 488.005 256.138C487.575 256.138 487.226 255.97 486.965 255.626C486.703 255.283 486.575 254.811 486.575 254.206V254.2ZM487.558 254.276C487.558 254.619 487.616 254.887 487.738 255.067C487.86 255.254 488.034 255.341 488.261 255.341C488.563 255.341 488.778 255.213 488.901 254.957V253.502C488.778 253.246 488.569 253.118 488.267 253.118C487.796 253.118 487.558 253.502 487.558 254.27V254.276Z" fill="black"/>
<path d="M493.034 256.138C492.493 256.138 492.057 255.975 491.72 255.644C491.383 255.312 491.214 254.87 491.214 254.323V254.229C491.214 253.863 491.284 253.531 491.429 253.24C491.575 252.949 491.772 252.722 492.034 252.565C492.296 252.408 492.592 252.326 492.929 252.326C493.429 252.326 493.825 252.483 494.115 252.804C494.406 253.124 494.545 253.572 494.545 254.154V254.555H492.208C492.238 254.794 492.336 254.986 492.493 255.132C492.65 255.277 492.854 255.347 493.098 255.347C493.476 255.347 493.772 255.207 493.982 254.934L494.464 255.475C494.319 255.684 494.115 255.847 493.865 255.964C493.615 256.08 493.336 256.138 493.028 256.138H493.034ZM492.923 253.112C492.732 253.112 492.569 253.176 492.447 253.31C492.325 253.444 492.249 253.63 492.214 253.874H493.58V253.799C493.58 253.578 493.516 253.409 493.406 253.292C493.29 253.17 493.133 253.112 492.923 253.112Z" fill="black"/>
<path d="M497.359 251.302L500.516 253.746L497.359 256.581" stroke="white" stroke-width="2" stroke-linecap="round" stroke-linejoin="round"/>
<path d="M474.727 251.25L471.571 253.694L474.727 256.528" stroke="white" stroke-width="2" stroke-linecap="round" stroke-linejoin="round"/>
<path d="M307.361 87.1954C307.361 83.8024 310.105 81.0553 313.494 81.0553H396.95C400.339 81.0553 403.083 83.8024 403.083 87.1954V97.8868C403.083 101.28 400.339 104.027 396.95 104.027H313.494C310.105 104.027 307.361 101.28 307.361 97.8868V87.1954Z" fill="#FF367C"/>
<path d="M333.684 94.5288C333.602 95.6579 333.184 96.5542 332.434 97.2002C331.678 97.852 330.69 98.178 329.457 98.178C328.109 98.178 327.051 97.724 326.277 96.8161C325.504 95.9082 325.121 94.6627 325.121 93.0796V92.4336C325.121 91.4209 325.301 90.5305 325.655 89.7622C326.01 88.994 326.522 88.4004 327.179 87.9871C327.841 87.5739 328.609 87.3702 329.486 87.3702C330.696 87.3702 331.672 87.6961 332.416 88.348C333.155 88.9998 333.585 89.9136 333.701 91.0834H331.539C331.486 90.4024 331.294 89.9136 330.975 89.6051C330.649 89.2966 330.155 89.1453 329.492 89.1453C328.771 89.1453 328.231 89.4014 327.87 89.9194C327.51 90.4374 327.33 91.2405 327.318 92.3289V93.1204C327.318 94.2553 327.492 95.0875 327.835 95.6113C328.178 96.1351 328.719 96.397 329.463 96.397C330.132 96.397 330.632 96.2457 330.963 95.9373C331.294 95.6288 331.48 95.1574 331.527 94.5172H333.689L333.684 94.5288Z" fill="white"/>
<path d="M345.211 93.0096C345.211 94.0456 345.031 94.9535 344.665 95.7334C344.299 96.5132 343.775 97.1185 343.095 97.5376C342.415 97.9624 341.636 98.1719 340.753 98.1719C339.869 98.1719 339.107 97.9624 338.421 97.5434C337.735 97.1243 337.212 96.5249 336.834 95.7508C336.456 94.9768 336.27 94.0805 336.265 93.0678V92.5498C336.265 91.5139 336.451 90.6059 336.823 89.8144C337.195 89.0287 337.724 88.4234 338.404 88.0044C339.084 87.5854 339.863 87.37 340.741 87.37C341.619 87.37 342.392 87.5795 343.072 88.0044C343.752 88.4293 344.281 89.0287 344.653 89.8144C345.025 90.6001 345.211 91.508 345.211 92.544V93.0154V93.0096ZM343.014 92.5324C343.014 91.4324 342.816 90.5943 342.421 90.0181C342.026 89.4478 341.462 89.1568 340.735 89.1568C340.008 89.1568 339.45 89.4419 339.055 90.0065C338.66 90.571 338.462 91.4033 338.456 92.4974V93.0096C338.456 94.0863 338.654 94.9186 339.049 95.5064C339.445 96.1 340.008 96.3968 340.753 96.3968C341.497 96.3968 342.037 96.1117 342.427 95.5413C342.816 94.9709 343.014 94.1387 343.02 93.0445V92.5324H343.014Z" fill="white"/>
<path d="M348.258 98.0323V87.5155H351.49C352.414 87.5155 353.24 87.725 353.966 88.1383C354.693 88.5573 355.263 89.1451 355.676 89.9134C356.083 90.6816 356.286 91.5546 356.286 92.5324V93.0154C356.286 93.9932 356.083 94.8604 355.681 95.6228C355.28 96.3852 354.716 96.973 353.984 97.3921C353.251 97.8111 352.426 98.0206 351.507 98.0264H348.252L348.258 98.0323ZM350.426 89.2673V96.2863H351.473C352.321 96.2863 352.967 96.0069 353.414 95.454C353.862 94.9011 354.089 94.1096 354.1 93.0794V92.5207C354.1 91.4498 353.879 90.6409 353.437 90.088C352.996 89.5351 352.35 89.2615 351.496 89.2615H350.426V89.2673Z" fill="white"/>
<path d="M361.64 98.0323H359.478V87.5155H361.64V98.0323Z" fill="white"/>
<path d="M373.668 98.0323H371.505L367.29 91.1123V98.0323H365.128V87.5155H367.29L371.511 94.4471V87.5155H373.668V98.0323Z" fill="white"/>
<path d="M385.347 96.6995C384.957 97.1651 384.405 97.5317 383.696 97.7878C382.986 98.0439 382.196 98.1719 381.33 98.1719C380.423 98.1719 379.621 97.9741 378.94 97.5783C378.254 97.1825 377.725 96.6064 377.353 95.8498C376.981 95.0932 376.789 94.2027 376.778 93.1842V92.4683C376.778 91.4207 376.952 90.507 377.307 89.7388C377.661 88.9705 378.167 88.3827 378.836 87.9753C379.504 87.5679 380.283 87.3642 381.179 87.3642C382.423 87.3642 383.399 87.661 384.103 88.2547C384.806 88.8483 385.219 89.7155 385.352 90.8504H383.248C383.149 90.2509 382.94 89.8086 382.609 89.5292C382.277 89.2499 381.824 89.1102 381.248 89.1102C380.51 89.1102 379.952 89.3896 379.568 89.9425C379.185 90.4954 378.987 91.3218 378.987 92.4101V93.0794C378.987 94.1852 379.196 95.0175 379.615 95.5762C380.033 96.1408 380.65 96.4201 381.458 96.4201C382.266 96.4201 382.853 96.2455 383.196 95.9021V94.0863H381.225V92.4916H385.358V96.6878L385.347 96.6995Z" fill="white"/>
<path d="M476.576 66.9244H273.87C271.44 66.9244 269.47 64.9514 269.47 62.5186C269.47 60.0859 271.44 58.1129 273.87 58.1129H476.576C479.006 58.1129 480.976 60.0859 480.976 62.5186C480.976 64.9514 479.006 66.9244 476.576 66.9244Z" stroke="white" stroke-width="2" stroke-linecap="round" stroke-linejoin="round"/>
<path d="M281.358 66.9244H469.088V187.794C469.088 191.368 466.193 194.266 462.623 194.266H287.828C284.259 194.266 281.364 191.368 281.364 187.794V66.9244H281.358Z" stroke="white" stroke-width="2" stroke-linecap="round" stroke-linejoin="round"/>
<path d="M460.682 185.85V66.9244L289.764 66.9244V185.85H460.682Z" stroke="white" stroke-width="2" stroke-linecap="round" stroke-linejoin="round"/>
<path d="M375.226 194.889V223.517" stroke="white" stroke-width="2" stroke-linecap="round" stroke-linejoin="round"/>
<path d="M375.226 227.219C377.268 227.219 378.923 225.562 378.923 223.517C378.923 221.473 377.268 219.816 375.226 219.816C373.184 219.816 371.529 221.473 371.529 223.517C371.529 225.562 373.184 227.219 375.226 227.219Z" fill="white"/>
<path d="M314.564 124.775H321.586" stroke="#FF367C" stroke-width="2" stroke-linecap="round" stroke-linejoin="round"/>
<path d="M314.564 142.363H321.586" stroke="#FF367C" stroke-width="2" stroke-linecap="round" stroke-linejoin="round"/>
<path d="M314.564 130.723H321.586" stroke="#FF367C" stroke-width="2" stroke-linecap="round" stroke-linejoin="round"/>
<path d="M314.564 136.415H321.586" stroke="#FF367C" stroke-width="2" stroke-linecap="round" stroke-linejoin="round"/>
<path d="M314.564 142.363H321.586" stroke="#FF367C" stroke-width="2" stroke-linecap="round" stroke-linejoin="round"/>
<path d="M314.564 159.521H321.586" stroke="#FF367C" stroke-width="2" stroke-linecap="round" stroke-linejoin="round"/>
<path d="M314.564 147.881H321.586" stroke="#FF367C" stroke-width="2" stroke-linecap="round" stroke-linejoin="round"/>
<path d="M314.564 153.578H321.586" stroke="#FF367C" stroke-width="2" stroke-linecap="round" stroke-linejoin="round"/>
<path d="M314.564 159.521H321.586" stroke="#FF367C" stroke-width="2" stroke-linecap="round" stroke-linejoin="round"/>
<path d="M314.564 165.614H321.586" stroke="#FF367C" stroke-width="2" stroke-linecap="round" stroke-linejoin="round"/>
<path d="M329.498 124.775H338.945" stroke="#FF367C" stroke-width="2" stroke-linecap="round" stroke-linejoin="round"/>
<path d="M329.498 130.723H350.554" stroke="#FF367C" stroke-width="2" stroke-linecap="round" stroke-linejoin="round"/>
<path d="M329.498 136.415H342.811" stroke="#FF367C" stroke-width="2" stroke-linecap="round" stroke-linejoin="round"/>
<path d="M329.498 142.363H358.291" stroke="#FF367C" stroke-width="2" stroke-linecap="round" stroke-linejoin="round"/>
<path d="M329.498 147.881H339.77" stroke="#FF367C" stroke-width="2" stroke-linecap="round" stroke-linejoin="round"/>
<path d="M316.953 111.686L312.692 114.98L316.953 118.804" stroke="#FF367C" stroke-width="2" stroke-linecap="round" stroke-linejoin="round"/>
<path d="M326.214 111.686L330.475 114.98L326.214 118.804" stroke="#FF367C" stroke-width="2" stroke-linecap="round" stroke-linejoin="round"/>
<path d="M323.854 111.686L319.36 118.81" stroke="#FF367C" stroke-width="2" stroke-linecap="round" stroke-linejoin="round"/>
<path d="M378.923 130.723H403.084" stroke="#FF367C" stroke-width="2" stroke-linecap="round" stroke-linejoin="round"/>
<path d="M378.923 124.775H394.346" stroke="#FF367C" stroke-width="2" stroke-linecap="round" stroke-linejoin="round"/>
<path d="M340.555 209.637C339.149 209.637 338.003 210.789 338.003 212.203V240.302C338.003 242.752 340.119 244.749 342.741 244.749H379.127C381.749 244.749 383.882 242.752 383.882 240.302V218.605C383.882 216.155 381.749 214.176 379.127 214.176H353.572V212.203C353.572 210.795 352.426 209.637 351.019 209.637H340.55H340.555Z" fill="white"/>
<path d="M349.241 209.183C349.124 209.183 351.438 209.252 352.758 210.568C353.7 211.505 353.572 214.229 353.566 214.269C354.141 214.316 359.495 214.269 360.088 214.246V211.307C360.088 210.137 359.112 209.183 357.903 209.183H349.235H349.241Z" fill="#FF367C"/>
<path d="M340.555 209.637C339.149 209.637 338.003 210.789 338.003 212.203V240.302C338.003 242.752 340.119 244.749 342.741 244.749H379.127C381.749 244.749 383.882 242.752 383.882 240.302V218.605C383.882 216.155 381.749 214.176 379.127 214.176H353.572V212.203C353.572 210.795 352.426 209.637 351.019 209.637H340.55H340.555Z" stroke="#FF367C" stroke-width="2" stroke-linecap="round" stroke-linejoin="round"/>
<path d="M448.358 49.7845C449.649 49.7845 450.701 50.8437 450.701 52.1416V77.9649C450.701 80.2172 448.759 82.0506 446.347 82.0506H412.908C410.502 82.0506 408.537 80.2172 408.537 77.9649V58.0256C408.537 55.7732 410.496 53.9574 412.908 53.9574H436.394V52.1474C436.394 50.8495 437.446 49.7903 438.737 49.7903H448.358V49.7845Z" fill="white"/>
<path d="M440.376 49.2199C440.481 49.2199 438.353 49.2898 437.144 50.5352C436.278 51.4257 436.4 54.004 436.4 54.0389C435.871 54.0854 430.953 54.0389 430.406 54.0156V51.2278C430.406 50.1162 431.307 49.2199 432.412 49.2199H440.376Z" stroke="#FFC051" stroke-width="2" stroke-linecap="round" stroke-linejoin="round"/>
<path d="M448.358 49.7845C449.649 49.7845 450.701 50.8437 450.701 52.1416V77.9649C450.701 80.2172 448.759 82.0506 446.347 82.0506H412.908C410.502 82.0506 408.537 80.2172 408.537 77.9649V58.0256C408.537 55.7732 410.496 53.9574 412.908 53.9574H436.394V52.1474C436.394 50.8495 437.446 49.7903 438.737 49.7903H448.358V49.7845Z" stroke="#FFC051" stroke-width="2" stroke-linecap="round" stroke-linejoin="round"/>
<path d="M222.283 106.198C223.708 106.198 224.864 107.368 224.864 108.793V137.247C224.864 139.733 222.725 141.752 220.068 141.752H183.218C180.561 141.752 178.404 139.733 178.404 137.247V115.277C178.404 112.792 180.567 110.79 183.218 110.79H209.099V108.793C209.099 107.368 210.256 106.198 211.68 106.198H222.278H222.283Z" fill="white"/>
<path d="M213.488 105.575C213.604 105.575 211.261 105.651 209.924 107.024C208.971 108.002 209.104 110.848 209.104 110.889C208.523 110.935 203.105 110.889 202.5 110.865V107.792C202.5 106.57 203.489 105.575 204.715 105.575H213.494H213.488Z" fill="#FFC051"/>
<path d="M222.283 106.198C223.708 106.198 224.864 107.368 224.864 108.793V137.247C224.864 139.733 222.725 141.752 220.068 141.752H183.218C180.561 141.752 178.404 139.733 178.404 137.247V115.277C178.404 112.792 180.567 110.79 183.218 110.79H209.099V108.793C209.099 107.368 210.256 106.198 211.68 106.198H222.278H222.283Z" stroke="#FFC051" stroke-width="2" stroke-linecap="round" stroke-linejoin="round"/>
<path d="M192.327 129.972H190.752V126.69H187.676V129.972H186.101V122.313H187.676V125.415H190.752V122.313H192.327V129.972Z" fill="#FFC051"/>
<path d="M200.384 123.594H198.041V129.972H196.466V123.594H194.152V122.313H200.384V123.594Z" fill="#FFC051"/>
<path d="M204.419 122.313L206.384 127.866L208.337 122.313H210.406V129.972H208.825V127.877L208.982 124.263L206.918 129.972H205.837L203.779 124.269L203.936 127.877V129.972H202.361V122.313H204.419Z" fill="#FFC051"/>
<path d="M214.435 128.704H217.784V129.972H212.86V122.313H214.435V128.704Z" fill="#FFC051"/>
<path d="M255.832 129.571C251.949 128.832 248.461 126.3 246.658 122.441C243.676 116.057 246.426 108.462 252.797 105.476C259.175 102.49 266.761 105.243 269.743 111.622C272.725 118.006 269.976 125.602 263.604 128.587C262.721 129 261.814 129.303 260.901 129.507" stroke="#FF367C" stroke-width="2" stroke-linecap="round" stroke-linejoin="round"/>
<path d="M255.814 129.577C255.814 129.577 256.088 132.626 254.873 134.559C252.943 137.632 251.792 138.202 251.792 138.202C251.792 138.202 256.152 136.782 258.268 134.692C260.424 132.562 260.86 129.518 260.86 129.518" stroke="#FF367C" stroke-width="2" stroke-linecap="round" stroke-linejoin="round"/>
<path d="M257.372 117.5C257.617 117.256 257.913 117.134 258.279 117.134C259.209 117.134 259.942 116.912 260.506 116.47C261.07 116.028 261.36 115.37 261.36 114.439C261.36 113.729 261.116 113.141 260.605 112.675C260.093 112.21 259.454 111.989 258.698 111.989C257.942 111.989 257.227 112.256 256.64 112.774C256.297 113.094 255.954 113.24 255.588 113.24C255.32 113.24 255.076 113.164 254.879 112.995C254.512 112.728 254.338 112.384 254.338 111.989C254.338 111.669 254.46 111.378 254.727 111.11C255.239 110.598 255.826 110.179 256.512 109.882C257.198 109.591 257.931 109.439 258.692 109.439C259.645 109.439 260.529 109.661 261.308 110.103C262.093 110.545 262.727 111.133 263.192 111.913C263.657 112.67 263.878 113.531 263.878 114.433C263.878 115.783 263.488 116.86 262.727 117.64C261.942 118.426 260.919 118.914 259.645 119.112C259.57 119.136 259.547 119.188 259.547 119.211V119.997C259.547 120.364 259.425 120.66 259.18 120.928C258.936 121.173 258.64 121.295 258.274 121.295C257.907 121.295 257.611 121.173 257.367 120.928C257.122 120.684 257 120.364 257 119.997V118.379C257 118.059 257.122 117.768 257.367 117.494L257.372 117.5ZM257.227 124.775C257.006 124.554 256.907 124.234 256.907 123.844V123.477C256.907 123.058 257.006 122.767 257.227 122.546C257.448 122.325 257.768 122.226 258.157 122.226H258.425C258.843 122.226 259.134 122.325 259.355 122.546C259.576 122.767 259.675 123.087 259.675 123.477V123.844C259.675 124.257 259.576 124.554 259.355 124.775C259.134 124.996 258.814 125.095 258.425 125.095H258.157C257.768 125.119 257.448 124.996 257.227 124.775Z" fill="black"/>
<path d="M434.331 115.347C434.331 114.579 434.953 113.956 435.72 113.956C436.487 113.956 437.109 114.579 437.109 115.347C437.109 116.115 436.487 116.738 435.72 116.738C434.953 116.738 434.331 116.115 434.331 115.347Z" stroke="black" stroke-width="2" stroke-linecap="round" stroke-linejoin="round"/>
<path d="M420.855 163.036C420.855 163.036 395.91 206.575 396.683 216.603C397.462 226.637 408.874 276.479 408.874 276.479L437.667 267.749L422.361 215.672L443.672 163.036H420.855Z" fill="black"/>
<path d="M423.692 286.111C415.082 289.277 402.264 293.299 400.282 293.014C397.915 292.676 401.648 288.37 405.298 284.319C408.769 280.472 413.21 277.044 413.21 277.044L412.548 274.978" stroke="black" stroke-width="2" stroke-linecap="round" stroke-linejoin="round"/>
<path d="M413.559 281.758L406.949 278.935" stroke="#FFC051" stroke-width="2" stroke-linecap="round" stroke-linejoin="round"/>
<path d="M411.344 283.737L404.734 280.914" stroke="#FFC051" stroke-width="2" stroke-linecap="round" stroke-linejoin="round"/>
<path d="M448.056 287.45C448.05 290.162 448.05 300.522 448.05 300.522C448.05 300.522 416.204 302.361 413.019 300.795C410.874 299.742 415.757 296.803 420.477 294.085C424.965 291.501 430.249 289.621 430.249 289.621L430.284 286.699" stroke="black" stroke-width="2" stroke-linecap="round" stroke-linejoin="round"/>
<path d="M429.116 294.207L423.704 289.475" stroke="#FFC051" stroke-width="2" stroke-linecap="round" stroke-linejoin="round"/>
<path d="M426.401 295.394L420.989 290.663" stroke="#FFC051" stroke-width="2" stroke-linecap="round" stroke-linejoin="round"/>
<path d="M423.826 163.036L424.331 285.262H454.328L450.677 186.165C450.677 186.165 454.915 183.511 455.468 175.322C456.02 167.133 448.224 163.036 448.224 163.036H423.826Z" fill="#FFC051"/>
<path opacity="0.3" d="M438.429 163.042C439.074 163.589 439.882 163.95 440.789 163.95C441.696 163.95 442.51 163.589 443.149 163.042H438.429ZM431.941 170.317C429.907 170.317 428.256 171.97 428.256 174.007C428.256 176.044 429.907 177.696 431.941 177.696C433.976 177.696 435.627 176.044 435.627 174.007C435.627 171.97 433.976 170.317 431.941 170.317ZM452.707 170.317C450.672 170.317 449.021 171.97 449.021 174.007C449.021 176.044 450.672 177.696 452.707 177.696C453.712 177.696 454.637 177.301 455.305 176.643C455.363 176.201 455.433 175.799 455.468 175.316C455.573 173.75 455.317 172.383 454.921 171.114C454.299 170.637 453.549 170.311 452.707 170.311V170.317ZM442.661 184.069C440.626 184.069 438.975 185.722 438.975 187.759C438.975 189.796 440.626 191.449 442.661 191.449C444.696 191.449 446.347 189.796 446.347 187.759C446.347 185.722 444.696 184.069 442.661 184.069ZM423.913 184.739L423.931 190.757C424.907 190.093 425.582 189.022 425.582 187.753C425.582 186.485 424.896 185.396 423.913 184.733V184.739ZM431.941 197.816C429.907 197.816 428.256 199.469 428.256 201.506C428.256 203.543 429.907 205.196 431.941 205.196C433.976 205.196 435.627 203.543 435.627 201.506C435.627 199.469 433.976 197.816 431.941 197.816ZM451.108 198.218C449.881 198.817 449.021 200.051 449.021 201.512C449.021 203.072 449.998 204.393 451.364 204.928L451.108 198.218ZM442.661 211.569C440.626 211.569 438.975 213.222 438.975 215.259C438.975 217.296 440.626 218.949 442.661 218.949C444.696 218.949 446.347 217.296 446.347 215.259C446.347 213.222 444.696 211.569 442.661 211.569ZM424.024 212.314L424.058 218.186C424.965 217.511 425.582 216.475 425.582 215.259C425.582 214.042 424.948 212.983 424.018 212.314H424.024ZM431.941 225.316C429.907 225.316 428.256 226.969 428.256 229.006C428.256 231.043 429.907 232.695 431.941 232.695C433.976 232.695 435.627 231.043 435.627 229.006C435.627 226.969 433.976 225.316 431.941 225.316ZM452.125 225.444C450.381 225.735 449.021 227.178 449.021 229.011C449.021 230.932 450.509 232.457 452.381 232.631L452.125 225.45V225.444ZM442.661 239.068C440.626 239.068 438.975 240.721 438.975 242.758C438.975 244.795 440.626 246.448 442.661 246.448C444.696 246.448 446.347 244.795 446.347 242.758C446.347 240.721 444.696 239.068 442.661 239.068ZM424.151 239.901L424.169 245.61C425.018 244.935 425.587 243.922 425.587 242.752C425.587 241.583 425.006 240.576 424.151 239.895V239.901ZM431.941 252.833C429.907 252.833 428.256 254.468 428.256 256.505C428.256 258.542 429.907 260.195 431.941 260.195C433.976 260.195 435.627 258.542 435.627 256.505C435.627 254.468 433.976 252.833 431.941 252.833ZM452.707 252.833C450.672 252.833 449.021 254.468 449.021 256.505C449.021 258.542 450.672 260.195 452.707 260.195C452.951 260.195 453.166 260.096 453.398 260.049L453.125 252.92C452.98 252.902 452.858 252.827 452.707 252.827V252.833ZM442.661 266.585C440.626 266.585 438.975 268.238 438.975 270.275C438.975 272.312 440.626 273.948 442.661 273.948C444.696 273.948 446.347 272.312 446.347 270.275C446.347 268.238 444.696 266.585 442.661 266.585ZM424.262 267.493L424.279 273.022C425.064 272.347 425.587 271.393 425.587 270.275C425.587 269.158 425.058 268.168 424.262 267.493ZM431.941 280.332C429.907 280.332 428.256 281.985 428.256 284.022C428.256 284.459 428.366 284.872 428.511 285.256H435.377C435.517 284.866 435.633 284.459 435.633 284.022C435.633 281.985 433.982 280.332 431.947 280.332H431.941ZM452.707 280.332C450.672 280.332 449.021 281.985 449.021 284.022C449.021 284.459 449.131 284.872 449.277 285.256H454.328L454.166 280.617C453.724 280.425 453.23 280.326 452.712 280.326L452.707 280.332Z" fill="white"/>
<path d="M452.794 163.036C452.794 163.036 444.992 171.219 433.052 170.695C421.111 170.171 416.315 164.322 416.315 164.322C416.315 164.322 407.752 172.709 397.811 173.32C387.876 173.931 375.552 165.242 372.843 160.504C368.221 152.409 375.145 142.701 382.447 142.701C389.231 142.701 397.811 148.276 397.811 148.276C397.811 148.276 404.735 137.277 412.908 131.969C425.372 123.867 436.691 124.542 446.428 126.614C461.816 129.891 469.141 143.818 469.141 143.818C469.141 143.818 474.024 130.904 481.256 131.078C488.493 131.253 496.597 135.443 495.725 143.382C494.853 151.326 487.639 168.233 479.268 171.446C465.409 176.759 452.788 163.042 452.788 163.042L452.794 163.036Z" fill="#FF367C"/>
<path d="M430.267 115.591C428.441 111.511 430.267 106.722 434.336 104.888C438.406 103.055 443.196 104.888 445.027 108.962C446.858 113.036 445.027 117.832 440.958 119.665C436.888 121.499 432.098 119.665 430.267 115.591Z" stroke="black" stroke-width="2" stroke-linecap="round" stroke-linejoin="round"/>
<path d="M432.709 100.727C431.43 102.083 431.651 104.364 431.651 104.364C431.651 104.364 428.912 103.974 427.849 106.681C426.715 109.579 429.151 112.355 429.151 112.355C429.151 112.355 429.773 109.684 431.04 107.839C432.232 106.11 434.075 105.191 434.075 105.191C434.075 105.191 437.72 108.887 440.615 110.342C442.702 111.389 444.765 111.639 445.399 111.517C445.934 114.299 444.736 116.918 444.736 116.918C444.736 116.918 447.695 121.184 453.084 119.607C457.264 118.385 458.874 114.544 457.863 110.83C457.264 108.619 455.91 107.851 454.003 107.513C452.212 107.193 450.712 107.647 449.643 106.617C448.422 105.435 449.358 103.008 446.713 101.332C443.643 99.3825 440.458 101.466 440.458 101.466C440.458 101.466 438.952 99.2661 437.045 99.1672C435.365 99.0799 433.929 99.4407 432.703 100.739L432.709 100.727Z" fill="black"/>
<path d="M437.842 111.861C437.633 111.389 437.842 110.83 438.313 110.621C438.784 110.411 439.342 110.621 439.551 111.092C439.76 111.564 439.551 112.122 439.08 112.332C438.609 112.542 438.051 112.332 437.842 111.861Z" fill="#FF367C"/>
<path d="M435.679 110.772C435.511 110.394 435.679 109.957 436.051 109.789C436.423 109.62 436.865 109.789 437.034 110.161C437.202 110.534 437.034 110.976 436.662 111.145C436.29 111.313 435.848 111.145 435.679 110.772Z" fill="black"/>
<path d="M430.825 110.784C430.657 110.406 430.825 109.969 431.197 109.8C431.569 109.632 432.011 109.8 432.18 110.173C432.348 110.545 432.18 110.988 431.808 111.156C431.436 111.325 430.994 111.156 430.825 110.784Z" fill="black"/>
<path d="M433.668 110.324L431.494 113.653L433.348 113.362" stroke="black" stroke-width="2" stroke-linecap="round" stroke-linejoin="round"/>
<path d="M441.673 98.6084C441.673 98.6084 441.016 92.963 442.417 89.7213C443.737 86.6716 447.062 84.0177 449.498 85.8568C451.457 87.3351 451.538 90.1112 449.742 92.608C446.713 96.8101 441.673 98.6084 441.673 98.6084Z" fill="black"/>
<path d="M416.623 141.228C416.623 141.228 413.873 146.094 413.937 151.594C414.001 157.094 416.047 162.919 416.047 162.919" stroke="white" stroke-width="2" stroke-linecap="round" stroke-linejoin="round"/>
<path d="M433.261 130.421C433.261 129.565 433.953 128.872 434.807 128.872C435.662 128.872 436.353 129.565 436.353 130.421C436.353 131.276 435.662 131.969 434.807 131.969C433.953 131.969 433.261 131.276 433.261 130.421Z" fill="white"/>
<path d="M432.778 135.571C432.778 134.716 433.47 134.023 434.325 134.023C435.179 134.023 435.871 134.716 435.871 135.571C435.871 136.427 435.179 137.119 434.325 137.119C433.47 137.119 432.778 136.427 432.778 135.571Z" fill="white"/>
<path d="M370.582 148.108L374.569 152.519C375.203 153.2 376.267 153.235 376.947 152.601L378.197 151.431C378.877 150.796 378.912 149.731 378.278 149.05L371.686 141.991" stroke="black" stroke-width="2" stroke-linecap="round" stroke-linejoin="round"/>
<path d="M361.576 131.934L341.288 112.28L340.346 113.036L361.914 138.196" stroke="black" stroke-width="2" stroke-linecap="round" stroke-linejoin="round"/>
<path d="M380.784 143.405C379.988 141.135 378.633 137.987 376.744 135.647C373.087 131.119 360.885 130.694 360.222 132.836C359.56 134.978 362.03 136.089 363.896 136.537C366.134 137.073 368.966 137.789 368.966 137.789C368.966 137.789 369.07 138.889 370.198 140.274C371.326 141.653 373.715 142.509 373.715 142.509" stroke="black" stroke-width="2" stroke-linecap="round" stroke-linejoin="round"/>
<path d="M364.239 137.643C361.106 138.388 359.019 139.57 360.007 141.158C360.995 142.747 363.344 142.27 364.873 141.857C367.233 141.222 369.477 140.251 369.151 139.04C368.675 137.271 366.751 137.044 364.239 137.643Z" stroke="black" stroke-width="2" stroke-linecap="round" stroke-linejoin="round"/>
<path d="M364.972 142.107C362.693 142.864 361.617 145.058 362.856 146.094C364.094 147.13 367.169 145.401 368.314 144.645C370.082 143.481 371.663 142.072 371.07 141.164C369.803 139.244 367.094 141.397 364.972 142.101V142.107Z" stroke="black" stroke-width="2" stroke-linecap="round" stroke-linejoin="round"/>
<path d="M366.878 145.582C365.582 146.414 364.28 147.741 365.408 148.899C366.198 149.708 369.076 148.876 370.221 148.125C371.988 146.961 373.57 145.553 372.977 144.645C371.709 142.724 368.762 144.371 366.878 145.582Z" stroke="black" stroke-width="2" stroke-linecap="round" stroke-linejoin="round"/>
<path d="M481.424 131.969C481.424 131.969 482.947 124.944 486.534 123.18C490.121 121.417 494.731 123.675 494.731 123.675C494.731 123.675 496.126 121.819 497.039 120.224C497.952 118.629 498.8 117.151 499.917 117.291C501.039 117.436 501.021 120.946 499.829 122.68C498.638 124.414 497.835 125.41 497.835 125.41C497.835 125.41 499.417 123.547 500.015 122.54C501.899 119.368 501.48 118.757 502.614 117.5C503.596 116.412 505.044 117.04 505.038 119.496C505.038 121.231 504.48 122.657 502.974 124.624C501.742 126.236 500.963 127.307 500.963 127.307C500.963 127.307 503.125 127.15 505.178 125.241C506.683 123.838 507.113 121.563 508.142 121.789C509.171 122.011 509.886 123.896 507.921 126.771C505.957 129.646 503.573 131.212 500.666 131.614C497.76 132.015 497.44 131.392 494.568 132.33C491.702 133.261 490.179 135.565 490.179 135.565" stroke="black" stroke-width="2" stroke-linecap="round" stroke-linejoin="round"/>
<path d="M247.164 179.46C247.687 179.472 250.46 233.417 250.873 235.425L284.306 239.167L284.37 246.239L232.026 246C231.497 245.988 231.055 245.639 230.957 245.15L218.15 183.435C218.022 182.789 218.557 182.195 219.254 182.213L247.164 179.46Z" stroke="black" stroke-width="2" stroke-linecap="round" stroke-linejoin="round"/>
<path d="M222.382 186.211L232.474 238.562" stroke="black" stroke-width="2" stroke-linecap="round" stroke-linejoin="round"/>
<path d="M282.527 242.153L230.468 241.769" stroke="black" stroke-width="2" stroke-linecap="round" stroke-linejoin="round"/>
<path d="M239.676 246.652L231.224 305.282L228.236 305.224L235.572 246.239" stroke="black" stroke-width="2" stroke-linecap="round" stroke-linejoin="round"/>
<path d="M294.659 219.816C294.659 219.816 300.321 219.816 306.524 227.155C311.111 232.585 322.354 289.65 322.354 289.65H287.898L279.05 219.81H294.665L294.659 219.816Z" fill="black"/>
<path d="M265.04 214.601C265.04 214.601 297.385 219.298 303.007 230.175C308.628 241.053 289.514 295.243 289.514 295.243H252.908L276.94 244.015C276.94 244.015 246.03 244.114 240.915 237.584C235.805 231.054 237.776 214.601 237.776 214.601H265.04Z" fill="#FFC051"/>
<path d="M274.016 222.359C274.016 222.359 297.118 226.881 298.554 232.853C300.699 241.769 284.242 291.524 284.242 291.524" stroke="#FF367C" stroke-width="2" stroke-linecap="round" stroke-linejoin="round"/>
<path d="M278.87 185.85C278.87 185.85 271.429 172.61 253.233 173.017C241.479 173.279 229.527 178.587 224.498 190.273C219.58 201.716 219.58 213.938 224.498 221.259C226.98 224.955 233.218 228.47 242.758 226.66C252.658 224.78 257 220.159 257 220.159H293.171C293.171 220.159 304.257 196.192 306.298 183.959C308.338 171.725 295.584 168.21 290.049 171.219C283.114 174.996 278.87 185.844 278.87 185.844V185.85Z" fill="#FF367C"/>
<path opacity="0.25" d="M293.281 170.346C293.223 170.352 293.159 170.357 293.101 170.363L289.305 176.928L297.135 176.963L293.287 170.34L293.281 170.346ZM253.187 173.023C252.047 173.052 250.908 173.157 249.768 173.279L247.641 176.934L255.471 176.969L253.181 173.023H253.187ZM263.017 174.35L261.529 176.934L269.359 176.969L269.307 176.876C267.516 175.857 265.366 175.031 263.023 174.35H263.017ZM304.344 174.914L303.181 176.934L305.617 176.951C305.286 176.177 304.826 175.549 304.344 174.914ZM240.688 175.386C239.502 175.828 238.357 176.375 237.235 176.951L241.595 176.969L240.688 175.386ZM244.211 180.042L240.304 186.77L248.152 186.805L244.211 180.042ZM258.093 180.042L254.204 186.77L262.035 186.805L258.093 180.042ZM271.987 180.042L268.08 186.77L275.911 186.805L271.987 180.042ZM285.869 180.042L281.963 186.77L289.793 186.805L285.869 180.042ZM299.746 180.042L295.839 186.77L303.67 186.805L299.746 180.042ZM231.044 181.258C229.532 182.632 228.143 184.133 226.957 185.879L226.428 186.77L234.258 186.805L231.044 181.258ZM237.653 190.448L233.764 197.176L241.595 197.211L237.653 190.442V190.448ZM251.553 190.448L247.647 197.176L255.477 197.211L251.553 190.442V190.448ZM265.429 190.448L261.523 197.176L269.353 197.211L265.429 190.442V190.448ZM279.312 190.448L275.405 197.176L283.236 197.211L279.312 190.442V190.448ZM293.188 190.448L289.299 197.176L297.13 197.211L293.188 190.442V190.448ZM224.172 191.135C223.353 193.149 222.707 195.168 222.19 197.193L227.713 197.211L224.172 191.135ZM230.334 200.284L226.428 207.012L234.258 207.047L230.334 200.284ZM244.211 200.284L240.304 207.012L248.152 207.047L244.211 200.284ZM258.093 200.284L254.204 207.012L262.035 207.047L258.093 200.284ZM271.987 200.284L268.08 207.012L275.911 207.047L271.987 200.284ZM285.869 200.284L281.963 207.012L289.793 207.047L285.869 200.284ZM299.746 200.284L295.839 207.012L298.821 207.029C299.496 205.359 300.048 203.764 300.728 201.972L299.746 200.278V200.284ZM223.777 210.707L221.632 214.38C221.888 215.451 222.213 216.458 222.597 217.435L227.718 217.47L223.777 210.707ZM237.653 210.707L233.764 217.418L241.595 217.47L237.653 210.707ZM251.553 210.707L247.647 217.418L255.477 217.47L251.553 210.707ZM265.429 210.707L261.523 217.418L269.353 217.47L265.429 210.707ZM279.312 210.707L275.405 217.418L283.236 217.47L279.312 210.707ZM293.188 210.707L289.299 217.418L294.333 217.453C294.537 216.999 295.141 215.544 295.513 214.706L293.188 210.702V210.707ZM230.334 220.526L228.009 224.53C229.608 225.554 231.584 226.369 233.968 226.806L230.334 220.532V220.526ZM244.211 220.526L240.467 226.963C241.223 226.881 241.955 226.806 242.757 226.654C244.379 226.346 245.804 225.95 247.135 225.525L244.211 220.526Z" fill="white"/>
<path d="M316.761 192.933C318.372 192.933 319.685 194.318 319.685 196.041L316.523 215.049C316.523 216.772 315.418 218.396 313.808 218.396H265.092C264.389 218.396 263.627 217.901 263.627 217.197V216.289C263.627 215.585 264.215 214.921 264.918 214.921L278.725 214.7L281.812 196.041C281.812 194.318 283.125 192.933 284.736 192.933H316.761Z" fill="white"/>
<path d="M269.336 183.988C269.336 183.988 271.359 187.16 272.336 190.14C273.312 193.119 274.021 196.606 274.021 196.606" stroke="white" stroke-width="2" stroke-linecap="round" stroke-linejoin="round"/>
<path d="M243.269 190.25C243.269 190.25 243.566 193.154 243.205 196.32C242.845 199.486 242.101 201.745 242.101 201.745C242.101 201.745 246.525 200.476 251.251 200.162C258.157 199.702 259.721 204.369 259.721 204.369" stroke="white" stroke-width="2" stroke-linecap="round" stroke-linejoin="round"/>
<path d="M316.761 192.933C318.372 192.933 319.685 194.318 319.685 196.041L316.523 215.049C316.523 216.772 315.418 218.396 313.808 218.396H265.092C264.389 218.396 263.627 217.901 263.627 217.197V216.289C263.627 215.585 264.215 214.921 264.918 214.921L278.725 214.7L281.812 196.041C281.812 194.318 283.125 192.933 284.736 192.933H316.761Z" stroke="black" stroke-width="2" stroke-linecap="round" stroke-linejoin="round"/>
<path d="M303.065 199.143C303.065 198.165 302.274 197.374 301.298 197.374C300.321 197.374 299.53 198.165 299.53 199.143C299.53 200.121 300.321 200.912 301.298 200.912C302.274 200.912 303.065 200.121 303.065 199.143Z" stroke="black" stroke-width="2" stroke-linecap="round" stroke-linejoin="round"/>
<path d="M313.011 214.601H281.788" stroke="black" stroke-width="2" stroke-linecap="round" stroke-linejoin="round"/>
<path d="M261.087 299.125C261.087 301.726 260.883 308.862 260.883 308.862C260.883 308.862 291.397 310.718 294.455 309.228C296.519 308.222 291.845 305.393 287.328 302.774C283.032 300.289 277.974 298.467 277.974 298.467" stroke="black" stroke-width="2" stroke-linecap="round" stroke-linejoin="round"/>
<path d="M279.044 302.861L284.247 298.339" stroke="#FF367C" stroke-width="2" stroke-linecap="round" stroke-linejoin="round"/>
<path d="M281.643 304.014L286.846 299.492" stroke="#FF367C" stroke-width="2" stroke-linecap="round" stroke-linejoin="round"/>
<path d="M296.996 292.31C296.996 294.911 296.792 302.047 296.792 302.047C296.792 302.047 327.307 303.903 330.364 302.413C332.428 301.406 327.754 298.578 323.237 295.959C318.941 293.474 313.884 291.652 313.884 291.652" stroke="black" stroke-width="2" stroke-linecap="round" stroke-linejoin="round"/>
<path d="M314.947 296.046L320.15 291.524" stroke="#FF367C" stroke-width="2" stroke-linecap="round" stroke-linejoin="round"/>
<path d="M317.552 297.193L322.755 292.671" stroke="#FF367C" stroke-width="2" stroke-linecap="round" stroke-linejoin="round"/>
<path d="M252.884 219.216C252.884 218.768 253.28 218.402 253.762 218.402H316.064C316.546 218.402 316.941 218.768 316.941 219.216V220.415C316.941 220.869 316.546 221.23 316.064 221.23H253.762C253.28 221.23 252.884 220.863 252.884 220.415V219.216Z" fill="black"/>
<path d="M262.29 219.816H265.04V245.895H262.29V219.816Z" stroke="black" stroke-width="2" stroke-linecap="round" stroke-linejoin="round"/>
<path d="M252.024 204.259C252.024 204.259 260.349 198.922 266.668 200.435C275.952 202.653 279.23 211.918 276.486 212.71C275.219 213.076 274.452 210.614 271.923 207.815C270.481 206.214 268.656 205.953 268.656 205.953C268.656 205.953 271.597 207.099 272.737 209.148C274.824 212.884 271.638 213.583 271.638 213.583C271.638 213.583 270.644 211.709 269.493 210.422C268.342 209.142 267.016 208.973 267.016 208.973C267.016 208.973 268.766 209.549 269.935 211.022C271.121 212.517 271.824 213.734 270.452 214.45C268.563 215.433 263.924 211.26 263.924 211.26C263.924 211.26 261.052 212.803 259.477 212.849C255.744 212.96 253.873 211.854 253.873 211.854" stroke="black" stroke-width="2" stroke-linecap="round" stroke-linejoin="round"/>
<path d="M293.63 172.493C293.63 172.493 291.09 165.323 293.491 162.244C295.897 159.171 301.664 157.047 303.088 158.514C304.513 159.98 297.566 164.555 297.566 164.555C297.566 164.555 300.182 165.02 301.536 166.417C302.891 167.814 302.681 169.612 302.681 169.612" stroke="black" stroke-width="2" stroke-linecap="round" stroke-linejoin="round"/>
<path d="M296.188 159.893C296.188 159.893 300.379 150.232 302.612 150.511C305.123 150.825 301.49 158.042 301.49 158.042C301.49 158.042 305.46 154.51 306.821 156.343C308.152 158.135 304.216 165.469 301.722 164.578C300.141 164.014 301.327 161.703 301.327 161.703" stroke="black" stroke-width="2" stroke-linecap="round" stroke-linejoin="round"/>
<path d="M306.919 159.014C306.919 159.014 308.53 157.292 309.617 157.949C310.704 158.607 310.396 161.115 308.966 163.379C307.652 165.457 306.239 166.295 305.338 165.713C303.879 164.77 305.228 162.5 305.704 161.598C306.332 160.399 306.919 159.02 306.919 159.02V159.014Z" stroke="black" stroke-width="2" stroke-linecap="round" stroke-linejoin="round"/>
<path d="M307.774 164.916C307.774 164.916 306.524 168.745 305.216 170.707C303.902 172.668 302.077 173.908 302.077 173.908" stroke="black" stroke-width="2" stroke-linecap="round" stroke-linejoin="round"/>
<path d="M245.851 159.98C245.851 155.068 249.827 151.087 254.733 151.087C259.64 151.087 263.622 155.068 263.622 159.98C263.622 164.892 259.646 168.873 254.733 168.873C249.821 168.873 245.851 164.892 245.851 159.98Z" fill="white"/>
<path d="M263.337 161.04C263.848 156.256 260.384 151.96 255.605 151.454C250.827 150.942 246.536 154.411 246.031 159.195C245.519 163.979 248.984 168.274 253.762 168.78C258.541 169.292 262.831 165.824 263.337 161.04Z" stroke="black" stroke-width="2" stroke-linecap="round" stroke-linejoin="round"/>
<path d="M254.704 145.07C258.465 145.576 258.977 149.469 258.977 149.469C258.977 149.469 261.535 148.579 263.598 151.035C266.238 154.178 263.401 157.356 263.401 157.356C263.401 157.356 261.878 154.83 259.959 153.363C258.163 151.989 255.977 151.669 255.977 151.669C255.977 151.669 254.78 155.982 251.85 159.2C249.431 161.86 246.839 162.745 246.833 162.768C246.717 163.664 249.414 167.389 249.414 167.389C249.414 167.389 244.903 170.794 241.583 167.296C239.584 165.183 240.938 162.442 240.938 162.442C240.938 162.442 237.037 161.075 237.892 157.053C238.293 155.15 241.147 154.405 241.147 154.405C241.147 154.405 238.467 150.855 242.124 147.91C245.606 145.104 249.251 147.508 249.251 147.508C249.251 147.508 250.344 144.482 254.692 145.07H254.704Z" fill="black"/>
<path d="M254.681 161.587C254.739 161.034 254.338 160.533 253.785 160.475C253.233 160.417 252.733 160.818 252.675 161.371C252.617 161.924 253.018 162.425 253.57 162.483C254.123 162.541 254.622 162.14 254.681 161.587Z" fill="#FF367C"/>
<path d="M256.454 158.217C256.5 157.775 256.181 157.385 255.745 157.332C255.309 157.28 254.913 157.606 254.867 158.042C254.82 158.485 255.14 158.875 255.576 158.927C256.018 158.973 256.407 158.653 256.454 158.217Z" fill="black"/>
<path d="M261.424 156.611C261.471 156.168 261.151 155.778 260.715 155.732C260.273 155.685 259.884 156.005 259.837 156.442C259.791 156.884 260.11 157.274 260.546 157.321C260.988 157.367 261.378 157.047 261.424 156.611Z" fill="black"/>
<path d="M258.442 156.698L260.668 160.271L258.802 160.085" stroke="black" stroke-width="2" stroke-linecap="round" stroke-linejoin="round"/>
<path d="M256.373 162.809C256.373 162.07 256.966 161.476 257.704 161.476C258.442 161.476 259.035 162.07 259.035 162.809C259.035 163.548 258.442 164.142 257.704 164.142C256.966 164.142 256.373 163.548 256.373 162.809Z" stroke="black" stroke-width="2" stroke-linecap="round" stroke-linejoin="round"/>
<path d="M253.245 159.497C252.495 158.188 252.943 156.523 254.239 155.784C255.536 155.045 257.192 155.505 257.936 156.814C258.686 158.124 258.239 159.788 256.942 160.527C255.646 161.267 253.989 160.807 253.245 159.497Z" stroke="#FFC051" stroke-width="2" stroke-linecap="round" stroke-linejoin="round"/>
<path d="M259.669 157.326C259.018 156.186 259.407 154.737 260.535 154.09C261.663 153.444 263.11 153.846 263.762 154.993C264.413 156.139 264.023 157.582 262.895 158.229C261.768 158.875 260.32 158.473 259.669 157.326Z" stroke="#FFC051" stroke-width="2" stroke-linecap="round" stroke-linejoin="round"/>
<path d="M258.32 157.385L259.559 157.012" stroke="#FFC051" stroke-width="2" stroke-linecap="round" stroke-linejoin="round"/>
<path d="M200.082 218.303C200.082 218.303 199.908 216.283 198.117 214.875C196.327 213.466 195.472 213.705 194.222 213.489C192.711 213.228 192.874 211.697 193.542 211.255C193.757 211.109 194.455 210.731 195.78 210.742C198.547 210.771 200.803 211.464 200.803 211.464C200.803 211.464 199.123 211.039 197.123 210.783C195.123 210.527 193.432 211.237 193.432 211.237C193.432 211.237 191.798 209.573 193.466 208.42C194.74 207.541 196.588 207.373 198.419 207.501C200.251 207.629 201.344 207.92 201.344 207.92C201.344 207.92 200.303 207.57 198.286 207.442C194.681 207.215 193.217 208.548 193.217 208.548C193.217 208.548 192.757 206.924 194.466 205.481C195.862 204.305 199.646 203.898 202.32 204.695C205.273 205.58 208.57 209.834 206.331 214.153C204.448 217.773 200.082 218.303 200.082 218.303Z" stroke="black" stroke-width="2" stroke-linecap="round" stroke-linejoin="round"/>
<path d="M145.32 179.46C145.844 179.472 148.617 233.417 149.035 235.425L182.468 239.167L182.532 246.239L130.188 246C129.659 245.988 129.218 245.639 129.119 245.15L116.312 183.435C116.184 182.789 116.719 182.195 117.416 182.213L145.326 179.46H145.32Z" stroke="black" stroke-width="2" stroke-linecap="round" stroke-linejoin="round"/>
<path d="M120.538 186.211L130.63 238.562" stroke="black" stroke-width="2" stroke-linecap="round" stroke-linejoin="round"/>
<path d="M180.689 242.153L128.63 241.769" stroke="black" stroke-width="2" stroke-linecap="round" stroke-linejoin="round"/>
<path d="M137.833 246.652L129.38 305.282L126.392 305.224L133.729 246.239" stroke="black" stroke-width="2" stroke-linecap="round" stroke-linejoin="round"/>
<path d="M154.482 269.751L180.759 292.863C180.759 292.863 212.651 243.876 210.128 235.856C206.465 224.221 173.69 209.316 173.69 209.316L150.215 231.368L180.759 241.455L154.482 269.746V269.751Z" fill="black"/>
<path d="M166.812 212.89C166.812 212.89 197.263 224.064 202.89 234.942C208.511 245.82 213.47 295.249 213.47 295.249H176.864L175.102 244.021C175.102 244.021 144.193 244.12 139.077 237.59C133.961 231.06 136.391 213.274 136.391 213.274L166.812 212.89Z" fill="#FF367C"/>
<path opacity="0.25" d="M164.412 212.919V214.991H169.062V213.775C169.44 213.92 169.684 214.031 170.225 214.246V214.991H172.062C172.765 215.282 173.841 215.812 174.643 216.155H170.231V220.811H174.881V216.266C175.248 216.423 175.66 216.626 176.044 216.795V220.817H180.712V218.908C181.137 219.112 181.439 219.222 181.875 219.437V220.823H184.584C185.624 221.358 186.659 221.905 187.688 222.476V226.643H192.339V225.298C192.728 225.548 193.124 225.793 193.502 226.043V226.643H194.443C194.996 227.027 195.449 227.417 195.966 227.807H193.496V232.463H198.146V229.588C198.513 229.908 198.972 230.21 199.309 230.53V232.457H201.164C201.489 232.847 201.768 233.231 202.036 233.621H199.309V238.294H203.96V237.456C204.355 238.562 204.739 239.93 205.122 241.35V244.114H205.773C205.867 244.498 205.954 244.882 206.047 245.278H205.122V249.934H207.105C207.18 250.307 207.233 250.726 207.302 251.098H205.122V255.754H208.157C208.227 256.15 208.291 256.517 208.355 256.918H205.122V261.592H209.116C209.174 261.982 209.238 262.366 209.296 262.756H205.117V267.412H209.785V265.957C210.238 269.024 210.564 271.497 210.947 274.396V279.052H211.546C211.593 279.442 211.645 279.837 211.691 280.216H210.947V284.872H212.29C212.331 285.209 212.395 285.71 212.436 286.036H210.947V290.709H212.965C213.011 291.163 213.052 291.524 213.092 291.873H210.947V295.237H209.785V291.873H205.117V295.237H203.954V291.873H199.303V295.237H198.141V291.873H193.49V295.237H192.327V291.873H187.677V295.237H186.514V291.873H181.863V295.237H180.701V291.873H176.742L176.689 290.709H180.706V286.036H176.544L176.492 284.872H180.706V280.216H176.346L176.294 279.052H180.706V274.396H176.149L176.096 273.232H180.712V268.576H176.044V271.486L175.102 244.021H174.887V239.458H170.237V243.934C169.917 243.922 169.417 243.876 169.074 243.864V239.464H164.423V243.59C164.028 243.567 163.668 243.544 163.261 243.521V239.464H158.61V243.212C158.22 243.177 157.837 243.125 157.447 243.084V239.464H152.797V242.502C152.39 242.438 152.035 242.351 151.634 242.281V239.464H146.966V241.373C146.53 241.262 146.216 241.111 145.803 240.989V239.464H141.623C140.926 239.103 140.35 238.719 139.862 238.3H139.99V233.627H137.211C137.095 233.248 136.984 232.858 136.885 232.463H139.99V227.807H136.083C136.043 227.417 136.002 227.038 135.973 226.643H139.99V221.987H135.868C135.868 221.55 135.909 221.242 135.92 220.823H139.99V216.167H136.101C136.159 215.457 136.159 215.474 136.211 215.003H139.99V213.239L141.152 213.222V215.003H145.803V213.163L146.966 213.146V215.003H151.634V213.076H152.797V215.003H157.447V213.001H158.61V215.003H163.261V212.931H164.423L164.412 212.919ZM169.062 216.155H164.412V220.811H169.062V216.155ZM163.249 216.155H158.598V220.811H163.249V216.155ZM157.436 216.155H152.785V220.811H157.436V216.155ZM151.622 216.155H146.954V220.811H151.622V216.155ZM145.792 216.155H141.141V220.811H145.792V216.155ZM186.526 221.975H181.875V226.631H186.526V221.975ZM180.712 221.975H176.044V226.631H180.712V221.975ZM174.876 221.975H170.225V226.631H174.876V221.975ZM169.062 221.975H164.412V226.631H169.062V221.975ZM163.249 221.975H158.598V226.631H163.249V221.975ZM157.436 221.975H152.785V226.631H157.436V221.975ZM151.622 221.975H146.954V226.631H151.622V221.975ZM145.792 221.975H141.141V226.631H145.792V221.975ZM192.339 227.795H187.688V232.451H192.339V227.795ZM186.526 227.795H181.875V232.451H186.526V227.795ZM180.712 227.795H176.044V232.451H180.712V227.795ZM174.876 227.795H170.225V232.451H174.876V227.795ZM169.062 227.795H164.412V232.451H169.062V227.795ZM163.249 227.795H158.598V232.451H163.249V227.795ZM157.436 227.795H152.785V232.451H157.436V227.795ZM151.622 227.795H146.954V232.451H151.622V227.795ZM145.792 227.795H141.141V232.451H145.792V227.795ZM198.152 233.615H193.502V238.288H198.152V233.615ZM192.339 233.615H187.688V238.288H192.339V233.615ZM186.526 233.615H181.875V238.288H186.526V233.615ZM180.712 233.615H176.044V238.288H180.712V233.615ZM174.876 233.615H170.225V238.288H174.876V233.615ZM169.062 233.615H164.412V238.288H169.062V233.615ZM163.249 233.615H158.598V238.288H163.249V233.615ZM157.436 233.615H152.785V238.288H157.436V233.615ZM151.622 233.615H146.954V238.288H151.622V233.615ZM145.792 233.615H141.141V238.288H145.792V233.615ZM203.966 239.452H199.315V244.108H203.966V239.452ZM198.152 239.452H193.502V244.108H198.152V239.452ZM192.339 239.452H187.688V244.108H192.339V239.452ZM186.526 239.452H181.875V244.108H186.526V239.452ZM180.712 239.452H176.044V244.108H180.712V239.452ZM203.966 245.272H199.315V249.928H203.966V245.272ZM198.152 245.272H193.502V249.928H198.152V245.272ZM192.339 245.272H187.688V249.928H192.339V245.272ZM186.526 245.272H181.875V249.928H186.526V245.272ZM180.712 245.272H176.044V249.928H180.712V245.272ZM203.966 251.092H199.315V255.748H203.966V251.092ZM198.152 251.092H193.502V255.748H198.152V251.092ZM192.339 251.092H187.688V255.748H192.339V251.092ZM186.526 251.092H181.875V255.748H186.526V251.092ZM180.712 251.092H176.044V255.748H180.712V251.092ZM203.966 256.912H199.315V261.586H203.966V256.912ZM198.152 256.912H193.502V261.586H198.152V256.912ZM192.339 256.912H187.688V261.586H192.339V256.912ZM186.526 256.912H181.875V261.586H186.526V256.912ZM180.712 256.912H176.044V261.586H180.712V256.912ZM203.966 262.756H199.315V267.412H203.966V262.756ZM198.152 262.756H193.502V267.412H198.152V262.756ZM192.339 262.756H187.688V267.412H192.339V262.756ZM186.526 262.756H181.875V267.412H186.526V262.756ZM180.712 262.756H176.044V267.412H180.712V262.756ZM209.796 268.576H205.128V273.232H209.796V268.576ZM203.966 268.576H199.315V273.232H203.966V268.576ZM198.152 268.576H193.502V273.232H198.152V268.576ZM192.339 268.576H187.688V273.232H192.339V268.576ZM186.526 268.576H181.875V273.232H186.526V268.576ZM209.796 274.396H205.128V279.052H209.796V274.396ZM203.966 274.396H199.315V279.052H203.966V274.396ZM198.152 274.396H193.502V279.052H198.152V274.396ZM192.339 274.396H187.688V279.052H192.339V274.396ZM186.526 274.396H181.875V279.052H186.526V274.396ZM209.796 280.216H205.128V284.872H209.796V280.216ZM203.966 280.216H199.315V284.872H203.966V280.216ZM198.152 280.216H193.502V284.872H198.152V280.216ZM192.339 280.216H187.688V284.872H192.339V280.216ZM186.526 280.216H181.875V284.872H186.526V280.216ZM209.796 286.036H205.128V290.709H209.796V286.036ZM203.966 286.036H199.315V290.709H203.966V286.036ZM198.152 286.036H193.502V290.709H198.152V286.036ZM192.339 286.036H187.688V290.709H192.339V286.036ZM186.526 286.036H181.875V290.709H186.526V286.036Z" fill="white"/>
<path d="M187.055 186.211C185.886 183.93 178.009 170.462 159.813 170.875C148.059 171.137 134.88 175.421 126.613 186.566C120.556 194.732 118.265 211.842 123.288 218.402C128.625 225.38 138.74 221.364 141.24 219.63C143.786 217.86 146.065 215.154 146.065 215.154C146.065 215.154 151.175 218.53 160.621 218.402C170.068 218.268 193.135 218.291 193.135 218.291C193.135 218.291 196.071 203.834 187.055 186.211Z" fill="#FFC051"/>
<path d="M201.373 192.933C202.983 192.933 204.297 194.318 204.297 196.041L201.134 215.049C201.134 216.772 200.03 218.396 198.419 218.396H149.704C149 218.396 148.239 217.901 148.239 217.197V216.289C148.239 215.585 148.826 214.921 149.529 214.921L163.336 214.7L166.423 196.041C166.423 194.318 167.731 192.933 169.347 192.933H201.373Z" fill="white"/>
<path d="M168.161 173.908L167.585 180.461L161.301 174.804L157.034 181.025L152.221 174.92" stroke="white" stroke-width="2" stroke-linecap="round" stroke-linejoin="round"/>
<path d="M176.079 182.108C176.079 182.108 178.102 185.28 179.078 188.26C180.049 191.24 180.764 194.726 180.764 194.726" stroke="white" stroke-width="2" stroke-linecap="round" stroke-linejoin="round"/>
<path d="M145.041 186.211C145.041 186.211 143.757 189.203 143.216 192.642C142.675 196.082 142.914 198.66 142.914 198.66" stroke="white" stroke-width="2" stroke-linecap="round" stroke-linejoin="round"/>
<path d="M201.373 192.933C202.983 192.933 204.297 194.318 204.297 196.041L201.134 215.049C201.134 216.772 200.03 218.396 198.419 218.396H149.704C149 218.396 148.239 217.901 148.239 217.197V216.289C148.239 215.585 148.826 214.921 149.529 214.921L163.336 214.7L166.423 196.041C166.423 194.318 167.731 192.933 169.347 192.933H201.373Z" stroke="black" stroke-width="2" stroke-linecap="round" stroke-linejoin="round"/>
<path d="M187.677 199.143C187.677 198.165 186.886 197.374 185.909 197.374C184.933 197.374 184.142 198.165 184.142 199.143C184.142 200.121 184.933 200.912 185.909 200.912C186.886 200.912 187.677 200.121 187.677 199.143Z" stroke="black" stroke-width="2" stroke-linecap="round" stroke-linejoin="round"/>
<path d="M191.472 214.601H166.399" stroke="black" stroke-width="2" stroke-linecap="round" stroke-linejoin="round"/>
<path d="M163.196 150.633C163.196 150.633 162.15 154.963 157.999 158.054C153.976 161.051 151.221 160.9 151.221 160.9C151.221 160.9 149.459 152.932 156.162 150.243C158.819 149.178 163.196 150.633 163.196 150.633Z" fill="#FF367C"/>
<path d="M167.725 161.22C169.213 156.68 166.743 151.797 162.214 150.302C157.68 148.812 152.796 151.285 151.308 155.825C149.82 160.364 152.291 165.253 156.819 166.743C161.354 168.233 166.237 165.76 167.725 161.22Z" stroke="black" stroke-width="2" stroke-linecap="round" stroke-linejoin="round"/>
<path d="M161.394 158.95C161.493 158.421 161.144 157.914 160.621 157.821C160.098 157.728 159.598 158.077 159.499 158.607C159.4 159.136 159.749 159.643 160.272 159.736C160.796 159.829 161.301 159.48 161.394 158.95Z" fill="#FF367C"/>
<path d="M163.679 157.059C163.749 156.68 163.499 156.32 163.121 156.25C162.743 156.18 162.383 156.43 162.319 156.808C162.249 157.187 162.499 157.548 162.877 157.617C163.255 157.687 163.615 157.437 163.679 157.059Z" fill="black"/>
<path d="M167.719 155.988C167.789 155.61 167.539 155.249 167.161 155.185C166.783 155.121 166.423 155.365 166.359 155.743C166.295 156.122 166.539 156.483 166.917 156.552C167.295 156.622 167.655 156.372 167.719 155.994V155.988Z" fill="black"/>
<path d="M162.888 159.87C162.888 159.87 163.051 160.882 163.667 161.313C164.58 161.959 165.667 161.697 165.667 161.697" stroke="black" stroke-width="2" stroke-linecap="round" stroke-linejoin="round"/>
<path d="M165.109 156.215L166.818 159.561L164.876 159.59" stroke="black" stroke-width="2" stroke-linecap="round" stroke-linejoin="round"/>
<path d="M140.629 202.041C142.402 198.66 145.832 197.025 150.977 198.078C158.773 199.673 164.202 205.528 161.935 207.57C160.848 208.548 158.988 207.117 156.756 205.749C154.698 204.486 153.483 204.084 153.483 204.084C153.483 204.084 156.808 205.19 158.186 207.396C160.703 211.423 157.215 212.372 157.215 212.372C157.215 212.372 155.854 210.725 154.506 209.363C153.157 208.007 151.146 207.291 151.146 207.291C151.146 207.291 153.651 208.438 155.029 210.003C156.424 211.592 157.43 212.523 155.942 213.396C153.901 214.595 147.047 209.066 147.047 209.066C147.047 209.066 142.542 213.396 140.734 211.412C138.949 209.456 138.728 205.673 140.629 202.041Z" stroke="black" stroke-width="2" stroke-linecap="round" stroke-linejoin="round"/>
<path d="M184.264 297.978C184.264 300.58 184.061 307.715 184.061 307.715C184.061 307.715 214.575 309.572 217.633 308.082C219.696 307.075 215.022 304.247 210.505 301.628C206.209 299.142 201.158 297.321 201.158 297.321" stroke="black" stroke-width="2" stroke-linecap="round" stroke-linejoin="round"/>
<path d="M202.221 301.715L207.424 297.193" stroke="#FF367C" stroke-width="2" stroke-linecap="round" stroke-linejoin="round"/>
<path d="M204.82 302.861L210.023 298.339" stroke="#FF367C" stroke-width="2" stroke-linecap="round" stroke-linejoin="round"/>
<path d="M157.331 274.157C155.471 275.967 150.215 280.798 150.215 280.798C150.215 280.798 170.155 303.996 173.352 305.154C175.509 305.934 174.283 300.609 173.004 295.54C171.794 290.721 169.568 285.826 169.568 285.826" stroke="black" stroke-width="2" stroke-linecap="round" stroke-linejoin="round"/>
<path d="M167.167 289.65L174.033 290.232" stroke="#FF367C" stroke-width="2" stroke-linecap="round" stroke-linejoin="round"/>
<path d="M168.161 292.321L175.027 292.903" stroke="#FF367C" stroke-width="2" stroke-linecap="round" stroke-linejoin="round"/>
<path d="M142.251 146.845C142.251 143.766 144.745 141.263 147.82 141.263C150.895 141.263 153.395 143.76 153.395 146.845C153.395 149.929 150.901 152.42 147.82 152.42C144.739 152.42 142.251 149.923 142.251 146.845Z" fill="#FF367C"/>
<path d="M139.565 136.113C139.565 133.802 141.414 131.928 143.699 131.928C145.983 131.928 147.832 133.802 147.832 136.113C147.832 138.423 145.983 140.297 143.699 140.297C141.414 140.297 139.565 138.423 139.565 136.113Z" fill="#FF367C"/>
<path d="M144.065 127.639C144.065 125.916 145.443 124.525 147.14 124.525C148.838 124.525 150.215 125.922 150.215 127.639C150.215 129.355 148.838 130.752 147.14 130.752C145.443 130.752 144.065 129.355 144.065 127.639Z" fill="#FF367C"/>
<path d="M200.024 218.396C200.024 218.396 199.85 216.376 198.059 214.968C196.269 213.559 195.414 213.798 194.164 213.583C192.653 213.321 192.815 211.79 193.484 211.348C193.699 211.202 194.397 210.824 195.722 210.836C198.489 210.865 200.745 211.557 200.745 211.557C200.745 211.557 199.065 211.132 197.065 210.876C195.065 210.62 193.374 211.33 193.374 211.33C193.374 211.33 191.74 209.666 193.408 208.513C194.682 207.635 196.53 207.466 198.361 207.594C200.193 207.722 201.285 208.013 201.285 208.013C201.285 208.013 200.245 207.664 198.228 207.536C194.623 207.309 193.158 208.641 193.158 208.641C193.158 208.641 192.699 207.018 194.408 205.574C195.803 204.399 199.588 203.991 202.262 204.789C205.215 205.673 208.511 209.928 206.273 214.246C204.39 217.866 200.024 218.396 200.024 218.396Z" fill="white"/>
<path d="M146.14 219.216C146.14 218.768 146.535 218.401 147.018 218.401H209.389C209.878 218.401 210.267 218.768 210.267 219.216V220.415C210.267 220.869 209.872 221.23 209.389 221.23H147.018C146.53 221.23 146.14 220.863 146.14 220.415V219.216Z" fill="black"/>
<path d="M160.447 219.816H163.196V245.895H160.447V219.816Z" stroke="black" stroke-width="2" stroke-linecap="round" stroke-linejoin="round"/>
</svg>
