<svg width="698" height="110" viewBox="0 0 698 110" fill="none" xmlns="http://www.w3.org/2000/svg">
<path d="M46.3556 1.9229C83.4621 1.9229 102.015 19.6024 102.015 54.9615C102.015 90.3205 83.4621 108 46.3556 108H0.409455V1.9229H46.3556ZM34.4836 82.56H45.7389C60.0264 82.56 67.1702 74.9023 67.1702 59.5869V50.336C67.1702 35.0206 60.0264 27.3629 45.7389 27.3629H34.4836V82.56ZM198.737 71.1505C198.737 84.4102 194.934 94.175 187.327 100.445C179.824 106.715 168.98 109.85 154.795 109.85C140.61 109.85 129.715 106.715 122.108 100.445C114.605 94.175 110.853 84.4102 110.853 71.1505V69.7629H142.769V70.9964C142.769 75.8274 143.642 79.2708 145.39 81.3265C147.24 83.3823 150.015 84.4102 153.716 84.4102C157.416 84.4102 160.14 83.3823 161.887 81.3265C163.737 79.2708 164.662 75.8274 164.662 70.9964V1.9229H198.737V71.1505ZM286.871 108L282.4 93.0444H245.242L240.77 108H205.925L244.625 1.9229H284.25L322.949 108H286.871ZM252.334 69.3004H275.307L264.206 31.5258H263.589L252.334 69.3004ZM409.957 108L365.399 56.5033V108H334.1V1.9229H363.857L408.416 54.1905V1.9229H439.714V108H409.957ZM514.185 0.072716C524.361 0.072716 533.51 1.61454 541.63 4.69818C549.75 7.78181 556.174 12.3559 560.903 18.4204C565.734 24.3821 568.149 31.68 568.149 40.3142H535.617C535.617 35.8943 533.664 32.3481 529.758 29.6756C525.852 26.9004 521.124 25.5127 515.573 25.5127C507.556 25.5127 501.491 27.6713 497.38 31.9884C493.268 36.2027 491.212 42.2158 491.212 50.0276V59.8953C491.212 67.7071 493.268 73.7716 497.38 78.0887C501.491 82.303 507.556 84.4102 515.573 84.4102C521.124 84.4102 525.852 83.1253 529.758 80.5556C533.664 77.8831 535.617 74.4911 535.617 70.3796H511.564V48.7942H568.149V108H550.572L547.18 97.5156C537.518 105.739 524.875 109.85 509.252 109.85C491.675 109.85 478.467 105.276 469.627 96.128C460.787 86.8771 456.367 73.1549 456.367 54.9615C456.367 36.9736 461.352 23.3542 471.323 14.1033C481.396 4.74957 495.684 0.072716 514.185 0.072716ZM640.307 0.072716C658.604 0.072716 672.737 4.74957 682.707 14.1033C692.678 23.457 697.663 37.0764 697.663 54.9615C697.663 72.8465 692.678 86.4659 682.707 95.8196C672.737 105.173 658.604 109.85 640.307 109.85C622.011 109.85 607.878 105.225 597.907 95.9738C588.04 86.6201 583.106 72.9493 583.106 54.9615C583.106 36.9736 588.04 23.3542 597.907 14.1033C607.878 4.74957 622.011 0.072716 640.307 0.072716ZM640.307 25.5127C633.009 25.5127 627.459 27.7227 623.656 32.1425C619.853 36.5624 617.951 42.5241 617.951 50.0276V59.8953C617.951 67.3988 619.853 73.3605 623.656 77.7804C627.459 82.2002 633.009 84.4102 640.307 84.4102C647.605 84.4102 653.156 82.2002 656.959 77.7804C660.865 73.3605 662.818 67.3988 662.818 59.8953V50.0276C662.818 42.5241 660.865 36.5624 656.959 32.1425C653.156 27.7227 647.605 25.5127 640.307 25.5127Z" fill="#06038D"/>
</svg>
