<svg width="25" height="25" viewBox="0 0 25 25" fill="none" xmlns="http://www.w3.org/2000/svg">
<path d="M17.3086 12.4102C17.9053 12.4102 18.4776 12.6472 18.8996 13.0692C19.3215 13.4911 19.5586 14.0634 19.5586 14.6602V15.4102C19.5586 18.3667 16.7686 21.4102 12.0586 21.4102C7.34859 21.4102 4.55859 18.3667 4.55859 15.4102V14.6602C4.55859 14.0634 4.79565 13.4911 5.2176 13.0692C5.63956 12.6472 6.21186 12.4102 6.80859 12.4102H17.3086ZM12.0586 2.66016C13.1526 2.66016 14.2018 3.09475 14.9754 3.86834C15.749 4.64193 16.1836 5.69114 16.1836 6.78516C16.1836 7.87917 15.749 8.92838 14.9754 9.70197C14.2018 10.4756 13.1526 10.9102 12.0586 10.9102C10.9646 10.9102 9.91537 10.4756 9.14178 9.70197C8.36819 8.92838 7.93359 7.87917 7.93359 6.78516C7.93359 5.69114 8.36819 4.64193 9.14178 3.86834C9.91537 3.09475 10.9646 2.66016 12.0586 2.66016Z" fill="#374151"/>
</svg>
