<svg width="468" height="107" viewBox="0 0 468 107" fill="none" xmlns="http://www.w3.org/2000/svg">
<path d="M0.599025 107V0.922902H34.6732V107H0.599025ZM133.145 107L88.5863 55.5033V107H57.2873V0.922902H87.0444L131.603 53.1905V0.922902H162.902V107H133.145Z" fill="#FF671F"/>
<path d="M229.972 0.922902C267.079 0.922902 285.632 18.6024 285.632 53.9615C285.632 89.3205 267.079 107 229.972 107H184.026V0.922902H229.972ZM218.1 81.56H229.355C243.643 81.56 250.787 73.9023 250.787 58.5869V49.336C250.787 34.0206 243.643 26.3629 229.355 26.3629H218.1V81.56Z" fill="#06038D"/>
<path d="M303.875 107V0.922902H337.949V107H303.875ZM431.641 107L427.17 92.0444H390.012L385.54 107H350.695L389.395 0.922902H429.02L467.719 107H431.641ZM397.104 68.3004H420.077L408.976 30.5258H408.359L397.104 68.3004Z" fill="#046A38"/>
</svg>
