<svg width="25" height="25" viewBox="0 0 25 25" fill="none" xmlns="http://www.w3.org/2000/svg">
<path d="M12.0586 2.58301C8.18859 2.58301 5.05859 5.71301 5.05859 9.58301C5.05859 14.833 12.0586 22.583 12.0586 22.583C12.0586 22.583 19.0586 14.833 19.0586 9.58301C19.0586 5.71301 15.9286 2.58301 12.0586 2.58301ZM12.0586 12.083C11.3956 12.083 10.7597 11.8196 10.2908 11.3508C9.82199 10.8819 9.55859 10.246 9.55859 9.58301C9.55859 8.91997 9.82199 8.28408 10.2908 7.81524C10.7597 7.3464 11.3956 7.08301 12.0586 7.08301C12.7216 7.08301 13.3575 7.3464 13.8264 7.81524C14.2952 8.28408 14.5586 8.91997 14.5586 9.58301C14.5586 10.246 14.2952 10.8819 13.8264 11.3508C13.3575 11.8196 12.7216 12.083 12.0586 12.083Z" fill="#374151"/>
</svg>
