<svg width="25" height="25" viewBox="0 0 25 25" fill="none" xmlns="http://www.w3.org/2000/svg">
<g clip-path="url(#clip0_1749_1953)">
<path d="M23.0357 9.40147L20.9671 7.33288C20.8002 7.16823 20.5777 7.07209 20.3434 7.06341C20.1091 7.05474 19.8801 7.13415 19.7015 7.286C19.4257 7.52072 19.0718 7.64328 18.71 7.62939C18.3481 7.6155 18.0047 7.46617 17.7477 7.211C17.4927 6.95407 17.3434 6.61073 17.3295 6.24898C17.3157 5.88723 17.4381 5.53345 17.6727 5.25772C17.8246 5.0791 17.904 4.85007 17.8953 4.6158C17.8866 4.38152 17.7905 4.15899 17.6258 3.99209L15.5554 1.92116C15.3804 1.74652 15.1433 1.64844 14.8961 1.64844C14.6489 1.64844 14.4118 1.74652 14.2368 1.92116L10.9391 5.21834C10.7356 5.4227 10.582 5.67137 10.4905 5.94491C10.4727 5.9975 10.443 6.04529 10.4038 6.08455C10.3645 6.12382 10.3167 6.1535 10.2641 6.17131C9.99047 6.2628 9.74176 6.41652 9.53756 6.62038L1.08131 15.0766C0.906676 15.2516 0.808594 15.4887 0.808594 15.7359C0.808594 15.9831 0.906676 16.2202 1.08131 16.3952L3.15225 18.4638C3.31915 18.6285 3.54167 18.7246 3.77595 18.7333C4.01023 18.742 4.23926 18.6625 4.41788 18.5107C4.69298 18.2741 5.04734 18.1502 5.40994 18.1638C5.77255 18.1774 6.11662 18.3275 6.3732 18.5841C6.62979 18.8407 6.77993 19.1848 6.79355 19.5474C6.80716 19.91 6.68324 20.2643 6.44662 20.5394C6.29478 20.7181 6.21536 20.9471 6.22404 21.1814C6.23272 21.4156 6.32885 21.6382 6.4935 21.8051L8.56209 23.8737C8.73707 24.0483 8.97418 24.1464 9.22139 24.1464C9.4686 24.1464 9.70571 24.0483 9.88069 23.8737L18.3369 15.4174C18.5407 15.2133 18.6944 14.9648 18.786 14.6913C18.8037 14.6385 18.8334 14.5906 18.8728 14.5512C18.9122 14.5119 18.9601 14.4822 19.0129 14.4644C19.2863 14.373 19.5348 14.2194 19.739 14.0158L23.0362 10.7182C23.2102 10.5432 23.3078 10.3065 23.3077 10.0597C23.3076 9.81298 23.2098 9.5763 23.0357 9.40147ZM12.3308 8.01163C12.2612 8.08129 12.1785 8.13655 12.0875 8.17425C11.9965 8.21195 11.899 8.23136 11.8005 8.23136C11.7019 8.23136 11.6044 8.21195 11.5134 8.17425C11.4224 8.13655 11.3397 8.08129 11.2701 8.01163L10.7305 7.47209C10.5933 7.33073 10.5172 7.14105 10.5187 6.94404C10.5202 6.74704 10.5991 6.55852 10.7385 6.41924C10.8778 6.27996 11.0663 6.20111 11.2634 6.19971C11.4604 6.19831 11.65 6.27449 11.7913 6.41178L12.3308 6.95084C12.4005 7.02049 12.4558 7.10318 12.4935 7.19418C12.5312 7.28519 12.5506 7.38273 12.5506 7.48124C12.5506 7.57974 12.5312 7.67728 12.4935 7.76829C12.4558 7.85929 12.4005 7.94198 12.3308 8.01163ZM14.3933 10.0741C14.2527 10.2147 14.062 10.2936 13.8632 10.2936C13.6644 10.2936 13.4737 10.2147 13.333 10.0741L12.8174 9.5585C12.6767 9.41783 12.5977 9.22705 12.5977 9.02811C12.5977 8.82917 12.6767 8.63839 12.8174 8.49772C12.9581 8.35705 13.1489 8.27802 13.3478 8.27802C13.5467 8.27802 13.7375 8.35705 13.8782 8.49772L14.3938 9.01334C14.4637 9.08299 14.5192 9.16574 14.5571 9.25685C14.5949 9.34797 14.6144 9.44567 14.6145 9.54434C14.6145 9.64301 14.5951 9.74073 14.5573 9.83188C14.5195 9.92303 14.4641 10.0058 14.3943 10.0755L14.3933 10.0741ZM16.4558 12.1366C16.3862 12.2063 16.3035 12.2615 16.2125 12.2992C16.1215 12.337 16.024 12.3564 15.9255 12.3564C15.8269 12.3564 15.7294 12.337 15.6384 12.2992C15.5474 12.2615 15.4647 12.2063 15.3951 12.1366L14.8794 11.621C14.7422 11.4796 14.6661 11.29 14.6676 11.093C14.6691 10.8959 14.748 10.7074 14.8874 10.5681C15.0267 10.4289 15.2153 10.35 15.4123 10.3486C15.6093 10.3472 15.7989 10.4234 15.9402 10.5607L16.4558 11.0763C16.5259 11.1458 16.5816 11.2285 16.6197 11.3196C16.6578 11.4107 16.6775 11.5084 16.6777 11.6072C16.6779 11.7059 16.6586 11.8037 16.621 11.8949C16.5833 11.9862 16.528 12.0691 16.4582 12.139L16.4558 12.1366ZM18.5385 14.2244C18.4689 14.2941 18.3862 14.3494 18.2952 14.3871C18.2042 14.4248 18.1066 14.4442 18.0081 14.4442C17.9096 14.4442 17.8121 14.4248 17.7211 14.3871C17.63 14.3494 17.5474 14.2941 17.4777 14.2244L16.9415 13.6854C16.8703 13.6159 16.8137 13.5331 16.7749 13.4415C16.7361 13.35 16.7159 13.2517 16.7154 13.1523C16.7149 13.0529 16.7342 12.9544 16.7722 12.8625C16.8101 12.7707 16.8659 12.6872 16.9364 12.6171C17.0068 12.547 17.0905 12.4916 17.1826 12.4541C17.2746 12.4166 17.3732 12.3978 17.4726 12.3988C17.572 12.3997 17.6702 12.4204 17.7616 12.4597C17.8529 12.4989 17.9355 12.5559 18.0046 12.6274L18.5413 13.166C18.6109 13.2357 18.6662 13.3184 18.7038 13.4094C18.7415 13.5004 18.7608 13.598 18.7608 13.6965C18.7608 13.795 18.7413 13.8925 18.7036 13.9835C18.6658 14.0745 18.6105 14.1572 18.5408 14.2268L18.5385 14.2244Z" fill="#374151"/>
</g>
<defs>
<clipPath id="clip0_1749_1953">
<rect width="24" height="24" fill="white" transform="translate(0.0585938 0.898438)"/>
</clipPath>
</defs>
</svg>
